<?xml version="1.0" encoding="utf-8"?>
<!-- Generator: Adobe Illustrator 24.0.1, SVG Export Plug-In . SVG Version: 6.00 Build 0)  -->
<svg version="1.1" id="Layer_1" xmlns="http://www.w3.org/2000/svg" xmlns:xlink="http://www.w3.org/1999/xlink" x="0px" y="0px"
	 viewBox="0 0 1920 1080" style="enable-background:new 0 0 1920 1080;" xml:space="preserve">
<style type="text/css">
	.st0{opacity:0.28;fill:#EC2027;}
	.st1{opacity:0.22;fill:#00A64F;}
	.st2{opacity:0.27;fill:#EC2027;}
	.st3{opacity:0.27;fill:#00A64F;}
	.st4{fill:#231F20;}
	.st5{font-family:'SourceCodePro-Regular';}
	.st6{font-size:26.7953px;}
	.st7{fill:#231F20;stroke:#231F20;stroke-miterlimit:10;}
	.st8{font-size:8.9226px;}
	.st9{font-family:'CaslonsEgyptian-Medium';}
	.st10{font-size:72px;}
	.st11{font-family:'AndaleMono';}
	.st12{font-size:25.0103px;}
	.st13{font-size:8.0319px;}
	.st14{font-size:8.8924px;}
	.st15{stroke:#ED185E;stroke-width:4;stroke-miterlimit:10;}
	.st16{stroke:#804098;stroke-width:4;stroke-miterlimit:10;}
	.st17{stroke:#F16623;stroke-width:4;stroke-miterlimit:10;}
	.st18{fill:#231F20;stroke:#FEDE10;stroke-width:4;stroke-miterlimit:10;}
	.st19{stroke:#00A14A;stroke-width:4;stroke-miterlimit:10;}
	.st20{fill:#010101;}
	.st21{fill:#5CC9E0;}
	.st22{fill:#231F20;stroke:#231F20;stroke-width:0.75;stroke-miterlimit:10;}
	.st23{fill:none;stroke:#000000;stroke-miterlimit:10;}
	.st24{stroke:#000000;stroke-width:0.5;stroke-miterlimit:10;}
	.st25{font-size:7.7421px;}
	.st26{font-size:23.1094px;}
</style>
<g id="Layer_632">
</g>
<g id="Layer_631">
</g>
<g id="Layer_630">
	<rect x="750.44" y="248.8" class="st1" width="32.66" height="264.1"/>
</g>
<g id="Layer_629">
	<polygon class="st0" points="1063.45,252.38 1030.79,252.38 1030.44,513.19 1063.09,513.19 	"/>
</g>
<g id="Layer_628">
</g>
<g id="Layer_627">
</g>
<g id="Layer_626">
</g>
<g id="Layer_625">
</g>
<g id="Layer_624">
</g>
<g id="Layer_623">
</g>
<g id="Layer_622">
</g>
<g id="Layer_621">
	<g>
		<text transform="matrix(1 0 0 1 37.3027 188.0781)" class="st5 st6">THE POLICE</text>
		<rect x="260.26" y="245.66" class="st0" width="32.66" height="268.08"/>
		<rect x="127.4" y="245.71" class="st1" width="32.66" height="268.26"/>
		<polyline class="st4" points="93.97,513.83 654.97,513.83 654.97,513.46 93.97,513.46 		"/>
		<polyline class="st4" points="94.16,513.65 94.16,507.02 93.79,507.02 93.79,513.65 		"/>
		<polyline class="st4" points="94.16,513.65 94.16,248.46 93.79,248.46 93.79,513.65 		"/>
		<polyline class="st4" points="93.97,513.83 108,513.83 108,513.46 93.97,513.46 		"/>
		<polyline class="st4" points="93.97,381.24 108,381.24 108,380.87 93.97,380.87 		"/>
		<polyline class="st4" points="93.97,248.65 108,248.65 108,248.28 93.97,248.28 		"/>
		<path class="st7" d="M143.47,513.28h-33c-0.21,0-0.37,0.17-0.37,0.37c0,0.21,0.17,0.37,0.37,0.37h33c0.21,0,0.37-0.17,0.37-0.37
			C143.85,513.44,143.68,513.28,143.47,513.28"/>
		<path class="st7" d="M176.47,513.28h-33c-0.21,0-0.37,0.17-0.37,0.37c0,0.21,0.17,0.37,0.37,0.37h33c0.21,0,0.37-0.17,0.37-0.37
			C176.84,513.44,176.68,513.28,176.47,513.28"/>
		<path class="st7" d="M209.47,513.28h-33c-0.21,0-0.37,0.17-0.37,0.37c0,0.21,0.17,0.37,0.37,0.37h33c0.21,0,0.37-0.17,0.37-0.37
			C209.84,513.44,209.68,513.28,209.47,513.28"/>
		<path class="st7" d="M242.1,248.42l-33,265.18c-0.03,0.2,0.12,0.39,0.32,0.42s0.39-0.12,0.42-0.32l33-265.18
			c0.03-0.2-0.12-0.39-0.32-0.42C242.31,248.07,242.13,248.21,242.1,248.42"/>
		<path class="st7" d="M275.83,380.97l-33-132.59c-0.05-0.2-0.25-0.32-0.45-0.27c-0.2,0.05-0.32,0.25-0.27,0.45l33,132.59
			c0.05,0.2,0.25,0.32,0.45,0.27C275.76,381.37,275.88,381.17,275.83,380.97"/>
		<path class="st7" d="M308.47,380.68h-33c-0.21,0-0.37,0.17-0.37,0.37s0.17,0.37,0.37,0.37h33c0.21,0,0.37-0.17,0.37-0.37
			S308.68,380.68,308.47,380.68"/>
		<path class="st7" d="M341.47,380.68h-33c-0.21,0-0.37,0.17-0.37,0.37s0.17,0.37,0.37,0.37h33c0.21,0,0.37-0.17,0.37-0.37
			S341.68,380.68,341.47,380.68"/>
		<path class="st7" d="M374.11,248.37l-33,132.59c-0.05,0.2,0.07,0.4,0.27,0.45c0.2,0.05,0.4-0.07,0.45-0.27l33-132.59
			c0.05-0.2-0.07-0.4-0.27-0.45C374.36,248.05,374.16,248.17,374.11,248.37"/>
		<path class="st7" d="M407.84,513.6l-33-265.18c-0.03-0.2-0.21-0.35-0.42-0.32c-0.2,0.03-0.35,0.21-0.32,0.42l33,265.18
			c0.03,0.2,0.21,0.35,0.42,0.32S407.86,513.81,407.84,513.6"/>
		<path class="st4" d="M440.47,513.28h-33c-0.21,0-0.37,0.17-0.37,0.37c0,0.21,0.17,0.37,0.37,0.37h33c0.21,0,0.37-0.17,0.37-0.37
			C440.84,513.44,440.67,513.28,440.47,513.28"/>
		<path class="st7" d="M473.11,380.97l-33,132.59c-0.05,0.2,0.07,0.4,0.27,0.45c0.2,0.05,0.4-0.07,0.45-0.27l33-132.59
			c0.05-0.2-0.07-0.4-0.27-0.45S473.16,380.77,473.11,380.97"/>
		<path class="st7" d="M506.83,513.56l-33-132.59c-0.05-0.2-0.25-0.32-0.45-0.27s-0.32,0.25-0.27,0.45l33,132.59
			c0.05,0.2,0.25,0.32,0.45,0.27C506.76,513.96,506.88,513.76,506.83,513.56"/>
		<path class="st7" d="M539.47,513.28h-33c-0.21,0-0.37,0.17-0.37,0.37c0,0.21,0.17,0.37,0.37,0.37h33c0.21,0,0.37-0.17,0.37-0.37
			C539.84,513.44,539.67,513.28,539.47,513.28"/>
		<path class="st7" d="M572.11,380.97l-33,132.59c-0.05,0.2,0.07,0.4,0.27,0.45c0.2,0.05,0.4-0.07,0.45-0.27l33-132.59
			c0.05-0.2-0.07-0.4-0.27-0.45C572.36,380.64,572.16,380.77,572.11,380.97"/>
		<path class="st7" d="M605.83,513.56l-33-132.59c-0.05-0.2-0.25-0.32-0.45-0.27c-0.2,0.05-0.32,0.25-0.27,0.45l33,132.59
			c0.05,0.2,0.25,0.32,0.45,0.27C605.76,513.96,605.88,513.76,605.83,513.56"/>
		<path class="st7" d="M638.1,248.42l-33,265.18c-0.03,0.2,0.12,0.39,0.32,0.42s0.39-0.12,0.42-0.32l33-265.18
			c0.03-0.2-0.12-0.39-0.32-0.42S638.12,248.21,638.1,248.42"/>
		<rect x="109.36" y="512.53" class="st4" width="2.23" height="2.23"/>
		<polygon class="st7" points="109.36,512.53 109.36,512.62 111.5,512.62 111.5,514.67 109.45,514.67 109.45,512.53 109.36,512.53 
			109.36,512.62 109.36,512.53 109.26,512.53 109.26,514.86 111.68,514.86 111.68,512.44 109.26,512.44 109.26,512.53 		"/>
		<rect x="142.36" y="512.53" class="st4" width="2.23" height="2.23"/>
		<polygon class="st7" points="142.36,512.53 142.36,512.62 144.5,512.62 144.5,514.67 142.45,514.67 142.45,512.53 142.36,512.53 
			142.36,512.62 142.36,512.53 142.26,512.53 142.26,514.86 144.68,514.86 144.68,512.44 142.26,512.44 142.26,512.53 		"/>
		<rect x="175.36" y="512.53" class="st4" width="2.23" height="2.23"/>
		<polygon class="st7" points="175.36,512.53 175.36,512.62 177.5,512.62 177.5,514.67 175.45,514.67 175.45,512.53 175.36,512.53 
			175.36,512.62 175.36,512.53 175.26,512.53 175.26,514.86 177.68,514.86 177.68,512.44 175.26,512.44 175.26,512.53 		"/>
		<rect x="208.36" y="512.53" class="st4" width="2.23" height="2.23"/>
		<polygon class="st4" points="208.36,512.53 208.36,512.62 210.5,512.62 210.5,514.67 208.45,514.67 208.45,512.53 208.36,512.53 
			208.36,512.62 208.36,512.53 208.26,512.53 208.26,514.86 210.68,514.86 210.68,512.44 208.26,512.44 208.26,512.53 		"/>
		<rect x="241.36" y="247.35" class="st7" width="2.23" height="2.23"/>
		<polygon class="st4" points="241.36,247.35 241.36,247.44 243.5,247.44 243.5,249.49 241.45,249.49 241.45,247.35 241.36,247.35 
			241.36,247.44 241.36,247.35 241.26,247.35 241.26,249.67 243.68,249.67 243.68,247.25 241.26,247.25 241.26,247.35 		"/>
		<rect x="274.35" y="379.94" class="st4" width="2.23" height="2.23"/>
		<polygon class="st7" points="274.35,379.94 274.35,380.03 276.49,380.03 276.49,382.08 274.45,382.08 274.45,379.94 
			274.35,379.94 274.35,380.03 274.35,379.94 274.26,379.94 274.26,382.27 276.68,382.27 276.68,379.85 274.26,379.85 
			274.26,379.94 		"/>
		<rect x="307.35" y="379.94" class="st4" width="2.23" height="2.23"/>
		<polygon class="st7" points="307.35,379.94 307.35,380.03 309.49,380.03 309.49,382.08 307.45,382.08 307.45,379.94 
			307.35,379.94 307.35,380.03 307.35,379.94 307.26,379.94 307.26,382.27 309.68,382.27 309.68,379.85 307.26,379.85 
			307.26,379.94 		"/>
		<rect x="340.35" y="379.94" class="st7" width="2.23" height="2.23"/>
		<polygon class="st7" points="340.35,379.94 340.35,380.03 342.49,380.03 342.49,382.08 340.45,382.08 340.45,379.94 
			340.35,379.94 340.35,380.03 340.35,379.94 340.26,379.94 340.26,382.27 342.68,382.27 342.68,379.85 340.26,379.85 
			340.26,379.94 		"/>
		<rect x="373.35" y="247.35" class="st7" width="2.23" height="2.23"/>
		<polygon class="st7" points="373.35,247.35 373.35,247.44 375.49,247.44 375.49,249.49 373.45,249.49 373.45,247.35 
			373.35,247.35 373.35,247.44 373.35,247.35 373.26,247.35 373.26,249.67 375.68,249.67 375.68,247.25 373.26,247.25 
			373.26,247.35 		"/>
		<rect x="406.35" y="512.53" class="st7" width="2.23" height="2.23"/>
		<polygon class="st4" points="406.35,512.53 406.35,512.62 408.49,512.62 408.49,514.67 406.45,514.67 406.45,512.53 
			406.35,512.53 406.35,512.62 406.35,512.53 406.26,512.53 406.26,514.86 408.68,514.86 408.68,512.44 406.26,512.44 
			406.26,512.53 		"/>
		<rect x="439.35" y="512.53" class="st4" width="2.23" height="2.23"/>
		<polygon class="st7" points="439.35,512.53 439.35,512.62 441.49,512.62 441.49,514.67 439.45,514.67 439.45,512.53 
			439.35,512.53 439.35,512.62 439.35,512.53 439.26,512.53 439.26,514.86 441.68,514.86 441.68,512.44 439.26,512.44 
			439.26,512.53 		"/>
		<rect x="472.35" y="379.94" class="st7" width="2.23" height="2.23"/>
		<polygon class="st7" points="472.35,379.94 472.35,380.03 474.49,380.03 474.49,382.08 472.44,382.08 472.44,379.94 
			472.35,379.94 472.35,380.03 472.35,379.94 472.26,379.94 472.26,382.27 474.68,382.27 474.68,379.85 472.26,379.85 
			472.26,379.94 		"/>
		<rect x="505.35" y="512.53" class="st4" width="2.23" height="2.23"/>
		<polygon class="st7" points="505.35,512.53 505.35,512.62 507.49,512.62 507.49,514.67 505.44,514.67 505.44,512.53 
			505.35,512.53 505.35,512.62 505.35,512.53 505.26,512.53 505.26,514.86 507.68,514.86 507.68,512.44 505.26,512.44 
			505.26,512.53 		"/>
		<rect x="538.35" y="512.53" class="st4" width="2.23" height="2.23"/>
		<polygon class="st7" points="538.35,512.53 538.35,512.62 540.49,512.62 540.49,514.67 538.44,514.67 538.44,512.53 
			538.35,512.53 538.35,512.62 538.35,512.53 538.26,512.53 538.26,514.86 540.68,514.86 540.68,512.44 538.26,512.44 
			538.26,512.53 		"/>
		<rect x="571.35" y="379.94" class="st7" width="2.23" height="2.23"/>
		<polygon class="st7" points="571.35,379.94 571.35,380.03 573.49,380.03 573.49,382.08 571.44,382.08 571.44,379.94 
			571.35,379.94 571.35,380.03 571.35,379.94 571.26,379.94 571.26,382.27 573.68,382.27 573.68,379.85 571.26,379.85 
			571.26,379.94 		"/>
		<rect x="604.35" y="512.53" class="st4" width="2.23" height="2.23"/>
		<polygon class="st7" points="604.35,512.53 604.35,512.62 606.49,512.62 606.49,514.67 604.44,514.67 604.44,512.53 
			604.35,512.53 604.35,512.62 604.35,512.53 604.26,512.53 604.26,514.86 606.68,514.86 606.68,512.44 604.26,512.44 
			604.26,512.53 		"/>
		<rect x="637.35" y="247.35" class="st7" width="2.23" height="2.23"/>
		<polygon class="st7" points="637.35,247.35 637.35,247.44 639.49,247.44 639.49,249.49 637.44,249.49 637.44,247.35 
			637.35,247.35 637.35,247.44 637.35,247.35 637.26,247.35 637.26,249.67 639.67,249.67 639.67,247.25 637.26,247.25 
			637.26,247.35 		"/>
		<text transform="matrix(1 0 0 1 98.1356 526.739)" class="st5 st8">1977</text>
		<text transform="matrix(1 0 0 1 131.2421 526.739)" class="st5 st8">1978</text>
		<text transform="matrix(1 0 0 1 164.3456 526.7361)" class="st5 st8">1979</text>
		<text transform="matrix(1 0 0 1 197.453 526.7361)" class="st5 st8">1980</text>
		<text transform="matrix(1 0 0 1 230.5594 526.738)" class="st5 st8">1981</text>
		<text transform="matrix(1 0 0 1 263.6659 526.738)" class="st5 st8">1982</text>
		<text transform="matrix(1 0 0 1 296.7723 526.738)" class="st5 st8">1983</text>
		<text transform="matrix(1 0 0 1 329.8778 526.738)" class="st5 st8">1984</text>
		<text transform="matrix(1 0 0 1 362.9833 526.7371)" class="st5 st8">1985</text>
		<text transform="matrix(1 0 0 1 396.0887 526.7371)" class="st5 st8">1986</text>
		<text transform="matrix(1 0 0 1 429.1952 526.7371)" class="st5 st8">1987</text>
		<text transform="matrix(1 0 0 1 462.3016 526.7371)" class="st5 st8">1988</text>
		<text transform="matrix(1 0 0 1 495.4081 526.7361)" class="st5 st8">1989</text>
		<text transform="matrix(1 0 0 1 528.5145 526.7361)" class="st5 st8">1990</text>
		<text transform="matrix(1 0 0 1 561.619 526.7361)" class="st5 st8">1991</text>
		<text transform="matrix(1 0 0 1 594.7255 526.7361)" class="st5 st8">1992</text>
		<text transform="matrix(1 0 0 1 627.8319 526.7361)" class="st5 st8">1993</text>
	</g>
</g>
<g id="Layer_620">
	<text transform="matrix(1 0 0 1 76.6641 123.8014)"><tspan x="0" y="0" class="st9 st10">Tracking How Bands Recover from Break Ups</tspan><tspan x="1649.85" y="0" class="st11 st12"> </tspan></text>
</g>
<g id="Layer_619">
</g>
<g id="Layer_618">
</g>
<g id="Layer_617">
</g>
<g id="Layer_616">
</g>
<g id="Layer_615">
</g>
<g id="Layer_614">
</g>
<g id="Layer_613">
</g>
<g id="Layer_612">
</g>
<g id="Layer_611">
</g>
<g id="Layer_610">
</g>
<g id="Layer_609">
</g>
<g id="Layer_608">
</g>
<g id="Layer_607">
</g>
<g id="Layer_606">
</g>
<g id="Layer_605">
</g>
<g id="Layer_604">
</g>
<g id="Layer_603">
</g>
<g id="Layer_602">
</g>
<g id="Layer_601">
</g>
<g id="Layer_600">
</g>
<g id="Layer_599">
</g>
<g id="Layer_598">
</g>
<g id="Layer_597">
</g>
<g id="Layer_596">
</g>
<g id="Layer_595">
</g>
<g id="Layer_594">
</g>
<g id="Layer_593">
</g>
<g id="Layer_592">
</g>
<g id="Layer_591">
</g>
<g id="Layer_590">
</g>
<g id="Layer_589">
</g>
<g id="Layer_588">
</g>
<g id="Layer_587">
</g>
<g id="Layer_586">
</g>
<g id="Layer_585">
	<g>
		<polyline class="st4" points="714.27,513.19 1274.24,513.19 1274.24,512.89 714.27,512.89 		"/>
		<polyline class="st4" points="714.45,513.04 714.45,506.44 714.09,506.44 714.09,513.04 		"/>
		<text transform="matrix(1.2191 0 0 1 698.043 428.4404)" class="st5 st13">1</text>
		<text transform="matrix(1.2191 0 0 1 698.043 340.4082)" class="st5 st13">2</text>
		<text transform="matrix(1.2191 0 0 1 698.043 252.3765)" class="st5 st13">3</text>
		<polyline class="st4" points="714.45,513.04 714.45,248.95 714.09,248.95 714.09,513.04 		"/>
		<polyline class="st7" points="714.27,513.19 728.27,513.19 728.27,512.89 714.27,512.89 		"/>
		<polyline class="st4" points="714.27,425.16 728.27,425.16 728.27,424.86 714.27,424.86 		"/>
		<polyline class="st4" points="714.27,337.13 728.27,337.13 728.27,336.83 714.27,336.83 		"/>
		<polyline class="st4" points="714.27,249.1 728.27,249.1 728.27,248.8 714.27,248.8 		"/>
		<path class="st7" d="M766.77,512.74h-35c-0.2,0-0.37,0.13-0.37,0.3c0,0.17,0.16,0.3,0.37,0.3h35c0.2,0,0.37-0.13,0.37-0.3
			C767.13,512.88,766.97,512.74,766.77,512.74"/>
		<path class="st7" d="M801.77,512.74h-35c-0.2,0-0.37,0.13-0.37,0.3c0,0.17,0.16,0.3,0.37,0.3h35c0.2,0,0.37-0.13,0.37-0.3
			C802.13,512.88,801.97,512.74,801.77,512.74"/>
		<path class="st7" d="M836.4,248.91l-35,264.1c-0.02,0.17,0.12,0.31,0.32,0.33c0.2,0.02,0.38-0.1,0.4-0.27l35-264.1
			c0.02-0.17-0.12-0.31-0.32-0.33C836.6,248.63,836.42,248.75,836.4,248.91"/>
		<path class="st7" d="M872.13,513.01l-35-264.1c-0.02-0.17-0.2-0.28-0.4-0.27c-0.2,0.02-0.35,0.17-0.32,0.33l35,264.1
			c0.02,0.17,0.2,0.28,0.4,0.27C872,513.32,872.15,513.18,872.13,513.01"/>
		<path class="st7" d="M906.4,336.93l-35,176.06c-0.03,0.16,0.1,0.32,0.3,0.35s0.39-0.08,0.42-0.25l35-176.06
			c0.03-0.16-0.1-0.32-0.3-0.35C906.62,336.65,906.43,336.77,906.4,336.93"/>
		<path class="st7" d="M942.12,512.99l-35-176.06c-0.03-0.16-0.22-0.28-0.42-0.25c-0.2,0.03-0.34,0.18-0.3,0.35l35,176.06
			c0.03,0.16,0.22,0.28,0.42,0.25C942.02,513.31,942.15,513.16,942.12,512.99"/>
		<path class="st7" d="M976.39,336.93l-35,176.06c-0.03,0.16,0.1,0.32,0.3,0.35c0.2,0.03,0.39-0.08,0.42-0.25l35-176.06
			c0.03-0.16-0.1-0.32-0.3-0.35C976.61,336.65,976.42,336.77,976.39,336.93"/>
		<path class="st7" d="M1012.11,512.99l-35-176.06c-0.03-0.16-0.22-0.28-0.42-0.25c-0.2,0.03-0.34,0.18-0.3,0.35l35,176.06
			c0.03,0.16,0.22,0.28,0.42,0.25C1012.01,513.31,1012.15,513.16,1012.11,512.99"/>
		<path class="st7" d="M1046.4,424.92l-35,88.03c-0.06,0.16,0.04,0.33,0.23,0.38c0.19,0.05,0.4-0.03,0.46-0.19l35-88.03
			c0.06-0.16-0.04-0.33-0.23-0.38C1046.67,424.67,1046.46,424.76,1046.4,424.92"/>
		<path class="st7" d="M1081.4,336.88l-35,88.03c-0.06,0.16,0.04,0.33,0.23,0.38c0.19,0.05,0.4-0.03,0.46-0.19l35-88.03
			c0.06-0.16-0.04-0.33-0.23-0.38C1081.67,336.64,1081.46,336.73,1081.4,336.88"/>
		<path class="st7" d="M1117.11,512.99l-35-176.06c-0.03-0.16-0.22-0.28-0.42-0.25c-0.2,0.03-0.34,0.18-0.3,0.35l35,176.06
			c0.03,0.16,0.22,0.28,0.42,0.25C1117,513.31,1117.14,513.16,1117.11,512.99"/>
		<path class="st7" d="M1151.74,512.74h-35c-0.2,0-0.37,0.13-0.37,0.3c0,0.17,0.16,0.3,0.37,0.3h35c0.2,0,0.37-0.13,0.37-0.3
			C1152.11,512.88,1151.95,512.74,1151.74,512.74"/>
		<path class="st7" d="M1186.39,424.92l-35,88.03c-0.06,0.16,0.04,0.33,0.23,0.38c0.19,0.05,0.4-0.03,0.46-0.19l35-88.03
			c0.06-0.16-0.04-0.33-0.23-0.38C1186.66,424.67,1186.46,424.76,1186.39,424.92"/>
		<path class="st7" d="M1222.09,512.95l-35-88.03c-0.06-0.16-0.27-0.24-0.46-0.19c-0.19,0.05-0.3,0.22-0.23,0.38l35,88.03
			c0.06,0.16,0.27,0.24,0.46,0.19C1222.04,513.28,1222.15,513.11,1222.09,512.95"/>
		<path class="st7" d="M1256.39,424.92l-35,88.03c-0.06,0.16,0.04,0.33,0.23,0.38c0.19,0.05,0.4-0.03,0.46-0.19l35-88.03
			c0.06-0.16-0.04-0.33-0.23-0.38C1256.66,424.67,1256.45,424.76,1256.39,424.92"/>
		<rect x="730.67" y="512.14" class="st4" width="2.2" height="1.8"/>
		<polygon class="st4" points="730.67,512.14 730.67,512.22 732.78,512.22 732.78,513.87 730.76,513.87 730.76,512.14 
			730.67,512.14 730.67,512.22 730.67,512.14 730.58,512.14 730.58,514.02 732.96,514.02 732.96,512.07 730.58,512.07 
			730.58,512.14 		"/>
		<rect x="765.67" y="512.14" class="st4" width="2.2" height="1.8"/>
		<polygon class="st4" points="765.67,512.14 765.67,512.22 767.78,512.22 767.78,513.87 765.76,513.87 765.76,512.14 
			765.67,512.14 765.67,512.22 765.67,512.14 765.58,512.14 765.58,514.02 767.96,514.02 767.96,512.07 765.58,512.07 
			765.58,512.14 		"/>
		<rect x="800.67" y="512.14" class="st4" width="2.2" height="1.8"/>
		<polygon class="st4" points="800.67,512.14 800.67,512.22 802.77,512.22 802.77,513.87 800.76,513.87 800.76,512.14 
			800.67,512.14 800.67,512.22 800.67,512.14 800.57,512.14 800.57,514.02 802.96,514.02 802.96,512.07 800.57,512.07 
			800.57,512.14 		"/>
		<rect x="835.66" y="248.04" class="st4" width="2.2" height="1.8"/>
		<polygon class="st4" points="835.66,248.04 835.66,248.12 837.77,248.12 837.77,249.77 835.76,249.77 835.76,248.04 
			835.66,248.04 835.66,248.12 835.66,248.04 835.57,248.04 835.57,249.92 837.95,249.92 837.95,247.97 835.57,247.97 
			835.57,248.04 		"/>
		<rect x="870.66" y="512.14" class="st4" width="2.2" height="1.8"/>
		<polygon class="st4" points="870.66,512.14 870.66,512.22 872.77,512.22 872.77,513.87 870.75,513.87 870.75,512.14 
			870.66,512.14 870.66,512.22 870.66,512.14 870.57,512.14 870.57,514.02 872.95,514.02 872.95,512.07 870.57,512.07 
			870.57,512.14 		"/>
		<rect x="905.66" y="336.08" class="st7" width="2.2" height="1.8"/>
		<polygon class="st7" points="905.66,336.08 905.66,336.15 907.77,336.15 907.77,337.8 905.75,337.8 905.75,336.08 905.66,336.08 
			905.66,336.15 905.66,336.08 905.57,336.08 905.57,337.96 907.95,337.96 907.95,336 905.57,336 905.57,336.08 		"/>
		<rect x="940.66" y="512.14" class="st4" width="2.2" height="1.8"/>
		<polygon class="st4" points="940.66,512.14 940.66,512.22 942.76,512.22 942.76,513.87 940.75,513.87 940.75,512.14 
			940.66,512.14 940.66,512.22 940.66,512.14 940.57,512.14 940.57,514.02 942.95,514.02 942.95,512.07 940.57,512.07 
			940.57,512.14 		"/>
		<rect x="975.65" y="336.08" class="st7" width="2.2" height="1.8"/>
		<polygon class="st7" points="975.65,336.08 975.65,336.15 977.76,336.15 977.76,337.8 975.75,337.8 975.75,336.08 975.65,336.08 
			975.65,336.15 975.65,336.08 975.56,336.08 975.56,337.96 977.95,337.96 977.95,336 975.56,336 975.56,336.08 		"/>
		<rect x="1010.65" y="512.14" class="st4" width="2.2" height="1.8"/>
		<polygon class="st4" points="1010.65,512.14 1010.65,512.22 1012.76,512.22 1012.76,513.87 1010.74,513.87 1010.74,512.14 
			1010.65,512.14 1010.65,512.22 1010.65,512.14 1010.56,512.14 1010.56,514.02 1012.94,514.02 1012.94,512.07 1010.56,512.07 
			1010.56,512.14 		"/>
		<rect x="1045.65" y="424.11" class="st4" width="2.2" height="1.8"/>
		<polygon class="st4" points="1045.65,424.11 1045.65,424.18 1047.76,424.18 1047.76,425.84 1045.74,425.84 1045.74,424.11 
			1045.65,424.11 1045.65,424.18 1045.65,424.11 1045.56,424.11 1045.56,425.99 1047.94,425.99 1047.94,424.03 1045.56,424.03 
			1045.56,424.11 		"/>
		<rect x="1080.65" y="336.08" class="st4" width="2.2" height="1.8"/>
		<polygon class="st4" points="1080.65,336.08 1080.65,336.15 1082.76,336.15 1082.76,337.8 1080.74,337.8 1080.74,336.08 
			1080.65,336.08 1080.65,336.15 1080.65,336.08 1080.56,336.08 1080.56,337.96 1082.94,337.96 1082.94,336 1080.56,336 
			1080.56,336.08 		"/>
		<rect x="1115.65" y="512.14" class="st4" width="2.2" height="1.8"/>
		<polygon class="st4" points="1115.65,512.14 1115.65,512.22 1117.75,512.22 1117.75,513.87 1115.74,513.87 1115.74,512.14 
			1115.65,512.14 1115.65,512.22 1115.65,512.14 1115.55,512.14 1115.55,514.02 1117.94,514.02 1117.94,512.07 1115.55,512.07 
			1115.55,512.14 		"/>
		<rect x="1150.64" y="512.14" class="st4" width="2.2" height="1.8"/>
		<polygon class="st4" points="1150.64,512.14 1150.64,512.22 1152.75,512.22 1152.75,513.87 1150.74,513.87 1150.74,512.14 
			1150.64,512.14 1150.64,512.22 1150.64,512.14 1150.55,512.14 1150.55,514.02 1152.93,514.02 1152.93,512.07 1150.55,512.07 
			1150.55,512.14 		"/>
		<rect x="1185.64" y="424.11" class="st4" width="2.2" height="1.8"/>
		<polygon class="st4" points="1185.64,424.11 1185.64,424.18 1187.75,424.18 1187.75,425.84 1185.73,425.84 1185.73,424.11 
			1185.64,424.11 1185.64,424.18 1185.64,424.11 1185.55,424.11 1185.55,425.99 1187.93,425.99 1187.93,424.03 1185.55,424.03 
			1185.55,424.11 		"/>
		<rect x="1220.64" y="512.14" class="st4" width="2.2" height="1.8"/>
		<polygon class="st4" points="1220.64,512.14 1220.64,512.22 1222.75,512.22 1222.75,513.87 1220.73,513.87 1220.73,512.14 
			1220.64,512.14 1220.64,512.22 1220.64,512.14 1220.55,512.14 1220.55,514.02 1222.93,514.02 1222.93,512.07 1220.55,512.07 
			1220.55,512.14 		"/>
		<rect x="1255.64" y="424.11" class="st4" width="2.2" height="1.8"/>
		<polygon class="st4" points="1255.64,424.11 1255.64,424.18 1257.74,424.18 1257.74,425.84 1255.73,425.84 1255.73,424.11 
			1255.64,424.11 1255.64,424.18 1255.64,424.11 1255.55,424.11 1255.55,425.99 1257.93,425.99 1257.93,424.03 1255.55,424.03 
			1255.55,424.11 		"/>
	</g>
</g>
<g id="Layer_584">
	<text transform="matrix(1.2191 0 0 1 721.875 526.7383)" class="st5 st14">1963</text>
</g>
<g id="Layer_583">
	<text transform="matrix(1.2191 0 0 1 756.4785 526.7383)" class="st5 st14">1964</text>
</g>
<g id="Layer_582">
	<text transform="matrix(1.2191 0 0 1 791.082 526.7383)" class="st5 st14">1965</text>
</g>
<g id="Layer_581">
	<text transform="matrix(1.2191 0 0 1 825.6855 526.7383)" class="st5 st14">1966</text>
</g>
<g id="Layer_580">
	<text transform="matrix(1.2191 0 0 1 860.2891 526.7383)" class="st5 st14">1967</text>
</g>
<g id="Layer_579">
	<text transform="matrix(1.2191 0 0 1 894.8936 526.7383)" class="st5 st14">1968</text>
</g>
<g id="Layer_578">
	<text transform="matrix(1.2191 0 0 1 929.4951 526.7383)" class="st5 st14">1969</text>
</g>
<g id="Layer_577">
	<text transform="matrix(1.2191 0 0 1 964.0986 526.7383)" class="st5 st14">1970</text>
</g>
<g id="Layer_576">
	<text transform="matrix(1.2191 0 0 1 998.7031 526.7383)" class="st5 st14">1971</text>
</g>
<g id="Layer_575">
	<text transform="matrix(1.2191 0 0 1 1033.3057 526.7383)" class="st5 st14">1972</text>
</g>
<g id="Layer_574">
	<text transform="matrix(1.2191 0 0 1 1067.9102 526.7383)" class="st5 st14">1973</text>
</g>
<g id="Layer_573">
	<text transform="matrix(1.2191 0 0 1 1102.5127 526.7383)" class="st5 st14">1974</text>
</g>
<g id="Layer_572">
	<text transform="matrix(1.2191 0 0 1 1137.1162 526.7383)" class="st5 st14">1975</text>
</g>
<g id="Layer_571">
	<text transform="matrix(1.2191 0 0 1 1171.7207 526.7383)" class="st5 st14">1976</text>
</g>
<g id="Layer_570">
	<text transform="matrix(1.2191 0 0 1 1206.3223 526.7393)" class="st5 st14">1977</text>
</g>
<g id="Layer_569">
	<text transform="matrix(1.2191 0 0 1 1240.9268 526.7393)" class="st5 st14">1978</text>
</g>
<g id="Layer_568">
	<text transform="matrix(1 0 0 1 656.7559 188.0781)" class="st5 st6">SIMON AND GARFUNKEL</text>
</g>
<g id="Layer_567">
</g>
<g id="Layer_566">
</g>
<g id="Layer_565">
</g>
<g id="Layer_564">
</g>
<g id="Layer_563">
</g>
<g id="Layer_562">
</g>
<g id="Layer_561">
</g>
<g id="Layer_560">
</g>
<g id="Layer_559">
</g>
<g id="Layer_558">
</g>
<g id="Layer_557">
</g>
<g id="Layer_556">
</g>
<g id="Layer_555">
</g>
<g id="Layer_554">
</g>
<g id="Layer_553">
</g>
<g id="Layer_552">
</g>
<g id="Layer_551">
</g>
<g id="Layer_550">
</g>
<g id="Layer_549">
</g>
<g id="Layer_548">
</g>
<g id="Layer_547">
</g>
<g id="Layer_546">
</g>
<g id="Layer_545">
</g>
<g id="Layer_544">
</g>
<g id="Layer_543">
</g>
<g id="Layer_542">
</g>
<g id="Layer_541">
</g>
<g id="Layer_540">
</g>
<g id="Layer_539">
</g>
<g id="Layer_538">
</g>
<g id="Layer_537">
</g>
<g id="Layer_536">
</g>
<g id="Layer_535">
</g>
<g id="Layer_534">
</g>
<g id="Layer_533">
</g>
<g id="Layer_532">
</g>
<g id="Layer_531">
</g>
<g id="Layer_530">
</g>
<g id="Layer_529">
</g>
<g id="Layer_528">
</g>
<g id="Layer_527">
</g>
<g id="Layer_526">
</g>
<g id="Layer_525">
</g>
<g id="Layer_524">
</g>
<g id="Layer_523">
</g>
<g id="Layer_522">
</g>
<g id="Layer_521">
</g>
<g id="Layer_520">
</g>
<g id="Layer_519">
</g>
<g id="Layer_518">
</g>
<g id="Layer_517">
</g>
<g id="Layer_516">
</g>
<g id="Layer_515">
</g>
<g id="Layer_514">
</g>
<g id="Layer_513">
</g>
<g id="Layer_512">
</g>
<g id="Layer_511">
</g>
<g id="Layer_510">
</g>
<g id="Layer_509">
</g>
<g id="Layer_508">
</g>
<g id="Layer_507">
</g>
<g id="Layer_506">
</g>
<g id="Layer_505">
</g>
<g id="Layer_504">
</g>
<g id="Layer_503">
</g>
<g id="Layer_502">
</g>
<g id="Layer_501">
</g>
<g id="Layer_500">
</g>
<g id="Layer_499">
</g>
<g id="Layer_498">
</g>
<g id="Layer_497">
</g>
<g id="Layer_496">
</g>
<g id="Layer_495">
</g>
<g id="Layer_494">
</g>
<g id="Layer_493">
</g>
<g id="Layer_492">
</g>
<g id="Layer_491">
</g>
<g id="Layer_490">
</g>
<g id="Layer_489">
</g>
<g id="Layer_488">
</g>
<g id="Layer_487">
	<text transform="matrix(1 0 0 1 1282.127 188.0782)" class="st20 st5 st6">EAGLES</text>
</g>
<g id="Layer_486">
</g>
<g id="Layer_485">
	<g>
		<text transform="matrix(1 0 0 1 1043.9919 617.7621)" class="st20 st5 st6">FLEETWOOD MAC</text>
		<rect x="1266.95" y="675.35" class="st0" width="32.66" height="268.08"/>
		<rect x="1134.09" y="675.4" class="st1" width="32.66" height="268.26"/>
		<polyline class="st4" points="1100.66,943.52 1661.65,943.52 1661.65,943.15 1100.66,943.15 		"/>
		<polyline class="st4" points="1100.85,943.33 1100.85,936.7 1100.48,936.7 1100.48,943.33 		"/>
		<polyline class="st4" points="1100.85,943.33 1100.85,678.15 1100.48,678.15 1100.48,943.33 		"/>
		<polyline class="st4" points="1100.66,943.52 1114.69,943.52 1114.69,943.15 1100.66,943.15 		"/>
		<polyline class="st4" points="1100.66,810.93 1114.69,810.93 1114.69,810.55 1100.66,810.55 		"/>
		<polyline class="st4" points="1100.66,678.33 1114.69,678.33 1114.69,677.96 1100.66,677.96 		"/>
		<path class="st7" d="M1150.16,942.96h-33c-0.21,0-0.37,0.17-0.37,0.37c0,0.21,0.17,0.37,0.37,0.37h33c0.21,0,0.37-0.17,0.37-0.37
			C1150.53,943.13,1150.37,942.96,1150.16,942.96"/>
		<path class="st7" d="M1183.16,942.96h-33c-0.21,0-0.37,0.17-0.37,0.37c0,0.21,0.17,0.37,0.37,0.37h33c0.21,0,0.37-0.17,0.37-0.37
			C1183.53,943.13,1183.37,942.96,1183.16,942.96"/>
		<path class="st7" d="M1216.16,942.96h-33c-0.21,0-0.37,0.17-0.37,0.37c0,0.21,0.17,0.37,0.37,0.37h33c0.21,0,0.37-0.17,0.37-0.37
			C1216.53,943.13,1216.37,942.96,1216.16,942.96"/>
		<path class="st7" d="M1248.79,678.1l-33,265.18c-0.03,0.2,0.12,0.39,0.32,0.42c0.2,0.03,0.39-0.12,0.42-0.32l33-265.18
			c0.03-0.2-0.12-0.39-0.32-0.42S1248.82,677.9,1248.79,678.1"/>
		<path class="st7" d="M1282.52,810.65l-33-132.59c-0.05-0.2-0.25-0.32-0.45-0.27c-0.2,0.05-0.32,0.25-0.27,0.45l33,132.59
			c0.05,0.2,0.25,0.32,0.45,0.27C1282.45,811.05,1282.57,810.85,1282.52,810.65"/>
		<path class="st7" d="M1315.16,810.37h-33c-0.21,0-0.37,0.17-0.37,0.37c0,0.21,0.17,0.37,0.37,0.37h33c0.21,0,0.37-0.17,0.37-0.37
			C1315.53,810.53,1315.37,810.37,1315.16,810.37"/>
		<path class="st7" d="M1348.16,810.37h-33c-0.21,0-0.37,0.17-0.37,0.37c0,0.21,0.17,0.37,0.37,0.37h33c0.21,0,0.37-0.17,0.37-0.37
			C1348.53,810.53,1348.36,810.37,1348.16,810.37"/>
		<path class="st7" d="M1380.8,678.06l-33,132.59c-0.05,0.2,0.07,0.4,0.27,0.45c0.2,0.05,0.4-0.07,0.45-0.27l33-132.59
			c0.05-0.2-0.07-0.4-0.27-0.45C1381.05,677.74,1380.85,677.86,1380.8,678.06"/>
		<path class="st7" d="M1414.53,943.29l-33-265.18c-0.03-0.2-0.21-0.35-0.42-0.32s-0.35,0.21-0.32,0.42l33,265.18
			c0.03,0.2,0.21,0.35,0.42,0.32C1414.41,943.68,1414.55,943.49,1414.53,943.29"/>
		<path class="st4" d="M1447.16,942.96h-33c-0.21,0-0.37,0.17-0.37,0.37c0,0.21,0.17,0.37,0.37,0.37h33c0.21,0,0.37-0.17,0.37-0.37
			C1447.53,943.13,1447.36,942.96,1447.16,942.96"/>
		<path class="st7" d="M1479.8,810.65l-33,132.59c-0.05,0.2,0.07,0.4,0.27,0.45c0.2,0.05,0.4-0.07,0.45-0.27l33-132.59
			c0.05-0.2-0.07-0.4-0.27-0.45C1480.05,810.33,1479.85,810.45,1479.8,810.65"/>
		<path class="st7" d="M1513.52,943.24l-33-132.59c-0.05-0.2-0.25-0.32-0.45-0.27c-0.2,0.05-0.32,0.25-0.27,0.45l33,132.59
			c0.05,0.2,0.25,0.32,0.45,0.27C1513.45,943.64,1513.57,943.44,1513.52,943.24"/>
		<path class="st7" d="M1546.16,942.96h-33c-0.21,0-0.37,0.17-0.37,0.37c0,0.21,0.17,0.37,0.37,0.37h33c0.21,0,0.37-0.17,0.37-0.37
			C1546.53,943.13,1546.36,942.96,1546.16,942.96"/>
		<path class="st7" d="M1578.79,810.65l-33,132.59c-0.05,0.2,0.07,0.4,0.27,0.45c0.2,0.05,0.4-0.07,0.45-0.27l33-132.59
			c0.05-0.2-0.07-0.4-0.27-0.45C1579.05,810.33,1578.84,810.45,1578.79,810.65"/>
		<path class="st7" d="M1612.52,943.24l-33-132.59c-0.05-0.2-0.25-0.32-0.45-0.27c-0.2,0.05-0.32,0.25-0.27,0.45l33,132.59
			c0.05,0.2,0.25,0.32,0.45,0.27C1612.44,943.64,1612.57,943.44,1612.52,943.24"/>
		<path class="st7" d="M1644.79,678.1l-33,265.18c-0.03,0.2,0.12,0.39,0.32,0.42c0.2,0.03,0.39-0.12,0.42-0.32l33-265.18
			c0.03-0.2-0.12-0.39-0.32-0.42S1644.81,677.9,1644.79,678.1"/>
		<rect x="1116.05" y="942.21" class="st4" width="2.23" height="2.23"/>
		<polygon class="st7" points="1116.05,942.21 1116.05,942.31 1118.19,942.31 1118.19,944.35 1116.14,944.35 1116.14,942.21 
			1116.05,942.21 1116.05,942.31 1116.05,942.21 1115.95,942.21 1115.95,944.54 1118.37,944.54 1118.37,942.12 1115.95,942.12 
			1115.95,942.21 		"/>
		<rect x="1149.05" y="942.21" class="st4" width="2.23" height="2.23"/>
		<polygon class="st7" points="1149.05,942.21 1149.05,942.31 1151.19,942.31 1151.19,944.35 1149.14,944.35 1149.14,942.21 
			1149.05,942.21 1149.05,942.31 1149.05,942.21 1148.95,942.21 1148.95,944.54 1151.37,944.54 1151.37,942.12 1148.95,942.12 
			1148.95,942.21 		"/>
		<rect x="1182.05" y="942.21" class="st4" width="2.23" height="2.23"/>
		<polygon class="st7" points="1182.05,942.21 1182.05,942.31 1184.19,942.31 1184.19,944.35 1182.14,944.35 1182.14,942.21 
			1182.05,942.21 1182.05,942.31 1182.05,942.21 1181.95,942.21 1181.95,944.54 1184.37,944.54 1184.37,942.12 1181.95,942.12 
			1181.95,942.21 		"/>
		<rect x="1215.05" y="942.21" class="st4" width="2.23" height="2.23"/>
		<polygon class="st4" points="1215.05,942.21 1215.05,942.31 1217.18,942.31 1217.18,944.35 1215.14,944.35 1215.14,942.21 
			1215.05,942.21 1215.05,942.31 1215.05,942.21 1214.95,942.21 1214.95,944.54 1217.37,944.54 1217.37,942.12 1214.95,942.12 
			1214.95,942.21 		"/>
		<rect x="1248.04" y="677.03" class="st7" width="2.23" height="2.23"/>
		<polygon class="st4" points="1248.04,677.03 1248.04,677.12 1250.18,677.12 1250.18,679.17 1248.14,679.17 1248.14,677.03 
			1248.04,677.03 1248.04,677.12 1248.04,677.03 1247.95,677.03 1247.95,679.36 1250.37,679.36 1250.37,676.94 1247.95,676.94 
			1247.95,677.03 		"/>
		<rect x="1281.04" y="809.62" class="st4" width="2.23" height="2.23"/>
		<polygon class="st7" points="1281.04,809.62 1281.04,809.72 1283.18,809.72 1283.18,811.76 1281.14,811.76 1281.14,809.62 
			1281.04,809.62 1281.04,809.72 1281.04,809.62 1280.95,809.62 1280.95,811.95 1283.37,811.95 1283.37,809.53 1280.95,809.53 
			1280.95,809.62 		"/>
		<rect x="1314.04" y="809.62" class="st4" width="2.23" height="2.23"/>
		<polygon class="st7" points="1314.04,809.62 1314.04,809.72 1316.18,809.72 1316.18,811.76 1314.14,811.76 1314.14,809.62 
			1314.04,809.62 1314.04,809.72 1314.04,809.62 1313.95,809.62 1313.95,811.95 1316.37,811.95 1316.37,809.53 1313.95,809.53 
			1313.95,809.62 		"/>
		<rect x="1347.04" y="809.62" class="st7" width="2.23" height="2.23"/>
		<polygon class="st7" points="1347.04,809.62 1347.04,809.72 1349.18,809.72 1349.18,811.76 1347.14,811.76 1347.14,809.62 
			1347.04,809.62 1347.04,809.72 1347.04,809.62 1346.95,809.62 1346.95,811.95 1349.37,811.95 1349.37,809.53 1346.95,809.53 
			1346.95,809.62 		"/>
		<rect x="1380.04" y="677.03" class="st7" width="2.23" height="2.23"/>
		<polygon class="st7" points="1380.04,677.03 1380.04,677.12 1382.18,677.12 1382.18,679.17 1380.14,679.17 1380.14,677.03 
			1380.04,677.03 1380.04,677.12 1380.04,677.03 1379.95,677.03 1379.95,679.36 1382.37,679.36 1382.37,676.94 1379.95,676.94 
			1379.95,677.03 		"/>
		<rect x="1413.04" y="942.21" class="st7" width="2.23" height="2.23"/>
		<polygon class="st4" points="1413.04,942.21 1413.04,942.31 1415.18,942.31 1415.18,944.35 1413.14,944.35 1413.14,942.21 
			1413.04,942.21 1413.04,942.31 1413.04,942.21 1412.95,942.21 1412.95,944.54 1415.37,944.54 1415.37,942.12 1412.95,942.12 
			1412.95,942.21 		"/>
		<rect x="1446.04" y="942.21" class="st4" width="2.23" height="2.23"/>
		<polygon class="st7" points="1446.04,942.21 1446.04,942.31 1448.18,942.31 1448.18,944.35 1446.13,944.35 1446.13,942.21 
			1446.04,942.21 1446.04,942.31 1446.04,942.21 1445.95,942.21 1445.95,944.54 1448.37,944.54 1448.37,942.12 1445.95,942.12 
			1445.95,942.21 		"/>
		<rect x="1479.04" y="809.62" class="st7" width="2.23" height="2.23"/>
		<polygon class="st7" points="1479.04,809.62 1479.04,809.72 1481.18,809.72 1481.18,811.76 1479.13,811.76 1479.13,809.62 
			1479.04,809.62 1479.04,809.72 1479.04,809.62 1478.95,809.62 1478.95,811.95 1481.37,811.95 1481.37,809.53 1478.95,809.53 
			1478.95,809.62 		"/>
		<rect x="1512.04" y="942.21" class="st4" width="2.23" height="2.23"/>
		<polygon class="st7" points="1512.04,942.21 1512.04,942.31 1514.18,942.31 1514.18,944.35 1512.13,944.35 1512.13,942.21 
			1512.04,942.21 1512.04,942.31 1512.04,942.21 1511.95,942.21 1511.95,944.54 1514.37,944.54 1514.37,942.12 1511.95,942.12 
			1511.95,942.21 		"/>
		<rect x="1545.04" y="942.21" class="st4" width="2.23" height="2.23"/>
		<polygon class="st7" points="1545.04,942.21 1545.04,942.31 1547.18,942.31 1547.18,944.35 1545.13,944.35 1545.13,942.21 
			1545.04,942.21 1545.04,942.31 1545.04,942.21 1544.95,942.21 1544.95,944.54 1547.37,944.54 1547.37,942.12 1544.95,942.12 
			1544.95,942.21 		"/>
		<rect x="1578.04" y="809.62" class="st7" width="2.23" height="2.23"/>
		<polygon class="st7" points="1578.04,809.62 1578.04,809.72 1580.18,809.72 1580.18,811.76 1578.13,811.76 1578.13,809.62 
			1578.04,809.62 1578.04,809.72 1578.04,809.62 1577.95,809.62 1577.95,811.95 1580.37,811.95 1580.37,809.53 1577.95,809.53 
			1577.95,809.62 		"/>
		<rect x="1611.04" y="942.21" class="st4" width="2.23" height="2.23"/>
		<polygon class="st7" points="1611.04,942.21 1611.04,942.31 1613.18,942.31 1613.18,944.35 1611.13,944.35 1611.13,942.21 
			1611.04,942.21 1611.04,942.31 1611.04,942.21 1610.95,942.21 1610.95,944.54 1613.36,944.54 1613.36,942.12 1610.95,942.12 
			1610.95,942.21 		"/>
		<rect x="1644.04" y="677.03" class="st7" width="2.23" height="2.23"/>
		<polygon class="st7" points="1644.04,677.03 1644.04,677.12 1646.18,677.12 1646.18,679.17 1644.13,679.17 1644.13,677.03 
			1644.04,677.03 1644.04,677.12 1644.04,677.03 1643.95,677.03 1643.95,679.36 1646.36,679.36 1646.36,676.94 1643.95,676.94 
			1643.95,677.03 		"/>
		<text transform="matrix(1 0 0 1 1104.825 956.423)" class="st20 st5 st8">1977</text>
		<text transform="matrix(1 0 0 1 1137.9314 956.423)" class="st20 st5 st8">1978</text>
		<text transform="matrix(1 0 0 1 1171.0349 956.42)" class="st20 st5 st8">1979</text>
		<text transform="matrix(1 0 0 1 1204.1423 956.42)" class="st20 st5 st8">1980</text>
		<text transform="matrix(1 0 0 1 1237.2488 956.422)" class="st20 st5 st8">1981</text>
		<text transform="matrix(1 0 0 1 1270.3552 956.422)" class="st20 st5 st8">1982</text>
		<text transform="matrix(1 0 0 1 1303.4617 956.422)" class="st20 st5 st8">1983</text>
		<text transform="matrix(1 0 0 1 1336.5671 956.422)" class="st20 st5 st8">1984</text>
		<text transform="matrix(1 0 0 1 1369.6726 956.421)" class="st20 st5 st8">1985</text>
		<text transform="matrix(1 0 0 1 1402.7781 956.421)" class="st20 st5 st8">1986</text>
		<text transform="matrix(1 0 0 1 1435.8845 956.421)" class="st20 st5 st8">1987</text>
		<text transform="matrix(1 0 0 1 1468.991 956.421)" class="st20 st5 st8">1988</text>
		<text transform="matrix(1 0 0 1 1502.0974 956.42)" class="st20 st5 st8">1989</text>
		<text transform="matrix(1 0 0 1 1535.2039 956.42)" class="st20 st5 st8">1990</text>
		<text transform="matrix(1 0 0 1 1568.3083 956.42)" class="st20 st5 st8">1991</text>
		<text transform="matrix(1 0 0 1 1601.4148 956.42)" class="st20 st5 st8">1992</text>
		<text transform="matrix(1 0 0 1 1634.5212 956.42)" class="st20 st5 st8">1993</text>
	</g>
</g>
<g id="Layer_484">
	<g>
		<text transform="matrix(1 0 0 1 363.5201 617.7626)" class="st20 st5 st6">THE BEATLES</text>
		<rect x="586.48" y="675.35" class="st0" width="32.66" height="268.08"/>
		<rect x="453.62" y="675.4" class="st1" width="32.66" height="268.26"/>
		<polyline class="st4" points="420.19,943.52 981.18,943.52 981.18,943.15 420.19,943.15 		"/>
		<polyline class="st4" points="420.38,943.33 420.38,936.7 420.01,936.7 420.01,943.33 		"/>
		<polyline class="st4" points="420.38,943.33 420.38,678.15 420.01,678.15 420.01,943.33 		"/>
		<polyline class="st4" points="420.19,943.52 434.22,943.52 434.22,943.15 420.19,943.15 		"/>
		<polyline class="st4" points="420.19,810.93 434.22,810.93 434.22,810.55 420.19,810.55 		"/>
		<polyline class="st4" points="420.19,678.33 434.22,678.33 434.22,677.96 420.19,677.96 		"/>
		<path class="st7" d="M469.69,942.96h-33c-0.21,0-0.37,0.17-0.37,0.37c0,0.21,0.17,0.37,0.37,0.37h33c0.21,0,0.37-0.17,0.37-0.37
			C470.06,943.13,469.9,942.96,469.69,942.96"/>
		<path class="st7" d="M502.69,942.96h-33c-0.21,0-0.37,0.17-0.37,0.37c0,0.21,0.17,0.37,0.37,0.37h33c0.21,0,0.37-0.17,0.37-0.37
			C503.06,943.13,502.9,942.96,502.69,942.96"/>
		<path class="st7" d="M535.69,942.96h-33c-0.21,0-0.37,0.17-0.37,0.37c0,0.21,0.17,0.37,0.37,0.37h33c0.21,0,0.37-0.17,0.37-0.37
			C536.06,943.13,535.9,942.96,535.69,942.96"/>
		<path class="st7" d="M568.32,678.1l-33,265.18c-0.03,0.2,0.12,0.39,0.32,0.42s0.39-0.12,0.42-0.32l33-265.18
			c0.03-0.2-0.12-0.39-0.32-0.42C568.53,677.75,568.35,677.9,568.32,678.1"/>
		<path class="st7" d="M602.05,810.65l-33-132.59c-0.05-0.2-0.25-0.32-0.45-0.27c-0.2,0.05-0.32,0.25-0.27,0.45l33,132.59
			c0.05,0.2,0.25,0.32,0.45,0.27C601.98,811.05,602.1,810.85,602.05,810.65"/>
		<path class="st7" d="M634.69,810.37h-33c-0.21,0-0.37,0.17-0.37,0.37c0,0.21,0.17,0.37,0.37,0.37h33c0.21,0,0.37-0.17,0.37-0.37
			C635.06,810.53,634.89,810.37,634.69,810.37"/>
		<path class="st7" d="M667.69,810.37h-33c-0.21,0-0.37,0.17-0.37,0.37c0,0.21,0.17,0.37,0.37,0.37h33c0.21,0,0.37-0.17,0.37-0.37
			C668.06,810.53,667.89,810.37,667.69,810.37"/>
		<path class="st7" d="M700.33,678.06l-33,132.59c-0.05,0.2,0.07,0.4,0.27,0.45c0.2,0.05,0.4-0.07,0.45-0.27l33-132.59
			c0.05-0.2-0.07-0.4-0.27-0.45C700.58,677.74,700.38,677.86,700.33,678.06"/>
		<path class="st7" d="M734.06,943.29l-33-265.18c-0.03-0.2-0.21-0.35-0.42-0.32c-0.2,0.03-0.35,0.21-0.32,0.42l33,265.18
			c0.03,0.2,0.21,0.35,0.42,0.32S734.08,943.49,734.06,943.29"/>
		<path class="st4" d="M766.69,942.96h-33c-0.21,0-0.37,0.17-0.37,0.37c0,0.21,0.17,0.37,0.37,0.37h33c0.21,0,0.37-0.17,0.37-0.37
			C767.06,943.13,766.89,942.96,766.69,942.96"/>
		<path class="st7" d="M799.32,810.65l-33,132.59c-0.05,0.2,0.07,0.4,0.27,0.45c0.2,0.05,0.4-0.07,0.45-0.27l33-132.59
			c0.05-0.2-0.07-0.4-0.27-0.45C799.58,810.33,799.37,810.45,799.32,810.65"/>
		<path class="st7" d="M833.05,943.24l-33-132.59c-0.05-0.2-0.25-0.32-0.45-0.27c-0.2,0.05-0.32,0.25-0.27,0.45l33,132.59
			c0.05,0.2,0.25,0.32,0.45,0.27C832.97,943.64,833.1,943.44,833.05,943.24"/>
		<path class="st7" d="M865.68,942.96h-33c-0.21,0-0.37,0.17-0.37,0.37c0,0.21,0.17,0.37,0.37,0.37h33c0.21,0,0.37-0.17,0.37-0.37
			C866.06,943.13,865.89,942.96,865.68,942.96"/>
		<path class="st7" d="M898.32,810.65l-33,132.59c-0.05,0.2,0.07,0.4,0.27,0.45c0.2,0.05,0.4-0.07,0.45-0.27l33-132.59
			c0.05-0.2-0.07-0.4-0.27-0.45C898.57,810.33,898.37,810.45,898.32,810.65"/>
		<path class="st7" d="M932.04,943.24l-33-132.59c-0.05-0.2-0.25-0.32-0.45-0.27c-0.2,0.05-0.32,0.25-0.27,0.45l33,132.59
			c0.05,0.2,0.25,0.32,0.45,0.27C931.97,943.64,932.09,943.44,932.04,943.24"/>
		<path class="st7" d="M964.31,678.1l-33,265.18c-0.03,0.2,0.12,0.39,0.32,0.42s0.39-0.12,0.42-0.32l33-265.18
			c0.03-0.2-0.12-0.39-0.32-0.42C964.52,677.75,964.34,677.9,964.31,678.1"/>
		<rect x="435.57" y="942.22" class="st4" width="2.23" height="2.23"/>
		<polygon class="st7" points="435.57,942.22 435.57,942.31 437.71,942.31 437.71,944.36 435.67,944.36 435.67,942.22 
			435.57,942.22 435.57,942.31 435.57,942.22 435.48,942.22 435.48,944.54 437.9,944.54 437.9,942.12 435.48,942.12 435.48,942.22 
					"/>
		<rect x="468.57" y="942.22" class="st4" width="2.23" height="2.23"/>
		<polygon class="st7" points="468.57,942.22 468.57,942.31 470.71,942.31 470.71,944.36 468.67,944.36 468.67,942.22 
			468.57,942.22 468.57,942.31 468.57,942.22 468.48,942.22 468.48,944.54 470.9,944.54 470.9,942.12 468.48,942.12 468.48,942.22 
					"/>
		<rect x="501.57" y="942.22" class="st4" width="2.23" height="2.23"/>
		<polygon class="st7" points="501.57,942.22 501.57,942.31 503.71,942.31 503.71,944.36 501.67,944.36 501.67,942.22 
			501.57,942.22 501.57,942.31 501.57,942.22 501.48,942.22 501.48,944.54 503.9,944.54 503.9,942.12 501.48,942.12 501.48,942.22 
					"/>
		<rect x="534.57" y="942.22" class="st4" width="2.23" height="2.23"/>
		<polygon class="st4" points="534.57,942.22 534.57,942.31 536.71,942.31 536.71,944.36 534.67,944.36 534.67,942.22 
			534.57,942.22 534.57,942.31 534.57,942.22 534.48,942.22 534.48,944.54 536.9,944.54 536.9,942.12 534.48,942.12 534.48,942.22 
					"/>
		<rect x="567.57" y="677.03" class="st7" width="2.23" height="2.23"/>
		<polygon class="st4" points="567.57,677.03 567.57,677.12 569.71,677.12 569.71,679.17 567.67,679.17 567.67,677.03 
			567.57,677.03 567.57,677.12 567.57,677.03 567.48,677.03 567.48,679.36 569.9,679.36 569.9,676.94 567.48,676.94 567.48,677.03 
					"/>
		<rect x="600.57" y="809.62" class="st4" width="2.23" height="2.23"/>
		<polygon class="st7" points="600.57,809.62 600.57,809.72 602.71,809.72 602.71,811.76 600.67,811.76 600.67,809.62 
			600.57,809.62 600.57,809.72 600.57,809.62 600.48,809.62 600.48,811.95 602.9,811.95 602.9,809.53 600.48,809.53 600.48,809.62 
					"/>
		<rect x="633.57" y="809.62" class="st4" width="2.23" height="2.23"/>
		<polygon class="st7" points="633.57,809.62 633.57,809.72 635.71,809.72 635.71,811.76 633.66,811.76 633.66,809.62 
			633.57,809.62 633.57,809.72 633.57,809.62 633.48,809.62 633.48,811.95 635.9,811.95 635.9,809.53 633.48,809.53 633.48,809.62 
					"/>
		<rect x="666.57" y="809.62" class="st7" width="2.23" height="2.23"/>
		<polygon class="st7" points="666.57,809.62 666.57,809.72 668.71,809.72 668.71,811.76 666.66,811.76 666.66,809.62 
			666.57,809.62 666.57,809.72 666.57,809.62 666.48,809.62 666.48,811.95 668.9,811.95 668.9,809.53 666.48,809.53 666.48,809.62 
					"/>
		<rect x="699.57" y="677.03" class="st7" width="2.23" height="2.23"/>
		<polygon class="st7" points="699.57,677.03 699.57,677.12 701.71,677.12 701.71,679.17 699.66,679.17 699.66,677.03 
			699.57,677.03 699.57,677.12 699.57,677.03 699.48,677.03 699.48,679.36 701.9,679.36 701.9,676.94 699.48,676.94 699.48,677.03 
					"/>
		<rect x="732.57" y="942.22" class="st7" width="2.23" height="2.23"/>
		<polygon class="st4" points="732.57,942.22 732.57,942.31 734.71,942.31 734.71,944.36 732.66,944.36 732.66,942.22 
			732.57,942.22 732.57,942.31 732.57,942.22 732.48,942.22 732.48,944.54 734.9,944.54 734.9,942.12 732.48,942.12 732.48,942.22 
					"/>
		<rect x="765.57" y="942.22" class="st4" width="2.23" height="2.23"/>
		<polygon class="st7" points="765.57,942.22 765.57,942.31 767.71,942.31 767.71,944.36 765.66,944.36 765.66,942.22 
			765.57,942.22 765.57,942.31 765.57,942.22 765.48,942.22 765.48,944.54 767.9,944.54 767.9,942.12 765.48,942.12 765.48,942.22 
					"/>
		<rect x="798.57" y="809.62" class="st7" width="2.23" height="2.23"/>
		<polygon class="st7" points="798.57,809.62 798.57,809.72 800.71,809.72 800.71,811.76 798.66,811.76 798.66,809.62 
			798.57,809.62 798.57,809.72 798.57,809.62 798.48,809.62 798.48,811.95 800.89,811.95 800.89,809.53 798.48,809.53 
			798.48,809.62 		"/>
		<rect x="831.57" y="942.22" class="st4" width="2.23" height="2.23"/>
		<polygon class="st7" points="831.57,942.22 831.57,942.31 833.71,942.31 833.71,944.36 831.66,944.36 831.66,942.22 
			831.57,942.22 831.57,942.31 831.57,942.22 831.48,942.22 831.48,944.54 833.89,944.54 833.89,942.12 831.48,942.12 
			831.48,942.22 		"/>
		<rect x="864.57" y="942.22" class="st4" width="2.23" height="2.23"/>
		<polygon class="st7" points="864.57,942.22 864.57,942.31 866.71,942.31 866.71,944.36 864.66,944.36 864.66,942.22 
			864.57,942.22 864.57,942.31 864.57,942.22 864.47,942.22 864.47,944.54 866.89,944.54 866.89,942.12 864.47,942.12 
			864.47,942.22 		"/>
		<rect x="897.57" y="809.62" class="st7" width="2.23" height="2.23"/>
		<polygon class="st7" points="897.57,809.62 897.57,809.72 899.71,809.72 899.71,811.76 897.66,811.76 897.66,809.62 
			897.57,809.62 897.57,809.72 897.57,809.62 897.47,809.62 897.47,811.95 899.89,811.95 899.89,809.53 897.47,809.53 
			897.47,809.62 		"/>
		<rect x="930.57" y="942.22" class="st4" width="2.23" height="2.23"/>
		<polygon class="st7" points="930.57,942.22 930.57,942.31 932.71,942.31 932.71,944.36 930.66,944.36 930.66,942.22 
			930.57,942.22 930.57,942.31 930.57,942.22 930.47,942.22 930.47,944.54 932.89,944.54 932.89,942.12 930.47,942.12 
			930.47,942.22 		"/>
		<rect x="963.57" y="677.03" class="st7" width="2.23" height="2.23"/>
		<polygon class="st7" points="963.57,677.03 963.57,677.12 965.71,677.12 965.71,679.17 963.66,679.17 963.66,677.03 
			963.57,677.03 963.57,677.12 963.57,677.03 963.47,677.03 963.47,679.36 965.89,679.36 965.89,676.94 963.47,676.94 
			963.47,677.03 		"/>
		<text transform="matrix(1 0 0 1 424.353 956.4235)" class="st20 st5 st8">1977</text>
		<text transform="matrix(1 0 0 1 457.4595 956.4235)" class="st20 st5 st8">1978</text>
		<text transform="matrix(1 0 0 1 490.563 956.4205)" class="st20 st5 st8">1979</text>
		<text transform="matrix(1 0 0 1 523.6704 956.4205)" class="st20 st5 st8">1980</text>
		<text transform="matrix(1 0 0 1 556.7769 956.4225)" class="st20 st5 st8">1981</text>
		<text transform="matrix(1 0 0 1 589.8833 956.4225)" class="st20 st5 st8">1982</text>
		<text transform="matrix(1 0 0 1 622.9897 956.4225)" class="st20 st5 st8">1983</text>
		<text transform="matrix(1 0 0 1 656.0952 956.4225)" class="st20 st5 st8">1984</text>
		<text transform="matrix(1 0 0 1 689.2007 956.4215)" class="st20 st5 st8">1985</text>
		<text transform="matrix(1 0 0 1 722.3062 956.4215)" class="st20 st5 st8">1986</text>
		<text transform="matrix(1 0 0 1 755.4126 956.4215)" class="st20 st5 st8">1987</text>
		<text transform="matrix(1 0 0 1 788.519 956.4215)" class="st20 st5 st8">1988</text>
		<text transform="matrix(1 0 0 1 821.6255 956.4205)" class="st20 st5 st8">1989</text>
		<text transform="matrix(1 0 0 1 854.7319 956.4205)" class="st20 st5 st8">1990</text>
		<text transform="matrix(1 0 0 1 887.8364 956.4205)" class="st20 st5 st8">1991</text>
		<text transform="matrix(1 0 0 1 920.9429 956.4205)" class="st20 st5 st8">1992</text>
		<text transform="matrix(1 0 0 1 954.0493 956.4205)" class="st20 st5 st8">1993</text>
	</g>
</g>
<g id="Layer_483">
</g>
<g id="Layer_482">
</g>
<g id="Layer_481">
</g>
<g id="Layer_480">
</g>
<g id="Layer_479">
</g>
<g id="Layer_478">
</g>
<g id="Layer_477">
</g>
<g id="Layer_476">
</g>
<g id="Layer_475">
</g>
<g id="Layer_474">
</g>
<g id="Layer_473">
</g>
<g id="Layer_472">
</g>
<g id="Layer_471">
</g>
<g id="Layer_470">
</g>
<g id="Layer_469">
</g>
<g id="Layer_468">
</g>
<g id="Layer_467">
</g>
<g id="Layer_466">
</g>
<g id="Layer_465">
</g>
<g id="Layer_464">
</g>
<g id="Layer_463">
</g>
<g id="Layer_462">
</g>
<g id="Layer_461">
</g>
<g id="Layer_460">
</g>
<g id="Layer_459">
</g>
<g id="Layer_458">
</g>
<g id="Layer_457">
</g>
<g id="Layer_456">
</g>
<g id="Layer_455">
</g>
<g id="Layer_454">
</g>
<g id="Layer_453">
</g>
<g id="Layer_452">
</g>
<g id="Layer_451">
</g>
<g id="Layer_450">
</g>
<g id="Layer_449">
</g>
<g id="Layer_448">
</g>
<g id="Layer_447">
</g>
<g id="Layer_446">
</g>
<g id="Layer_445">
</g>
<g id="Layer_444">
</g>
<g id="Layer_443">
</g>
<g id="Layer_442">
</g>
<g id="Layer_441">
</g>
<g id="Layer_440">
</g>
<g id="Layer_439">
</g>
<g id="Layer_438">
</g>
<g id="Layer_437">
</g>
<g id="Layer_436">
</g>
<g id="Layer_435">
</g>
<g id="Layer_434">
</g>
<g id="Layer_433">
</g>
<g id="Layer_432">
</g>
<g id="Layer_431">
</g>
<g id="Layer_430">
</g>
<g id="Layer_429">
</g>
<g id="Layer_428">
</g>
<g id="Layer_427">
</g>
<g id="Layer_426">
</g>
<g id="Layer_425">
</g>
<g id="Layer_424">
</g>
<g id="Layer_423">
</g>
<g id="Layer_422">
</g>
<g id="Layer_421">
</g>
<g id="Layer_420">
</g>
<g id="Layer_419">
</g>
<g id="Layer_418">
</g>
<g id="Layer_417">
</g>
<g id="Layer_416">
</g>
<g id="Layer_415">
</g>
<g id="Layer_414">
</g>
<g id="Layer_413">
</g>
<g id="Layer_412">
</g>
<g id="Layer_411">
</g>
<g id="Layer_410">
</g>
<g id="Layer_409">
</g>
<g id="Layer_408">
</g>
<g id="Layer_407">
</g>
<g id="Layer_406">
</g>
<g id="Layer_405">
</g>
<g id="Layer_404">
</g>
<g id="Layer_403">
</g>
<g id="Layer_402">
</g>
<g id="Layer_401">
</g>
<g id="Layer_400">
</g>
<g id="Layer_399">
</g>
<g id="Layer_398">
</g>
<g id="Layer_397">
</g>
<g id="Layer_396">
</g>
<g id="Layer_395">
</g>
<g id="Layer_394">
</g>
<g id="Layer_393">
</g>
<g id="Layer_392">
</g>
<g id="Layer_391">
</g>
<g id="Layer_390">
</g>
<g id="Layer_389">
</g>
<g id="Layer_388">
</g>
<g id="Layer_387">
</g>
<g id="Layer_386">
</g>
<g id="Layer_385">
</g>
<g id="Layer_384">
</g>
<g id="Layer_383">
</g>
<g id="Layer_382">
</g>
<g id="Layer_381">
</g>
<g id="Layer_380">
</g>
<g id="Layer_379">
</g>
<g id="Layer_378">
</g>
<g id="Layer_377">
</g>
<g id="Layer_376">
</g>
<g id="Layer_375">
</g>
<g id="Layer_374">
</g>
<g id="Layer_373">
</g>
<g id="Layer_372">
</g>
<g id="Layer_371">
</g>
<g id="Layer_370">
</g>
<g id="Layer_369">
</g>
<g id="Layer_368">
</g>
<g id="Layer_367">
</g>
<g id="Layer_366">
</g>
<g id="Layer_365">
</g>
<g id="Layer_364">
</g>
<g id="Layer_363">
</g>
<g id="Layer_362">
</g>
<g id="Layer_361">
</g>
<g id="Layer_360">
</g>
<g id="Layer_359">
</g>
<g id="Layer_358">
</g>
<g id="Layer_357">
</g>
<g id="Layer_356">
</g>
<g id="Layer_355">
</g>
<g id="Layer_354">
</g>
<g id="Layer_353">
</g>
<g id="Layer_352">
</g>
<g id="Layer_351">
</g>
<g id="Layer_350">
</g>
<g id="Layer_349">
</g>
<g id="Layer_348">
</g>
<g id="Layer_347">
</g>
<g id="Layer_346">
</g>
<g id="Layer_345">
</g>
<g id="Layer_344">
</g>
<g id="Layer_343">
</g>
<g id="Layer_342">
</g>
<g id="Layer_341">
</g>
<g id="Layer_340">
</g>
<g id="Layer_339">
</g>
<g id="Layer_338">
</g>
<g id="Layer_337">
</g>
<g id="Layer_336">
</g>
<g id="Layer_335">
</g>
<g id="Layer_334">
</g>
<g id="Layer_333">
</g>
<g id="Layer_332">
</g>
<g id="Layer_331">
</g>
<g id="Layer_330">
</g>
<g id="Layer_329">
</g>
<g id="Layer_328">
</g>
<g id="Layer_327">
</g>
<g id="Layer_326">
</g>
<g id="Layer_325">
</g>
<g id="Layer_324">
</g>
<g id="Layer_323">
</g>
<g id="Layer_322">
</g>
<g id="Layer_321">
</g>
<g id="Layer_320">
</g>
<g id="Layer_319">
</g>
<g id="Layer_318">
</g>
<g id="Layer_317">
</g>
<g id="Layer_316">
</g>
<g id="Layer_315">
</g>
<g id="Layer_314">
</g>
<g id="Layer_313">
</g>
<g id="Layer_312">
</g>
<g id="Layer_311">
</g>
<g id="Layer_310">
</g>
<g id="Layer_309">
</g>
<g id="Layer_308">
</g>
<g id="Layer_307">
</g>
<g id="Layer_306">
</g>
<g id="Layer_305">
</g>
<g id="Layer_304">
</g>
<g id="Layer_303">
</g>
<g id="Layer_302">
</g>
<g id="Layer_301">
</g>
<g id="Layer_300">
</g>
<g id="Layer_299">
</g>
<g id="Layer_298">
</g>
<g id="Layer_297">
</g>
<g id="Layer_296">
</g>
<g id="Layer_295">
</g>
<g id="Layer_294">
</g>
<g id="Layer_293">
</g>
<g id="Layer_292">
</g>
<g id="Layer_291">
</g>
<g id="Layer_290">
</g>
<g id="Layer_289">
</g>
<g id="Layer_288">
</g>
<g id="Layer_287">
</g>
<g id="Layer_286">
</g>
<g id="Layer_285">
</g>
<g id="Layer_284">
</g>
<g id="Layer_283">
</g>
<g id="Layer_282">
</g>
<g id="Layer_281">
</g>
<g id="Layer_280">
</g>
<g id="Layer_279">
</g>
<g id="Layer_278">
</g>
<g id="Layer_277">
</g>
<g id="Layer_276">
</g>
<g id="Layer_275">
</g>
<g id="Layer_274">
</g>
<g id="Layer_273">
</g>
<g id="Layer_272">
</g>
<g id="Layer_271">
</g>
<g id="Layer_270">
</g>
<g id="Layer_269">
</g>
<g id="Layer_268">
</g>
<g id="Layer_267">
</g>
<g id="Layer_266">
</g>
<g id="Layer_265">
</g>
<g id="Layer_264">
</g>
<g id="Layer_263">
</g>
<g id="Layer_262">
</g>
<g id="Layer_261">
</g>
<g id="Layer_260">
</g>
<g id="Layer_259">
</g>
<g id="Layer_258">
</g>
<g id="Layer_257">
</g>
<g id="Layer_256">
</g>
<g id="Layer_255">
</g>
<g id="Layer_254">
</g>
<g id="Layer_253">
</g>
<g id="Layer_252">
</g>
<g id="Layer_251">
</g>
<g id="Layer_250">
</g>
<g id="Layer_249">
</g>
<g id="Layer_248">
</g>
<g id="Layer_247">
</g>
<g id="Layer_246">
</g>
<g id="Layer_245">
</g>
<g id="Layer_244">
</g>
<g id="Layer_243">
</g>
<g id="Layer_242">
</g>
<g id="Layer_241">
</g>
<g id="Layer_240">
</g>
<g id="Layer_239">
</g>
<g id="Layer_238">
</g>
<g id="Layer_237">
</g>
<g id="Layer_236">
</g>
<g id="Layer_235">
</g>
<g id="Layer_234">
</g>
<g id="Layer_233">
</g>
<g id="Layer_232">
</g>
<g id="Layer_231">
</g>
<g id="Layer_230">
</g>
<g id="Layer_229">
</g>
<g id="Layer_228">
</g>
<g id="Layer_227">
</g>
<g id="Layer_226">
</g>
<g id="Layer_225">
</g>
<g id="Layer_224">
</g>
<g id="Layer_223">
</g>
<g id="Layer_222">
</g>
<g id="Layer_221">
</g>
<g id="Layer_220">
</g>
<g id="Layer_219">
</g>
<g id="Layer_218">
</g>
<g id="Layer_217">
</g>
<g id="Layer_216">
</g>
<g id="Layer_215">
</g>
<g id="Layer_214">
</g>
<g id="Layer_213">
</g>
<g id="Layer_212">
</g>
<g id="Layer_211">
</g>
<g id="Layer_210">
</g>
<g id="Layer_209">
</g>
<g id="Layer_208">
</g>
<g id="Layer_207">
</g>
<g id="Layer_206">
</g>
<g id="Layer_205">
</g>
<g id="Layer_204">
</g>
<g id="Layer_203">
</g>
<g id="Layer_202">
</g>
<g id="Layer_201">
</g>
<g id="Layer_200">
</g>
<g id="Layer_199">
</g>
<g id="Layer_198">
</g>
<g id="Layer_197">
</g>
<g id="Layer_196">
</g>
<g id="Layer_195">
</g>
<g id="Layer_194">
</g>
<g id="Layer_193">
</g>
<g id="Layer_192">
</g>
<g id="Layer_191">
</g>
<g id="Layer_190">
</g>
<g id="Layer_189">
</g>
<g id="Layer_188">
</g>
<g id="Layer_187">
</g>
<g id="Layer_186">
</g>
<g id="Layer_185">
</g>
<g id="Layer_184">
</g>
<g id="Layer_183">
</g>
<g id="Layer_182">
</g>
<g id="Layer_181">
</g>
<g id="Layer_180">
</g>
<g id="Layer_179">
</g>
<g id="Layer_178">
</g>
<g id="Layer_177">
</g>
<g id="Layer_176">
</g>
<g id="Layer_175">
</g>
<g id="Layer_174">
</g>
<g id="Layer_173">
</g>
<g id="Layer_172">
</g>
<g id="Layer_171">
</g>
<g id="Layer_170">
</g>
<g id="Layer_169">
</g>
<g id="Layer_168">
</g>
<g id="Layer_167">
</g>
<g id="Layer_166">
</g>
<g id="Layer_165">
</g>
<g id="Layer_164">
</g>
<g id="Layer_163">
</g>
<g id="Layer_162">
</g>
<g id="Layer_161">
</g>
<g id="Layer_160">
</g>
<g id="Layer_159">
</g>
<g id="Layer_158">
</g>
<g id="Layer_157">
</g>
<g id="Layer_156">
</g>
<g id="Layer_155">
</g>
<g id="Layer_154">
</g>
<g id="Layer_153">
</g>
<g id="Layer_152">
</g>
<g id="Layer_151">
</g>
<g id="Layer_150">
</g>
<g id="Layer_149">
</g>
<g id="Layer_148">
</g>
<g id="Layer_147">
</g>
<g id="Layer_146">
</g>
<g id="Layer_145">
</g>
<g id="Layer_144">
</g>
<g id="Layer_143">
</g>
<g id="Layer_142">
</g>
<g id="Layer_141">
</g>
<g id="Layer_140">
</g>
<g id="Layer_139">
</g>
<g id="Layer_138">
</g>
<g id="Layer_137">
</g>
<g id="Layer_136">
</g>
<g id="Layer_135">
</g>
<g id="Layer_134">
</g>
<g id="Layer_133">
</g>
<g id="Layer_132">
</g>
<g id="Layer_131">
</g>
<g id="Layer_130">
</g>
<g id="Layer_129">
</g>
<g id="Layer_128">
</g>
<g id="Layer_127">
</g>
<g id="Layer_126">
</g>
<g id="Layer_125">
</g>
<g id="Layer_124">
</g>
<g id="Layer_123">
</g>
<g id="Layer_122">
</g>
<g id="Layer_121">
</g>
<g id="Layer_120">
</g>
<g id="Layer_119">
</g>
<g id="Layer_118">
</g>
<g id="Layer_117">
</g>
<g id="Layer_116">
</g>
<g id="Layer_115">
</g>
<g id="Layer_114">
	<text transform="matrix(1 0 0 1 1363 540)" class="st4 st5 st25">1971</text>
</g>
<g id="Layer_113">
	<text transform="matrix(1 0 0 1 1388.5 540.1299)" class="st4 st5 st25">1972</text>
</g>
<g id="Layer_112">
	<text transform="matrix(1 0 0 1 1414 540.1299)" class="st4 st5 st25">1973</text>
</g>
<g id="Layer_111">
	<text transform="matrix(1 0 0 1 1439.5 540.1299)" class="st4 st5 st25">1974</text>
</g>
<g id="Layer_110">
	<text transform="matrix(1 0 0 1 1465 540.1299)" class="st4 st5 st25">1975</text>
</g>
<g id="Layer_109">
	<text transform="matrix(1 0 0 1 1490.5 540.1299)" class="st4 st5 st25">1976</text>
</g>
<g id="Layer_108">
	<text transform="matrix(1 0 0 1 1516 540.1299)" class="st4 st5 st25">1977</text>
</g>
<g id="Layer_107">
	<text transform="matrix(1 0 0 1 1541.5 540.1299)" class="st4 st5 st25">1978</text>
</g>
<g id="Layer_106">
	<text transform="matrix(1 0 0 1 1567 540.1299)" class="st4 st5 st25">1979</text>
</g>
<g id="Layer_105">
	<text transform="matrix(1 0 0 1 1592.5 540.1299)" class="st4 st5 st25">1980</text>
</g>
<g id="Layer_104">
	<text transform="matrix(1 0 0 1 1618 540.1299)" class="st4 st5 st25">1981</text>
</g>
<g id="Layer_103">
	<text transform="matrix(1 0 0 1 1643.5 540.1299)" class="st4 st5 st25">1982</text>
</g>
<g id="Layer_102">
	<text transform="matrix(1 0 0 1 1669 540.1299)" class="st4 st5 st25">1983</text>
</g>
<g id="Layer_101">
	<text transform="matrix(1 0 0 1 1694.5 540.1299)" class="st4 st5 st25">1984</text>
</g>
<g id="Layer_100">
	<text transform="matrix(1 0 0 1 1720 540.1299)" class="st4 st5 st25">1985</text>
</g>
<g id="Layer_99">
	<text transform="matrix(1 0 0 1 1745.5 540.1299)" class="st4 st5 st25">1986</text>
</g>
<g id="Layer_98">
	<text transform="matrix(1 0 0 1 1771 540.1299)" class="st4 st5 st25">1987</text>
</g>
<g id="Layer_97">
	<text transform="matrix(1 0 0 1 1796.5 540.1299)" class="st4 st5 st25">1988</text>
</g>
<g id="Layer_96">
	<text transform="matrix(1 0 0 1 1822 540)" class="st4 st5 st25">1989</text>
</g>
<g id="Layer_95">
	<polyline class="st4" points="1356,522.83 1849,522.83 1849,521.83 1356,521.83 	"/>
</g>
<g id="Layer_94">
	<polyline class="st4" points="1356.5,522.33 1356.5,515.63 1355.5,515.63 1355.5,522.33 	"/>
</g>
<g id="Layer_93">
	<text transform="matrix(1 0 0 1 1334.4316 464)" class="st4 st5 st26">1</text>
</g>
<g id="Layer_92">
	<text transform="matrix(1 0 0 1 1334.4316 397)" class="st4 st5 st26">2</text>
</g>
<g id="Layer_91">
	<text transform="matrix(1 0 0 1 1334.4316 330)" class="st4 st5 st26">3</text>
</g>
<g id="Layer_90">
	<text transform="matrix(1 0 0 1 1334.4316 263)" class="st4 st5 st26">4</text>
</g>
<g id="Layer_89">
	<polyline class="st4" points="1356.5,522.33 1356.5,254.33 1355.5,254.33 1355.5,522.33 	"/>
</g>
<g id="Layer_88">
	<polyline class="st4" points="1356,522.83 1368.33,522.83 1368.33,521.83 1356,521.83 	"/>
</g>
<g id="Layer_87">
	<polyline class="st4" points="1356,455.83 1368.33,455.83 1368.33,454.83 1356,454.83 	"/>
</g>
<g id="Layer_86">
	<polyline class="st4" points="1356,388.83 1368.33,388.83 1368.33,387.83 1356,387.83 	"/>
</g>
<g id="Layer_85">
	<polyline class="st4" points="1356,321.83 1368.33,321.83 1368.33,320.83 1356,320.83 	"/>
</g>
<g id="Layer_84">
	<polyline class="st4" points="1356,254.83 1368.33,254.83 1368.33,253.83 1356,253.83 	"/>
</g>
<g id="Layer_83">
	<path class="st4" d="M1394.92,521.33h-25.95c-0.55,0-1,0.45-1,1c0,0.55,0.45,1,1,1h25.95c0.55,0,1-0.45,1-1
		C1395.92,521.78,1395.47,521.33,1394.92,521.33"/>
</g>
<g id="Layer_82">
	<path class="st4" d="M1420.87,521.33h-25.95c-0.55,0-1,0.45-1,1c0,0.55,0.45,1,1,1h25.95c0.55,0,1-0.45,1-1
		C1421.87,521.78,1421.42,521.33,1420.87,521.33"/>
</g>
<g id="Layer_81">
	<path class="st4" d="M1446.82,521.33h-25.95c-0.55,0-1,0.45-1,1c0,0.55,0.45,1,1,1h25.95c0.55,0,1-0.45,1-1
		C1447.82,521.78,1447.37,521.33,1446.82,521.33"/>
</g>
<g id="Layer_80">
	<path class="st4" d="M1471.78,388.14l-25.95,134c-0.1,0.54,0.25,1.07,0.79,1.17s1.07-0.25,1.17-0.79l25.95-134
		c0.1-0.54-0.25-1.07-0.79-1.17S1471.89,387.6,1471.78,388.14"/>
</g>
<g id="Layer_79">
	<path class="st4" d="M1499.64,454.97l-25.95-67c-0.2-0.51-0.78-0.77-1.29-0.57c-0.51,0.2-0.77,0.78-0.57,1.29l25.95,67
		c0.2,0.51,0.78,0.77,1.29,0.57C1499.59,456.07,1499.84,455.49,1499.64,454.97"/>
</g>
<g id="Layer_78">
	<path class="st4" d="M1523.73,387.97l-25.95,67c-0.2,0.52,0.06,1.09,0.57,1.29c0.52,0.2,1.09-0.06,1.29-0.57l25.95-67
		c0.2-0.52-0.06-1.09-0.57-1.29C1524.5,387.2,1523.93,387.46,1523.73,387.97"/>
</g>
<g id="Layer_77">
	<path class="st4" d="M1551.54,454.97l-25.95-67c-0.2-0.52-0.78-0.77-1.29-0.57c-0.51,0.2-0.77,0.78-0.57,1.29l25.95,67
		c0.2,0.52,0.78,0.77,1.29,0.57C1551.48,456.07,1551.74,455.49,1551.54,454.97"/>
</g>
<g id="Layer_76">
	<path class="st4" d="M1577.49,521.97l-25.95-67c-0.2-0.52-0.78-0.77-1.29-0.57c-0.51,0.2-0.77,0.78-0.57,1.29l25.95,67
		c0.2,0.52,0.78,0.77,1.29,0.57C1577.43,523.07,1577.68,522.49,1577.49,521.97"/>
</g>
<g id="Layer_75">
	<path class="st4" d="M1601.5,254.24l-25.95,268c-0.05,0.55,0.35,1.04,0.9,1.09c0.55,0.05,1.04-0.35,1.09-0.9l25.95-268
		c0.05-0.55-0.35-1.04-0.9-1.09C1602.05,253.29,1601.56,253.69,1601.5,254.24"/>
</g>
<g id="Layer_74">
	<path class="st4" d="M1629.44,522.24l-25.95-268c-0.05-0.55-0.54-0.95-1.09-0.9c-0.55,0.05-0.95,0.54-0.9,1.09l25.95,268
		c0.05,0.55,0.54,0.95,1.09,0.9C1629.09,523.28,1629.5,522.79,1629.44,522.24"/>
</g>
<g id="Layer_73">
	<path class="st4" d="M1654.39,521.33h-25.95c-0.55,0-1,0.45-1,1c0,0.55,0.45,1,1,1h25.95c0.55,0,1-0.45,1-1
		C1655.39,521.78,1654.95,521.33,1654.39,521.33"/>
</g>
<g id="Layer_72">
	<path class="st4" d="M1679.41,454.97l-25.95,67c-0.2,0.52,0.06,1.09,0.57,1.29c0.52,0.2,1.09-0.06,1.29-0.57l25.95-67
		c0.2-0.52-0.06-1.09-0.57-1.29C1680.19,454.2,1679.61,454.46,1679.41,454.97"/>
</g>
<g id="Layer_71">
	<path class="st4" d="M1707.22,521.97l-25.95-67c-0.2-0.52-0.78-0.77-1.29-0.57c-0.51,0.2-0.77,0.78-0.57,1.29l25.95,67
		c0.2,0.52,0.78,0.77,1.29,0.57C1707.17,523.07,1707.42,522.49,1707.22,521.97"/>
</g>
<g id="Layer_70">
	<path class="st4" d="M1731.24,254.24l-25.95,268c-0.05,0.55,0.35,1.04,0.9,1.09c0.55,0.05,1.04-0.35,1.09-0.9l25.95-268
		c0.05-0.55-0.35-1.04-0.9-1.09C1731.78,253.29,1731.3,253.69,1731.24,254.24"/>
</g>
<g id="Layer_69">
	<path class="st4" d="M1759.18,522.24l-25.95-268c-0.05-0.55-0.54-0.95-1.09-0.9c-0.55,0.05-0.95,0.54-0.9,1.09l25.95,268
		c0.05,0.55,0.54,0.95,1.09,0.9C1758.83,523.28,1759.23,522.79,1759.18,522.24"/>
</g>
<g id="Layer_68">
	<path class="st4" d="M1784.13,521.33h-25.95c-0.55,0-1,0.45-1,1c0,0.55,0.45,1,1,1h25.95c0.55,0,1-0.45,1-1
		C1785.13,521.78,1784.68,521.33,1784.13,521.33"/>
</g>
<g id="Layer_67">
	<path class="st4" d="M1810.08,521.33h-25.95c-0.55,0-1,0.45-1,1c0,0.55,0.45,1,1,1h25.95c0.55,0,1-0.45,1-1
		C1811.08,521.78,1810.63,521.33,1810.08,521.33"/>
</g>
<g id="Layer_66">
	<path class="st4" d="M1835.09,454.97l-25.95,67c-0.2,0.52,0.06,1.09,0.57,1.29c0.52,0.2,1.09-0.06,1.29-0.57l25.95-67
		c0.2-0.52-0.06-1.09-0.57-1.29C1835.87,454.2,1835.29,454.46,1835.09,454.97"/>
</g>
<g id="Layer_65">
	<rect x="1365.97" y="519.33" class="st4" width="6" height="6"/>
</g>
<g id="Layer_64">
</g>
<g id="Layer_63">
	<rect x="1391.92" y="519.33" class="st4" width="6" height="6"/>
</g>
<g id="Layer_62">
</g>
<g id="Layer_61">
	<rect x="1417.87" y="519.33" class="st4" width="6" height="6"/>
</g>
<g id="Layer_60">
</g>
<g id="Layer_59">
	<rect x="1443.82" y="519.33" class="st4" width="6" height="6"/>
</g>
<g id="Layer_58">
</g>
<g id="Layer_57">
	<rect x="1469.76" y="385.33" class="st4" width="6" height="6"/>
</g>
<g id="Layer_56">
</g>
<g id="Layer_55">
	<rect x="1495.71" y="452.33" class="st4" width="6" height="6"/>
</g>
<g id="Layer_54">
</g>
<g id="Layer_53">
	<rect x="1521.66" y="385.33" class="st4" width="6" height="6"/>
</g>
<g id="Layer_52">
</g>
<g id="Layer_51">
	<rect x="1547.61" y="452.33" class="st4" width="6" height="6"/>
</g>
<g id="Layer_50">
</g>
<g id="Layer_49">
	<rect x="1573.55" y="519.33" class="st4" width="6" height="6"/>
</g>
<g id="Layer_48">
</g>
<g id="Layer_47">
	<rect x="1599.5" y="251.33" class="st4" width="6" height="6"/>
</g>
<g id="Layer_46">
</g>
<g id="Layer_45">
	<rect x="1625.45" y="519.33" class="st4" width="6" height="6"/>
</g>
<g id="Layer_44">
</g>
<g id="Layer_43">
	<rect x="1651.39" y="519.33" class="st4" width="6" height="6"/>
</g>
<g id="Layer_42">
</g>
<g id="Layer_41">
	<rect x="1677.34" y="452.33" class="st4" width="6" height="6"/>
</g>
<g id="Layer_40">
</g>
<g id="Layer_39">
	<rect x="1703.29" y="519.33" class="st4" width="6" height="6"/>
</g>
<g id="Layer_38">
</g>
<g id="Layer_37">
	<rect x="1729.24" y="251.33" class="st4" width="6" height="6"/>
</g>
<g id="Layer_36">
</g>
<g id="Layer_35">
	<rect x="1755.18" y="519.33" class="st4" width="6" height="6"/>
</g>
<g id="Layer_34">
</g>
<g id="Layer_33">
	<rect x="1781.13" y="519.33" class="st4" width="6" height="6"/>
</g>
<g id="Layer_32">
</g>
<g id="Layer_31">
	<rect x="1807.08" y="519.33" class="st4" width="6" height="6"/>
</g>
<g id="Layer_30">
</g>
<g id="Layer_29">
	<rect x="1833.03" y="452.33" class="st4" width="6" height="6"/>
</g>
<g id="Layer_28">
</g>
<g id="Layer_27">
</g>
<g id="Layer_26">
</g>
<g id="Layer_25">
</g>
<g id="Layer_24">
</g>
<g id="Layer_23">
</g>
<g id="Layer_22">
</g>
<g id="Layer_21">
</g>
<g id="Layer_20">
</g>
<g id="Layer_19">
</g>
<g id="Layer_18">
</g>
<g id="Layer_17">
</g>
<g id="Layer_16">
</g>
<g id="Layer_15">
</g>
<g id="Layer_14">
</g>
<g id="Layer_13">
</g>
<g id="Layer_12">
</g>
<g id="Layer_11">
</g>
<g id="Layer_10">
</g>
<g id="Layer_9">
</g>
<g id="Layer_8">
</g>
<g id="Layer_7">
</g>
<g id="Layer_6">
</g>
<g id="Layer_5">
</g>
<g id="Layer_4">
</g>
<g id="Layer_3">
</g>
<g id="Layer_2">
</g>
</svg>
