<?xml version="1.0" encoding="utf-8"?>
<!-- Generator: Adobe Illustrator 24.0.1, SVG Export Plug-In . SVG Version: 6.00 Build 0)  -->
<svg version="1.1" id="Layer_1" xmlns="http://www.w3.org/2000/svg" xmlns:xlink="http://www.w3.org/1999/xlink" x="0px" y="0px"
	 viewBox="0 0 1920 1080" style="enable-background:new 0 0 1920 1080;" xml:space="preserve">
<style type="text/css">
	.st0{opacity:0.28;fill:#EC2027;}
	.st1{opacity:0.22;fill:#00A64F;}
	.st2{opacity:0.27;fill:#EC2027;}
	.st3{opacity:0.27;fill:#00A64F;}
	.st4{fill:#231F20;}
	.st5{fill:#231F20;stroke:#231F20;stroke-miterlimit:10;}
	.st6{font-family:'SourceCodePro-Regular';}
	.st7{font-size:24px;}
	.st8{stroke:#ED185E;stroke-width:4;stroke-miterlimit:10;}
	.st9{stroke:#804098;stroke-width:4;stroke-miterlimit:10;}
	.st10{stroke:#F16623;stroke-width:4;stroke-miterlimit:10;}
	.st11{fill:#231F20;stroke:#FEDE10;stroke-width:4;stroke-miterlimit:10;}
	.st12{stroke:#00A14A;stroke-width:4;stroke-miterlimit:10;}
	.st13{fill:none;}
	.st14{font-family:'CaslonsEgyptian-Medium';}
	.st15{font-size:72px;}
	.st16{fill:#5CC9E0;}
	.st17{fill:#231F20;stroke:#231F20;stroke-width:0.75;stroke-miterlimit:10;}
	.st18{fill:none;stroke:#000000;stroke-miterlimit:10;}
	.st19{stroke:#000000;stroke-width:0.5;stroke-miterlimit:10;}
</style>
<g id="Layer_632">
</g>
<g id="Layer_631">
</g>
<g id="Layer_630">
</g>
<g id="Layer_629">
</g>
<g id="Layer_628">
</g>
<g id="Layer_627">
</g>
<g id="Layer_626">
</g>
<g id="Layer_625">
</g>
<g id="Layer_624">
</g>
<g id="Layer_623">
</g>
<g id="Layer_622">
</g>
<g id="Layer_621">
</g>
<g id="Layer_620">
</g>
<g id="Layer_619">
</g>
<g id="Layer_618">
</g>
<g id="Layer_617">
</g>
<g id="Layer_616">
</g>
<g id="Layer_615">
</g>
<g id="Layer_614">
</g>
<g id="Layer_613">
</g>
<g id="Layer_612">
</g>
<g id="Layer_611">
</g>
<g id="Layer_610">
</g>
<g id="Layer_609">
</g>
<g id="Layer_608">
</g>
<g id="Layer_607">
</g>
<g id="Layer_606">
</g>
<g id="Layer_605">
</g>
<g id="Layer_604">
</g>
<g id="Layer_603">
</g>
<g id="Layer_602">
</g>
<g id="Layer_601">
</g>
<g id="Layer_600">
</g>
<g id="Layer_599">
</g>
<g id="Layer_598">
</g>
<g id="Layer_597">
</g>
<g id="Layer_596">
</g>
<g id="Layer_595">
</g>
<g id="Layer_594">
</g>
<g id="Layer_593">
</g>
<g id="Layer_592">
</g>
<g id="Layer_591">
</g>
<g id="Layer_590">
</g>
<g id="Layer_589">
</g>
<g id="Layer_588">
</g>
<g id="Layer_587">
</g>
<g id="Layer_586">
</g>
<g id="Layer_585">
</g>
<g id="Layer_584">
</g>
<g id="Layer_583">
</g>
<g id="Layer_582">
</g>
<g id="Layer_581">
</g>
<g id="Layer_580">
</g>
<g id="Layer_579">
</g>
<g id="Layer_578">
</g>
<g id="Layer_577">
</g>
<g id="Layer_576">
</g>
<g id="Layer_575">
</g>
<g id="Layer_574">
</g>
<g id="Layer_573">
</g>
<g id="Layer_572">
</g>
<g id="Layer_571">
</g>
<g id="Layer_570">
</g>
<g id="Layer_569">
</g>
<g id="Layer_568">
</g>
<g id="Layer_567">
	<polyline class="st4" points="113.92,964.06 1757.33,964.06 1757.33,963.06 113.92,963.06 	"/>
</g>
<g id="Layer_566">
	<polyline class="st4" points="114.42,963.56 114.42,941.57 113.42,941.57 113.42,963.56 	"/>
</g>
<g id="Layer_565">
	<polyline class="st4" points="231.81,963.56 231.81,941.57 230.81,941.57 230.81,963.56 	"/>
</g>
<g id="Layer_564">
	<polyline class="st4" points="349.19,963.56 349.19,941.57 348.19,941.57 348.19,963.56 	"/>
</g>
<g id="Layer_563">
	<polyline class="st4" points="466.58,963.56 466.58,941.57 465.58,941.57 465.58,963.56 	"/>
</g>
<g id="Layer_562">
	<polyline class="st4" points="583.96,963.56 583.96,941.57 582.96,941.57 582.96,963.56 	"/>
</g>
<g id="Layer_561">
	<polyline class="st4" points="701.35,963.56 701.35,941.57 700.35,941.57 700.35,963.56 	"/>
</g>
<g id="Layer_560">
	<polyline class="st4" points="818.74,963.56 818.74,941.57 817.74,941.57 817.74,963.56 	"/>
</g>
<g id="Layer_559">
	<polyline class="st4" points="936.12,963.56 936.12,941.57 935.12,941.57 935.12,963.56 	"/>
</g>
<g id="Layer_558">
	<polyline class="st4" points="1053.51,963.56 1053.51,941.57 1052.51,941.57 1052.51,963.56 	"/>
</g>
<g id="Layer_557">
	<polyline class="st4" points="1170.9,963.56 1170.9,941.57 1169.9,941.57 1169.9,963.56 	"/>
</g>
<g id="Layer_556">
	<polyline class="st4" points="1288.28,963.56 1288.28,941.57 1287.28,941.57 1287.28,963.56 	"/>
</g>
<g id="Layer_555">
	<polyline class="st4" points="1405.67,963.56 1405.67,941.57 1404.67,941.57 1404.67,963.56 	"/>
</g>
<g id="Layer_554">
	<polyline class="st4" points="1523.06,963.56 1523.06,941.57 1522.06,941.57 1522.06,963.56 	"/>
</g>
<g id="Layer_553">
	<polyline class="st4" points="1640.44,963.56 1640.44,941.57 1639.44,941.57 1639.44,963.56 	"/>
</g>
<g id="Layer_552">
	<polyline class="st4" points="1757.83,963.56 1757.83,941.57 1756.83,941.57 1756.83,963.56 	"/>
</g>
<g id="Layer_551">
	<text transform="matrix(1 0 0 1 65.4302 861.7374)" class="st4 st6 st7">1</text>
</g>
<g id="Layer_550">
	<text transform="matrix(1 0 0 1 65.4312 751.7862)" class="st4 st6 st7">2</text>
</g>
<g id="Layer_549">
	<text transform="matrix(1 0 0 1 65.4312 641.834)" class="st4 st6 st7">3</text>
</g>
<g id="Layer_548">
	<text transform="matrix(1 0 0 1 65.4307 531.8819)" class="st4 st6 st7">4</text>
</g>
<g id="Layer_547">
	<text transform="matrix(1 0 0 1 65.4316 421.9308)" class="st4 st6 st7">5</text>
</g>
<g id="Layer_546">
	<text transform="matrix(1 0 0 1 65.4316 311.9786)" class="st4 st6 st7">6</text>
</g>
<g id="Layer_545">
	<text transform="matrix(1 0 0 1 68.667 202.0265)" class="st4 st6 st7">7</text>
</g>
<g id="Layer_544">
	<text transform="matrix(1 0 0 1 68.6675 92.0753)" class="st4 st6 st7">8</text>
</g>
<g id="Layer_543">
	<polyline class="st4" points="114.42,963.56 114.42,83.94 113.42,83.94 113.42,963.56 	"/>
</g>
<g id="Layer_542">
	<polyline class="st4" points="113.92,964.06 155,964.06 155,963.06 113.92,963.06 	"/>
</g>
<g id="Layer_541">
	<polyline class="st4" points="113.92,854.1 155,854.1 155,853.1 113.92,853.1 	"/>
</g>
<g id="Layer_540">
	<polyline class="st4" points="113.92,744.15 155,744.15 155,743.15 113.92,743.15 	"/>
</g>
<g id="Layer_539">
	<polyline class="st4" points="113.92,634.2 155,634.2 155,633.2 113.92,633.2 	"/>
</g>
<g id="Layer_538">
	<polyline class="st4" points="113.92,524.25 155,524.25 155,523.25 113.92,523.25 	"/>
</g>
<g id="Layer_537">
	<polyline class="st4" points="113.92,414.3 155,414.3 155,413.3 113.92,413.3 	"/>
</g>
<g id="Layer_536">
	<polyline class="st4" points="113.92,304.35 155,304.35 155,303.35 113.92,303.35 	"/>
</g>
<g id="Layer_535">
	<polyline class="st4" points="113.92,194.39 155,194.39 155,193.39 113.92,193.39 	"/>
</g>
<g id="Layer_534">
	<polyline class="st4" points="113.92,84.44 155,84.44 155,83.44 113.92,83.44 	"/>
</g>
<g id="Layer_533">
	<rect x="130.35" y="193.89" class="st4" width="84.52" height="769.66"/>
</g>
<g id="Layer_532">
	<polygon class="st4" points="130.35,193.89 130.35,194.14 214.62,194.14 214.62,963.31 130.6,963.31 130.6,193.89 130.35,193.89 
		130.35,194.14 130.35,193.89 130.1,193.89 130.1,963.81 215.12,963.81 215.12,193.64 130.1,193.64 130.1,193.89 	"/>
</g>
<g id="Layer_531">
	<rect x="247.74" y="303.85" class="st4" width="84.52" height="659.71"/>
</g>
<g id="Layer_530">
	<polygon class="st4" points="247.74,303.85 247.74,304.1 332.01,304.1 332.01,963.31 247.99,963.31 247.99,303.85 247.74,303.85 
		247.74,304.1 247.74,303.85 247.49,303.85 247.49,963.81 332.51,963.81 332.51,303.6 247.49,303.6 247.49,303.85 	"/>
</g>
<g id="Layer_529">
	<rect x="365.13" y="413.8" class="st4" width="84.52" height="549.76"/>
</g>
<g id="Layer_528">
	<polygon class="st4" points="365.13,413.8 365.13,414.05 449.39,414.05 449.39,963.31 365.38,963.31 365.38,413.8 365.13,413.8 
		365.13,414.05 365.13,413.8 364.88,413.8 364.88,963.81 449.89,963.81 449.89,413.55 364.88,413.55 364.88,413.8 	"/>
</g>
<g id="Layer_527">
	<rect x="482.51" y="413.8" class="st4" width="84.52" height="549.76"/>
</g>
<g id="Layer_526">
	<polygon class="st4" points="482.51,413.8 482.51,414.05 566.78,414.05 566.78,963.31 482.76,963.31 482.76,413.8 482.51,413.8 
		482.51,414.05 482.51,413.8 482.26,413.8 482.26,963.81 567.28,963.81 567.28,413.55 482.26,413.55 482.26,413.8 	"/>
</g>
<g id="Layer_525">
	<rect x="599.9" y="413.8" class="st4" width="84.52" height="549.76"/>
</g>
<g id="Layer_524">
	<polygon class="st4" points="599.9,413.8 599.9,414.05 684.17,414.05 684.17,963.31 600.15,963.31 600.15,413.8 599.9,413.8 
		599.9,414.05 599.9,413.8 599.65,413.8 599.65,963.81 684.67,963.81 684.67,413.55 599.65,413.55 599.65,413.8 	"/>
</g>
<g id="Layer_523">
	<rect x="717.29" y="413.8" class="st4" width="84.52" height="549.76"/>
</g>
<g id="Layer_522">
	<polygon class="st4" points="717.29,413.8 717.29,414.05 801.55,414.05 801.55,963.31 717.54,963.31 717.53,413.8 717.29,413.8 
		717.29,414.05 717.29,413.8 717.04,413.8 717.04,963.81 802.05,963.81 802.05,413.55 717.04,413.55 717.04,413.8 	"/>
</g>
<g id="Layer_521">
	<rect x="834.67" y="413.8" class="st4" width="84.52" height="549.76"/>
</g>
<g id="Layer_520">
	<polygon class="st4" points="834.67,413.8 834.67,414.05 918.94,414.05 918.94,963.31 834.92,963.31 834.92,413.8 834.67,413.8 
		834.67,414.05 834.67,413.8 834.42,413.8 834.42,963.81 919.44,963.81 919.44,413.55 834.42,413.55 834.42,413.8 	"/>
</g>
<g id="Layer_519">
	<rect x="952.06" y="523.75" class="st4" width="84.52" height="439.81"/>
</g>
<g id="Layer_518">
	<polygon class="st4" points="952.06,523.75 952.06,524 1036.33,524 1036.33,963.31 952.31,963.31 952.31,523.75 952.06,523.75 
		952.06,524 952.06,523.75 951.81,523.75 951.81,963.81 1036.83,963.81 1036.83,523.5 951.81,523.5 951.81,523.75 	"/>
</g>
<g id="Layer_517">
	<rect x="1069.44" y="523.75" class="st4" width="84.52" height="439.81"/>
</g>
<g id="Layer_516">
	<polygon class="st4" points="1069.44,523.75 1069.44,524 1153.71,524 1153.71,963.31 1069.69,963.31 1069.69,523.75 
		1069.44,523.75 1069.44,524 1069.44,523.75 1069.19,523.75 1069.19,963.81 1154.21,963.81 1154.21,523.5 1069.19,523.5 
		1069.19,523.75 	"/>
</g>
<g id="Layer_515">
	<rect x="1186.83" y="633.7" class="st4" width="84.52" height="329.85"/>
</g>
<g id="Layer_514">
	<polygon class="st4" points="1186.83,633.7 1186.83,633.95 1271.1,633.95 1271.1,963.31 1187.08,963.31 1187.08,633.7 
		1186.83,633.7 1186.83,633.95 1186.83,633.7 1186.58,633.7 1186.58,963.81 1271.6,963.81 1271.6,633.45 1186.58,633.45 
		1186.58,633.7 	"/>
</g>
<g id="Layer_513">
	<rect x="1304.22" y="743.65" class="st4" width="84.52" height="219.9"/>
</g>
<g id="Layer_512">
	<polygon class="st4" points="1304.22,743.65 1304.22,743.9 1388.48,743.9 1388.48,963.31 1304.47,963.31 1304.47,743.65 
		1304.22,743.65 1304.22,743.9 1304.22,743.65 1303.97,743.65 1303.97,963.81 1388.98,963.81 1388.98,743.4 1303.97,743.4 
		1303.97,743.65 	"/>
</g>
<g id="Layer_511">
	<rect x="1421.6" y="743.65" class="st4" width="84.52" height="219.9"/>
</g>
<g id="Layer_510">
	<polygon class="st4" points="1421.6,743.65 1421.6,743.9 1505.87,743.9 1505.87,963.31 1421.85,963.31 1421.85,743.65 
		1421.6,743.65 1421.6,743.9 1421.6,743.65 1421.35,743.65 1421.35,963.81 1506.37,963.81 1506.37,743.4 1421.35,743.4 
		1421.35,743.65 	"/>
</g>
<g id="Layer_509">
	<rect x="1538.99" y="853.6" class="st4" width="84.52" height="109.95"/>
</g>
<g id="Layer_508">
	<polygon class="st4" points="1538.99,853.6 1538.99,853.85 1623.26,853.85 1623.26,963.31 1539.24,963.31 1539.24,853.6 
		1538.99,853.6 1538.99,853.85 1538.99,853.6 1538.74,853.6 1538.74,963.81 1623.76,963.81 1623.76,853.35 1538.74,853.35 
		1538.74,853.6 	"/>
</g>
<g id="Layer_507">
	<rect x="1656.38" y="853.6" class="st4" width="84.52" height="109.95"/>
</g>
<g id="Layer_506">
	<polygon class="st4" points="1656.38,853.6 1656.38,853.85 1740.64,853.85 1740.64,963.31 1656.63,963.31 1656.63,853.6 
		1656.38,853.6 1656.38,853.85 1656.38,853.6 1656.13,853.6 1656.13,963.81 1741.14,963.81 1741.14,853.35 1656.13,853.35 
		1656.13,853.6 	"/>
</g>
<g id="Layer_505">
	<text transform="matrix(1 0 0 1 1388.7352 71.7219)"><tspan x="0" y="0" class="st6 st7">Sting</tspan><tspan x="0" y="27" class="st6 st7">Wings &amp; Paul McCartney</tspan><tspan x="0" y="54" class="st6 st7">Ringo Starr</tspan><tspan x="0" y="81" class="st6 st7">Paul Simon</tspan><tspan x="0" y="108" class="st6 st7">Paul McCartney</tspan><tspan x="0" y="135" class="st6 st7">Kenny Logins</tspan><tspan x="0" y="162" class="st6 st7">John Lennon</tspan><tspan x="0" y="189" class="st6 st7">George Harrison</tspan><tspan x="0" y="216" class="st6 st7">Don Henley</tspan><tspan x="0" y="243" class="st6 st7">Stevie Nicks</tspan><tspan x="0" y="270" class="st6 st7">Joe Walsh</tspan><tspan x="0" y="297" class="st6 st7">Glenn Frey</tspan><tspan x="0" y="324" class="st6 st7">Lindsey Buckingham</tspan></text>
</g>
<g id="Layer_504">
	<rect x="1303.21" y="55.7" class="st8" width="75.13" height="14.18"/>
</g>
<g id="Layer_503">
	<rect x="1303.21" y="82.79" class="st9" width="75.13" height="14.18"/>
</g>
<g id="Layer_502">
	<rect x="1303.21" y="109.87" class="st10" width="75.13" height="14.18"/>
</g>
<g id="Layer_501">
	<rect x="1303.21" y="136.95" class="st11" width="75.13" height="14.18"/>
</g>
<g id="Layer_500">
	<rect x="1303.21" y="164.03" class="st12" width="75.13" height="14.18"/>
</g>
<g id="Layer_499">
	<rect x="1303.21" y="191.11" class="st12" width="75.13" height="14.18"/>
</g>
<g id="Layer_498">
	<rect x="1303.21" y="218.2" class="st12" width="75.13" height="14.18"/>
</g>
<g id="Layer_497">
	<rect x="1303.21" y="245.28" class="st12" width="75.13" height="14.18"/>
</g>
<g id="Layer_496">
	<rect x="1303.21" y="272.36" class="st12" width="75.13" height="14.18"/>
</g>
<g id="Layer_495">
	<rect x="1303.21" y="299.44" class="st12" width="75.13" height="14.18"/>
</g>
<g id="Layer_494">
	<rect x="1303.21" y="326.52" class="st12" width="75.13" height="14.18"/>
</g>
<g id="Layer_493">
	<rect x="1303.21" y="353.61" class="st12" width="75.13" height="14.18"/>
</g>
<g id="Layer_492">
	<rect x="1303.21" y="380.69" class="st12" width="75.13" height="14.18"/>
</g>
<g id="Layer_491">
</g>
<g id="Layer_490">
</g>
<g id="Layer_489">
</g>
<g id="Layer_488">
	<rect x="288.98" y="71.72" class="st13" width="901.69" height="169.49"/>
	<text transform="matrix(1 0 0 1 288.9753 122.6253)" class="st14 st15">Solo Career Overview</text>
</g>
<g id="Layer_487">
</g>
<g id="Layer_486">
</g>
<g id="Layer_485">
</g>
<g id="Layer_484">
</g>
<g id="Layer_483">
</g>
<g id="Layer_482">
</g>
<g id="Layer_481">
</g>
<g id="Layer_480">
</g>
<g id="Layer_479">
</g>
<g id="Layer_478">
</g>
<g id="Layer_477">
</g>
<g id="Layer_476">
</g>
<g id="Layer_475">
</g>
<g id="Layer_474">
</g>
<g id="Layer_473">
</g>
<g id="Layer_472">
</g>
<g id="Layer_471">
</g>
<g id="Layer_470">
</g>
<g id="Layer_469">
</g>
<g id="Layer_468">
</g>
<g id="Layer_467">
</g>
<g id="Layer_466">
</g>
<g id="Layer_465">
</g>
<g id="Layer_464">
</g>
<g id="Layer_463">
</g>
<g id="Layer_462">
</g>
<g id="Layer_461">
</g>
<g id="Layer_460">
</g>
<g id="Layer_459">
</g>
<g id="Layer_458">
</g>
<g id="Layer_457">
</g>
<g id="Layer_456">
</g>
<g id="Layer_455">
</g>
<g id="Layer_454">
</g>
<g id="Layer_453">
</g>
<g id="Layer_452">
</g>
<g id="Layer_451">
</g>
<g id="Layer_450">
</g>
<g id="Layer_449">
</g>
<g id="Layer_448">
</g>
<g id="Layer_447">
</g>
<g id="Layer_446">
</g>
<g id="Layer_445">
</g>
<g id="Layer_444">
</g>
<g id="Layer_443">
</g>
<g id="Layer_442">
</g>
<g id="Layer_441">
</g>
<g id="Layer_440">
</g>
<g id="Layer_439">
</g>
<g id="Layer_438">
</g>
<g id="Layer_437">
</g>
<g id="Layer_436">
</g>
<g id="Layer_435">
</g>
<g id="Layer_434">
</g>
<g id="Layer_433">
</g>
<g id="Layer_432">
</g>
<g id="Layer_431">
</g>
<g id="Layer_430">
</g>
<g id="Layer_429">
</g>
<g id="Layer_428">
</g>
<g id="Layer_427">
</g>
<g id="Layer_426">
</g>
<g id="Layer_425">
</g>
<g id="Layer_424">
</g>
<g id="Layer_423">
</g>
<g id="Layer_422">
</g>
<g id="Layer_421">
</g>
<g id="Layer_420">
</g>
<g id="Layer_419">
</g>
<g id="Layer_418">
</g>
<g id="Layer_417">
</g>
<g id="Layer_416">
</g>
<g id="Layer_415">
</g>
<g id="Layer_414">
</g>
<g id="Layer_413">
</g>
<g id="Layer_412">
</g>
<g id="Layer_411">
</g>
<g id="Layer_410">
</g>
<g id="Layer_409">
</g>
<g id="Layer_408">
</g>
<g id="Layer_407">
</g>
<g id="Layer_406">
</g>
<g id="Layer_405">
</g>
<g id="Layer_404">
</g>
<g id="Layer_403">
</g>
<g id="Layer_402">
</g>
<g id="Layer_401">
</g>
<g id="Layer_400">
</g>
<g id="Layer_399">
</g>
<g id="Layer_398">
</g>
<g id="Layer_397">
</g>
<g id="Layer_396">
</g>
<g id="Layer_395">
</g>
<g id="Layer_394">
</g>
<g id="Layer_393">
</g>
<g id="Layer_392">
</g>
<g id="Layer_391">
</g>
<g id="Layer_390">
</g>
<g id="Layer_389">
</g>
<g id="Layer_388">
</g>
<g id="Layer_387">
</g>
<g id="Layer_386">
</g>
<g id="Layer_385">
</g>
<g id="Layer_384">
</g>
<g id="Layer_383">
</g>
<g id="Layer_382">
</g>
<g id="Layer_381">
</g>
<g id="Layer_380">
</g>
<g id="Layer_379">
</g>
<g id="Layer_378">
</g>
<g id="Layer_377">
</g>
<g id="Layer_376">
</g>
<g id="Layer_375">
</g>
<g id="Layer_374">
</g>
<g id="Layer_373">
</g>
<g id="Layer_372">
</g>
<g id="Layer_371">
</g>
<g id="Layer_370">
</g>
<g id="Layer_369">
</g>
<g id="Layer_368">
</g>
<g id="Layer_367">
</g>
<g id="Layer_366">
</g>
<g id="Layer_365">
</g>
<g id="Layer_364">
</g>
<g id="Layer_363">
</g>
<g id="Layer_362">
</g>
<g id="Layer_361">
</g>
<g id="Layer_360">
</g>
<g id="Layer_359">
</g>
<g id="Layer_358">
</g>
<g id="Layer_357">
</g>
<g id="Layer_356">
</g>
<g id="Layer_355">
</g>
<g id="Layer_354">
</g>
<g id="Layer_353">
</g>
<g id="Layer_352">
</g>
<g id="Layer_351">
</g>
<g id="Layer_350">
</g>
<g id="Layer_349">
</g>
<g id="Layer_348">
</g>
<g id="Layer_347">
</g>
<g id="Layer_346">
</g>
<g id="Layer_345">
</g>
<g id="Layer_344">
</g>
<g id="Layer_343">
</g>
<g id="Layer_342">
</g>
<g id="Layer_341">
</g>
<g id="Layer_340">
</g>
<g id="Layer_339">
</g>
<g id="Layer_338">
</g>
<g id="Layer_337">
</g>
<g id="Layer_336">
</g>
<g id="Layer_335">
</g>
<g id="Layer_334">
</g>
<g id="Layer_333">
</g>
<g id="Layer_332">
</g>
<g id="Layer_331">
</g>
<g id="Layer_330">
</g>
<g id="Layer_329">
</g>
<g id="Layer_328">
</g>
<g id="Layer_327">
</g>
<g id="Layer_326">
</g>
<g id="Layer_325">
</g>
<g id="Layer_324">
</g>
<g id="Layer_323">
</g>
<g id="Layer_322">
</g>
<g id="Layer_321">
</g>
<g id="Layer_320">
</g>
<g id="Layer_319">
</g>
<g id="Layer_318">
</g>
<g id="Layer_317">
</g>
<g id="Layer_316">
</g>
<g id="Layer_315">
</g>
<g id="Layer_314">
</g>
<g id="Layer_313">
</g>
<g id="Layer_312">
</g>
<g id="Layer_311">
</g>
<g id="Layer_310">
</g>
<g id="Layer_309">
</g>
<g id="Layer_308">
</g>
<g id="Layer_307">
</g>
<g id="Layer_306">
</g>
<g id="Layer_305">
</g>
<g id="Layer_304">
</g>
<g id="Layer_303">
</g>
<g id="Layer_302">
</g>
<g id="Layer_301">
</g>
<g id="Layer_300">
</g>
<g id="Layer_299">
</g>
<g id="Layer_298">
</g>
<g id="Layer_297">
</g>
<g id="Layer_296">
</g>
<g id="Layer_295">
</g>
<g id="Layer_294">
</g>
<g id="Layer_293">
</g>
<g id="Layer_292">
</g>
<g id="Layer_291">
</g>
<g id="Layer_290">
</g>
<g id="Layer_289">
</g>
<g id="Layer_288">
</g>
<g id="Layer_287">
</g>
<g id="Layer_286">
</g>
<g id="Layer_285">
</g>
<g id="Layer_284">
</g>
<g id="Layer_283">
</g>
<g id="Layer_282">
</g>
<g id="Layer_281">
</g>
<g id="Layer_280">
</g>
<g id="Layer_279">
</g>
<g id="Layer_278">
</g>
<g id="Layer_277">
</g>
<g id="Layer_276">
</g>
<g id="Layer_275">
</g>
<g id="Layer_274">
</g>
<g id="Layer_273">
</g>
<g id="Layer_272">
</g>
<g id="Layer_271">
</g>
<g id="Layer_270">
</g>
<g id="Layer_269">
</g>
<g id="Layer_268">
</g>
<g id="Layer_267">
</g>
<g id="Layer_266">
</g>
<g id="Layer_265">
</g>
<g id="Layer_264">
</g>
<g id="Layer_263">
</g>
<g id="Layer_262">
</g>
<g id="Layer_261">
</g>
<g id="Layer_260">
</g>
<g id="Layer_259">
</g>
<g id="Layer_258">
</g>
<g id="Layer_257">
</g>
<g id="Layer_256">
</g>
<g id="Layer_255">
</g>
<g id="Layer_254">
</g>
<g id="Layer_253">
</g>
<g id="Layer_252">
</g>
<g id="Layer_251">
</g>
<g id="Layer_250">
</g>
<g id="Layer_249">
</g>
<g id="Layer_248">
</g>
<g id="Layer_247">
</g>
<g id="Layer_246">
</g>
<g id="Layer_245">
</g>
<g id="Layer_244">
</g>
<g id="Layer_243">
</g>
<g id="Layer_242">
</g>
<g id="Layer_241">
</g>
<g id="Layer_240">
</g>
<g id="Layer_239">
</g>
<g id="Layer_238">
</g>
<g id="Layer_237">
</g>
<g id="Layer_236">
</g>
<g id="Layer_235">
</g>
<g id="Layer_234">
</g>
<g id="Layer_233">
</g>
<g id="Layer_232">
</g>
<g id="Layer_231">
</g>
<g id="Layer_230">
</g>
<g id="Layer_229">
</g>
<g id="Layer_228">
</g>
<g id="Layer_227">
</g>
<g id="Layer_226">
</g>
<g id="Layer_225">
</g>
<g id="Layer_224">
</g>
<g id="Layer_223">
</g>
<g id="Layer_222">
</g>
<g id="Layer_221">
</g>
<g id="Layer_220">
</g>
<g id="Layer_219">
</g>
<g id="Layer_218">
</g>
<g id="Layer_217">
</g>
<g id="Layer_216">
</g>
<g id="Layer_215">
</g>
<g id="Layer_214">
</g>
<g id="Layer_213">
</g>
<g id="Layer_212">
</g>
<g id="Layer_211">
</g>
<g id="Layer_210">
</g>
<g id="Layer_209">
</g>
<g id="Layer_208">
</g>
<g id="Layer_207">
</g>
<g id="Layer_206">
</g>
<g id="Layer_205">
</g>
<g id="Layer_204">
</g>
<g id="Layer_203">
</g>
<g id="Layer_202">
</g>
<g id="Layer_201">
</g>
<g id="Layer_200">
</g>
<g id="Layer_199">
</g>
<g id="Layer_198">
</g>
<g id="Layer_197">
</g>
<g id="Layer_196">
</g>
<g id="Layer_195">
</g>
<g id="Layer_194">
</g>
<g id="Layer_193">
</g>
<g id="Layer_192">
</g>
<g id="Layer_191">
</g>
<g id="Layer_190">
</g>
<g id="Layer_189">
</g>
<g id="Layer_188">
</g>
<g id="Layer_187">
</g>
<g id="Layer_186">
</g>
<g id="Layer_185">
</g>
<g id="Layer_184">
</g>
<g id="Layer_183">
</g>
<g id="Layer_182">
</g>
<g id="Layer_181">
</g>
<g id="Layer_180">
</g>
<g id="Layer_179">
</g>
<g id="Layer_178">
</g>
<g id="Layer_177">
</g>
<g id="Layer_176">
</g>
<g id="Layer_175">
</g>
<g id="Layer_174">
</g>
<g id="Layer_173">
</g>
<g id="Layer_172">
</g>
<g id="Layer_171">
</g>
<g id="Layer_170">
</g>
<g id="Layer_169">
</g>
<g id="Layer_168">
</g>
<g id="Layer_167">
</g>
<g id="Layer_166">
</g>
<g id="Layer_165">
</g>
<g id="Layer_164">
</g>
<g id="Layer_163">
</g>
<g id="Layer_162">
</g>
<g id="Layer_161">
</g>
<g id="Layer_160">
</g>
<g id="Layer_159">
</g>
<g id="Layer_158">
</g>
<g id="Layer_157">
</g>
<g id="Layer_156">
</g>
<g id="Layer_155">
</g>
<g id="Layer_154">
</g>
<g id="Layer_153">
</g>
<g id="Layer_152">
</g>
<g id="Layer_151">
</g>
<g id="Layer_150">
</g>
<g id="Layer_149">
</g>
<g id="Layer_148">
</g>
<g id="Layer_147">
</g>
<g id="Layer_146">
</g>
<g id="Layer_145">
</g>
<g id="Layer_144">
</g>
<g id="Layer_143">
</g>
<g id="Layer_142">
</g>
<g id="Layer_141">
</g>
<g id="Layer_140">
</g>
<g id="Layer_139">
</g>
<g id="Layer_138">
</g>
<g id="Layer_137">
</g>
<g id="Layer_136">
</g>
<g id="Layer_135">
</g>
<g id="Layer_134">
</g>
<g id="Layer_133">
</g>
<g id="Layer_132">
</g>
<g id="Layer_131">
</g>
<g id="Layer_130">
</g>
<g id="Layer_129">
</g>
<g id="Layer_128">
</g>
<g id="Layer_127">
</g>
<g id="Layer_126">
</g>
<g id="Layer_125">
</g>
<g id="Layer_124">
</g>
<g id="Layer_123">
</g>
<g id="Layer_122">
</g>
<g id="Layer_121">
</g>
<g id="Layer_120">
</g>
<g id="Layer_119">
</g>
<g id="Layer_118">
</g>
<g id="Layer_117">
</g>
<g id="Layer_116">
</g>
<g id="Layer_115">
</g>
<g id="Layer_114">
</g>
<g id="Layer_113">
</g>
<g id="Layer_112">
</g>
<g id="Layer_111">
</g>
<g id="Layer_110">
</g>
<g id="Layer_109">
</g>
<g id="Layer_108">
</g>
<g id="Layer_107">
</g>
<g id="Layer_106">
</g>
<g id="Layer_105">
</g>
<g id="Layer_104">
</g>
<g id="Layer_103">
</g>
<g id="Layer_102">
</g>
<g id="Layer_101">
</g>
<g id="Layer_100">
</g>
<g id="Layer_99">
</g>
<g id="Layer_98">
</g>
<g id="Layer_97">
</g>
<g id="Layer_96">
</g>
<g id="Layer_95">
</g>
<g id="Layer_94">
</g>
<g id="Layer_93">
</g>
<g id="Layer_92">
</g>
<g id="Layer_91">
</g>
<g id="Layer_90">
</g>
<g id="Layer_89">
</g>
<g id="Layer_88">
</g>
<g id="Layer_87">
</g>
<g id="Layer_86">
</g>
<g id="Layer_85">
</g>
<g id="Layer_84">
</g>
<g id="Layer_83">
</g>
<g id="Layer_82">
</g>
<g id="Layer_81">
</g>
<g id="Layer_80">
</g>
<g id="Layer_79">
</g>
<g id="Layer_78">
</g>
<g id="Layer_77">
</g>
<g id="Layer_76">
</g>
<g id="Layer_75">
</g>
<g id="Layer_74">
</g>
<g id="Layer_73">
</g>
<g id="Layer_72">
</g>
<g id="Layer_71">
</g>
<g id="Layer_70">
</g>
<g id="Layer_69">
</g>
<g id="Layer_68">
</g>
<g id="Layer_67">
</g>
<g id="Layer_66">
</g>
<g id="Layer_65">
</g>
<g id="Layer_64">
</g>
<g id="Layer_63">
</g>
<g id="Layer_62">
</g>
<g id="Layer_61">
</g>
<g id="Layer_60">
</g>
<g id="Layer_59">
</g>
<g id="Layer_58">
</g>
<g id="Layer_57">
</g>
<g id="Layer_56">
</g>
<g id="Layer_55">
</g>
<g id="Layer_54">
</g>
<g id="Layer_53">
</g>
<g id="Layer_52">
</g>
<g id="Layer_51">
</g>
<g id="Layer_50">
</g>
<g id="Layer_49">
</g>
<g id="Layer_48">
</g>
<g id="Layer_47">
</g>
<g id="Layer_46">
</g>
<g id="Layer_45">
</g>
<g id="Layer_44">
</g>
<g id="Layer_43">
</g>
<g id="Layer_42">
</g>
<g id="Layer_41">
</g>
<g id="Layer_40">
</g>
<g id="Layer_39">
</g>
<g id="Layer_38">
</g>
<g id="Layer_37">
</g>
<g id="Layer_36">
</g>
<g id="Layer_35">
</g>
<g id="Layer_34">
</g>
<g id="Layer_33">
</g>
<g id="Layer_32">
</g>
<g id="Layer_31">
</g>
<g id="Layer_30">
</g>
<g id="Layer_29">
</g>
<g id="Layer_28">
</g>
<g id="Layer_27">
</g>
<g id="Layer_26">
</g>
<g id="Layer_25">
</g>
<g id="Layer_24">
</g>
<g id="Layer_23">
</g>
<g id="Layer_22">
</g>
<g id="Layer_21">
</g>
<g id="Layer_20">
</g>
<g id="Layer_19">
</g>
<g id="Layer_18">
</g>
<g id="Layer_17">
</g>
<g id="Layer_16">
</g>
<g id="Layer_15">
</g>
<g id="Layer_14">
</g>
<g id="Layer_13">
</g>
<g id="Layer_12">
</g>
<g id="Layer_11">
</g>
<g id="Layer_10">
</g>
<g id="Layer_9">
</g>
<g id="Layer_8">
</g>
<g id="Layer_7">
</g>
<g id="Layer_6">
</g>
<g id="Layer_5">
</g>
<g id="Layer_4">
</g>
<g id="Layer_3">
</g>
<g id="Layer_2">
</g>
</svg>
