<?xml version="1.0" encoding="utf-8"?>
<!-- Generator: Adobe Illustrator 24.0.1, SVG Export Plug-In . SVG Version: 6.00 Build 0)  -->
<svg version="1.1" id="Layer_1" xmlns="http://www.w3.org/2000/svg" xmlns:xlink="http://www.w3.org/1999/xlink" x="0px" y="0px"
	 viewBox="0 0 1920 1080" style="enable-background:new 0 0 1920 1080;" xml:space="preserve">
<style type="text/css">
	.st0{opacity:0.22;fill:#00A651;}
	.st1{opacity:0.28;fill:#ED1C24;}
	.st2{opacity:0.27;fill:#ED1C24;}
	.st3{opacity:0.27;fill:#00A651;}
	.st4{fill:#010101;}
	.st5{font-family:'CaslonsEgyptian-Medium';}
	.st6{font-size:72px;}
	.st7{font-family:'SourceCodePro-Regular';}
	.st8{font-size:23.9753px;}
	.st9{stroke:#000000;stroke-width:0.75;stroke-miterlimit:10;}
	.st10{stroke:#ED135D;stroke-width:4;stroke-miterlimit:10;}
	.st11{fill:none;}
	.st12{font-size:24.4789px;}
	.st13{font-size:24.48px;}
	.st14{font-size:24.441px;}
	.st15{stroke:#000000;stroke-miterlimit:10;}
	.st16{stroke:#D73F96;stroke-width:4;stroke-miterlimit:10;}
	.st17{stroke:#7F4098;stroke-width:4;stroke-miterlimit:10;}
	.st18{stroke:#00A24B;stroke-width:4;stroke-miterlimit:10;}
	.st19{fill:#010101;stroke:#ED135D;stroke-width:4;stroke-miterlimit:10;}
	.st20{fill:#010101;stroke:#7F4098;stroke-width:4;stroke-miterlimit:10;}
	.st21{fill:#010101;stroke:#F26522;stroke-width:4;stroke-miterlimit:10;}
	.st22{stroke:#FFDE17;stroke-width:4;stroke-miterlimit:10;}
	.st23{fill:#010101;stroke:#00A24B;stroke-width:4;stroke-miterlimit:10;}
	.st24{fill:#010101;stroke:#444A9F;stroke-width:4;stroke-miterlimit:10;}
	.st25{fill:#010101;stroke:#663092;stroke-width:4;stroke-miterlimit:10;}
	.st26{fill:#010101;stroke:#F18821;stroke-width:4;stroke-miterlimit:10;}
</style>
<rect x="2690.44" y="248.8" class="st0" width="32.66" height="264.1"/>
<polygon class="st1" points="3003.45,252.38 2970.79,252.38 2970.44,513.19 3003.09,513.19 "/>
<rect x="871.83" y="1504.37" class="st2" width="94.88" height="724.03"/>
<rect x="309.95" y="1503.57" class="st3" width="94.88" height="724.03"/>
<text transform="matrix(1 0 0 1 69.9982 123.8014)"><tspan x="0" y="0" class="st4 st5 st6">THE</tspan><tspan x="0" y="86.4" class="st4 st5 st6">POLICE</tspan></text>
<polyline points="219.6,1004.2 1728.36,1004.2 1728.36,1003.2 219.6,1003.2 "/>
<polyline points="220.1,1003.7 220.1,985.69 219.1,985.69 219.1,1003.7 "/>
<polyline points="308.85,1003.7 308.85,985.69 307.85,985.69 307.85,1003.7 "/>
<polyline points="397.6,1003.7 397.6,985.69 396.6,985.69 396.6,1003.7 "/>
<polyline points="486.35,1003.7 486.35,985.69 485.35,985.69 485.35,1003.7 "/>
<polyline points="575.1,1003.7 575.1,985.69 574.1,985.69 574.1,1003.7 "/>
<polyline points="663.85,1003.7 663.85,985.69 662.86,985.69 662.86,1003.7 "/>
<polyline points="752.6,1003.7 752.6,985.69 751.61,985.69 751.61,1003.7 "/>
<polyline points="841.36,1003.7 841.36,985.69 840.36,985.69 840.36,1003.7 "/>
<polyline points="930.11,1003.7 930.11,985.69 929.11,985.69 929.11,1003.7 "/>
<polyline points="1018.86,1003.7 1018.86,985.69 1017.86,985.69 1017.86,1003.7 "/>
<polyline points="1107.61,1003.7 1107.61,985.69 1106.61,985.69 1106.61,1003.7 "/>
<polyline points="1196.36,1003.7 1196.36,985.69 1195.36,985.69 1195.36,1003.7 "/>
<polyline points="1285.11,1003.7 1285.11,985.69 1284.11,985.69 1284.11,1003.7 "/>
<polyline points="1373.86,1003.7 1373.86,985.69 1372.86,985.69 1372.86,1003.7 "/>
<polyline points="1462.61,1003.7 1462.61,985.69 1461.61,985.69 1461.61,1003.7 "/>
<polyline points="1551.36,1003.7 1551.36,985.69 1550.36,985.69 1550.36,1003.7 "/>
<polyline points="1640.11,1003.7 1640.11,985.69 1639.11,985.69 1639.11,1003.7 "/>
<polyline points="1728.86,1003.7 1728.86,985.69 1727.86,985.69 1727.86,1003.7 "/>
<text transform="matrix(1 0 0 1 174.5107 653.6309)" class="st7 st8">1</text>
<text transform="matrix(1 0 0 1 174.5107 293.46)" class="st7 st8">2</text>
<polyline class="st9" points="220.1,1003.7 220.1,283.36 219.1,283.36 219.1,1003.7 "/>
<polyline points="219.6,1004.2 257.32,1004.2 257.32,1003.2 219.6,1003.2 "/>
<polyline points="219.6,644.03 257.32,644.03 257.32,643.03 219.6,643.03 "/>
<polyline points="219.6,283.86 257.32,283.86 257.32,282.86 219.6,282.86 "/>
<path d="M232.03,1003.7h63.9H232.03z"/>
<polygon points="232.03,1003.7 232.03,1003.95 295.93,1003.95 295.93,1003.45 232.03,1003.45 232.03,1003.95 232.03,1003.7 
	232.03,1003.95 295.93,1003.95 295.93,1003.45 232.03,1003.45 232.03,1003.95 "/>
<path d="M320.78,1003.7h63.9H320.78z"/>
<polygon points="320.78,1003.7 320.78,1003.95 384.68,1003.95 384.68,1003.45 320.78,1003.45 320.78,1003.95 320.78,1003.7 
	320.78,1003.95 384.68,1003.95 384.68,1003.45 320.78,1003.45 320.78,1003.95 "/>
<path d="M409.53,1003.7h63.9H409.53z"/>
<polygon points="409.53,1003.7 409.53,1003.95 473.43,1003.95 473.43,1003.45 409.53,1003.45 409.53,1003.95 409.53,1003.7 
	409.53,1003.95 473.43,1003.95 473.43,1003.45 409.53,1003.45 409.53,1003.95 "/>
<path d="M498.28,1003.7h63.9H498.28z"/>
<polygon points="498.28,1003.7 498.28,1003.95 562.18,1003.95 562.18,1003.45 498.28,1003.45 498.28,1003.95 498.28,1003.7 
	498.28,1003.95 562.18,1003.95 562.18,1003.45 498.28,1003.45 498.28,1003.95 "/>
<rect x="587.03" y="283.36" width="63.9" height="720.34"/>
<polygon points="587.03,283.36 587.03,283.61 650.68,283.61 650.68,1003.45 587.28,1003.45 587.28,283.36 587.03,283.36 
	587.03,283.61 587.03,283.36 586.78,283.36 586.78,1003.95 651.18,1003.95 651.18,283.11 586.78,283.11 586.78,283.36 "/>
<rect x="675.78" y="643.53" width="63.9" height="360.17"/>
<polygon points="675.78,643.53 675.78,643.78 739.43,643.78 739.43,1003.45 676.03,1003.45 676.03,643.53 675.78,643.53 
	675.78,643.78 675.78,643.53 675.53,643.53 675.53,1003.95 739.93,1003.95 739.93,643.28 675.53,643.28 675.53,643.53 "/>
<rect x="764.53" y="643.53" width="63.9" height="360.17"/>
<polygon points="764.53,643.53 764.53,643.78 828.18,643.78 828.18,1003.45 764.78,1003.45 764.78,643.53 764.53,643.53 
	764.53,643.78 764.53,643.53 764.28,643.53 764.28,1003.95 828.68,1003.95 828.68,643.28 764.28,643.28 764.28,643.53 "/>
<rect x="853.28" y="643.53" width="63.9" height="360.17"/>
<polygon points="853.28,643.53 853.28,643.78 916.93,643.78 916.93,1003.45 853.53,1003.45 853.53,643.53 853.28,643.53 
	853.28,643.78 853.28,643.53 853.03,643.53 853.03,1003.95 917.43,1003.95 917.43,643.28 853.03,643.28 853.03,643.53 "/>
<rect x="942.03" y="283.36" width="63.9" height="720.34"/>
<polygon points="942.03,283.36 942.03,283.61 1005.68,283.61 1005.68,1003.45 942.28,1003.45 942.28,283.36 942.03,283.36 
	942.03,283.61 942.03,283.36 941.78,283.36 941.78,1003.95 1006.18,1003.95 1006.18,283.11 941.78,283.11 941.78,283.36 "/>
<path d="M1030.78,1003.7h63.9H1030.78z"/>
<polygon points="1030.78,1003.7 1030.78,1003.95 1094.68,1003.95 1094.68,1003.45 1030.78,1003.45 1030.78,1003.95 1030.78,1003.7 
	1030.78,1003.95 1094.68,1003.95 1094.68,1003.45 1030.78,1003.45 1030.78,1003.95 "/>
<path d="M1119.53,1003.7h63.9H1119.53z"/>
<polygon points="1119.53,1003.7 1119.53,1003.95 1183.43,1003.95 1183.43,1003.45 1119.53,1003.45 1119.53,1003.95 1119.53,1003.7 
	1119.53,1003.95 1183.43,1003.95 1183.43,1003.45 1119.53,1003.45 1119.53,1003.95 "/>
<rect x="1208.28" y="641.06" onmouseover="updateTooltip('Sting&quot;)" class="st10" width="63.9" height="360.17"/>
<path d="M1297.03,1003.7h63.9H1297.03z"/>
<polygon points="1297.03,1003.7 1297.03,1003.95 1360.93,1003.95 1360.93,1003.45 1297.03,1003.45 1297.03,1003.95 1297.03,1003.7 
	1297.03,1003.95 1360.93,1003.95 1360.93,1003.45 1297.03,1003.45 1297.03,1003.95 "/>
<path d="M1385.78,1003.7h63.9H1385.78z"/>
<polygon points="1385.78,1003.7 1385.78,1003.95 1449.68,1003.95 1449.68,1003.45 1385.78,1003.45 1385.78,1003.95 1385.78,1003.7 
	1385.78,1003.95 1449.68,1003.95 1449.68,1003.45 1385.78,1003.45 1385.78,1003.95 "/>
<rect x="1474.53" y="641.05" class="st10" width="63.9" height="360.17"/>
<path d="M1563.28,1003.7h63.9H1563.28z"/>
<polygon points="1563.28,1003.7 1563.28,1003.95 1627.18,1003.95 1627.18,1003.45 1563.28,1003.45 1563.28,1003.95 1563.28,1003.7 
	1563.28,1003.95 1627.18,1003.95 1627.18,1003.45 1563.28,1003.45 1563.28,1003.95 "/>
<rect x="1652.03" y="280.8" class="st10" width="63.9" height="720.34"/>
<text transform="matrix(1 0 0 1 234.6284 1033.7861)" class="st4 st7 st8">1977</text>
<text transform="matrix(1 0 0 1 323.5845 1033.7861)" class="st4 st7 st8">1978</text>
<text transform="matrix(1 0 0 1 412.5425 1033.7783)" class="st4 st7 st8">1979</text>
<text transform="matrix(1 0 0 1 501.4995 1033.7783)" class="st4 st7 st8">1980</text>
<text transform="matrix(1 0 0 1 590.4565 1033.7832)" class="st4 st7 st8">1981</text>
<text transform="matrix(1 0 0 1 679.4136 1033.7832)" class="st4 st7 st8">1982</text>
<text transform="matrix(1 0 0 1 768.3716 1033.7832)" class="st4 st7 st8">1983</text>
<text transform="matrix(1 0 0 1 857.3276 1033.7822)" class="st4 st7 st8">1984</text>
<text transform="matrix(1 0 0 1 946.2847 1033.7812)" class="st4 st7 st8">1985</text>
<text transform="matrix(1 0 0 1 1035.2402 1033.7812)" class="st4 st7 st8">1986</text>
<text transform="matrix(1 0 0 1 1124.1973 1033.7812)" class="st4 st7 st8">1987</text>
<text transform="matrix(1 0 0 1 1213.1562 1033.7812)" class="st4 st7 st8">1988</text>
<text transform="matrix(1 0 0 1 1302.1113 1033.7803)" class="st4 st7 st8">1989</text>
<text transform="matrix(1 0 0 1 1391.0703 1033.7793)" class="st4 st7 st8">1990</text>
<text transform="matrix(1 0 0 1 1480.0254 1033.7793)" class="st4 st7 st8">1991</text>
<text transform="matrix(1 0 0 1 1568.9844 1033.7793)" class="st4 st7 st8">1992</text>
<text transform="matrix(1 0 0 1 1657.9414 1033.7783)" class="st4 st7 st8">1993</text>
<rect x="1018.86" y="282.86" class="st1" width="87.75" height="720.34"/>
<rect x="308.85" y="282.86" class="st0" width="87.75" height="720.84"/>
<polygon class="st11" points="248.28,229.46 250.45,229.46 250.45,229.46 248.28,229.46 "/>
<rect x="744.62" y="72.03" class="st11" width="368.97" height="143.94"/>
<text transform="matrix(1 0 0 1 744.6209 89.461)"><tspan x="0" y="0" class="st4 st7 st12">The Police began making </tspan><tspan x="0" y="31.62" class="st4 st7 st12">music in 1977 and </tspan><tspan x="0" y="63.24" class="st4 st7 st12">released their first </tspan><tspan x="0" y="94.86" class="st4 st7 st12">album Outlandos d&apos;Amour </tspan><tspan x="0" y="126.47" class="st4 st7 st12">in 1978</tspan></text>
<rect x="1104.7" y="73.35" class="st11" width="361.75" height="141.12"/>
<text transform="matrix(1 0 0 1 1104.7003 90.7805)"><tspan x="0" y="0" class="st4 st7 st13">The group split </tspan><tspan x="0" y="31" class="st4 st7 st13">officially in 1986, </tspan><tspan x="0" y="62" class="st4 st7 st13">while recording their </tspan><tspan x="0" y="93" class="st4 st7 st13">6th studio album</tspan></text>
<rect x="1442.98" y="72.05" class="st11" width="368.4" height="143.72"/>
<text transform="matrix(1 0 0 1 1442.9838 89.3792)"><tspan x="0" y="0" class="st4 st7 st14">Each member of the band </tspan><tspan x="0" y="31.57" class="st4 st7 st14">continues to make music, </tspan><tspan x="0" y="63.14" class="st4 st7 st14">Sting being the only one </tspan><tspan x="0" y="94.71" class="st4 st7 st14">who saw widespread </tspan><tspan x="0" y="126.28" class="st4 st7 st14">success</tspan></text>
<g>
	<text transform="matrix(1 0 0 1 1977.3027 188.0781)" class="st4 st7" style="font-size:26.7953px;">THE POLICE</text>
	<rect x="2200.26" y="245.66" class="st1" width="32.66" height="268.08"/>
	<rect x="2067.4" y="245.71" class="st0" width="32.66" height="268.26"/>
	<polyline points="2033.97,513.83 2594.97,513.83 2594.97,513.46 2033.97,513.46 	"/>
	<polyline points="2034.16,513.65 2034.16,507.02 2033.79,507.02 2033.79,513.65 	"/>
	<polyline points="2034.16,513.65 2034.16,248.46 2033.79,248.46 2033.79,513.65 	"/>
	<polyline points="2033.97,513.83 2048,513.83 2048,513.46 2033.97,513.46 	"/>
	<polyline points="2033.97,381.24 2048,381.24 2048,380.87 2033.97,380.87 	"/>
	<polyline points="2033.97,248.65 2048,248.65 2048,248.28 2033.97,248.28 	"/>
	<path class="st15" d="M2083.47,513.28h-33c-0.21,0-0.37,0.17-0.37,0.37c0,0.21,0.17,0.37,0.37,0.37h33c0.21,0,0.37-0.17,0.37-0.37
		C2083.85,513.44,2083.68,513.28,2083.47,513.28"/>
	<path class="st15" d="M2116.47,513.28h-33c-0.21,0-0.37,0.17-0.37,0.37c0,0.21,0.17,0.37,0.37,0.37h33c0.21,0,0.37-0.17,0.37-0.37
		C2116.84,513.44,2116.68,513.28,2116.47,513.28"/>
	<path class="st15" d="M2149.47,513.28h-33c-0.21,0-0.37,0.17-0.37,0.37c0,0.21,0.17,0.37,0.37,0.37h33c0.21,0,0.37-0.17,0.37-0.37
		C2149.84,513.44,2149.68,513.28,2149.47,513.28"/>
	<path class="st15" d="M2182.1,248.42l-33,265.18c-0.03,0.2,0.12,0.39,0.32,0.42c0.2,0.03,0.39-0.12,0.42-0.32l33-265.18
		c0.03-0.2-0.12-0.39-0.32-0.42C2182.31,248.07,2182.13,248.21,2182.1,248.42"/>
	<path class="st15" d="M2215.83,380.97l-33-132.59c-0.05-0.2-0.25-0.32-0.45-0.27s-0.32,0.25-0.27,0.45l33,132.59
		c0.05,0.2,0.25,0.32,0.45,0.27C2215.76,381.37,2215.88,381.17,2215.83,380.97"/>
	<path class="st15" d="M2248.47,380.68h-33c-0.21,0-0.37,0.17-0.37,0.37s0.17,0.37,0.37,0.37h33c0.21,0,0.37-0.17,0.37-0.37
		S2248.68,380.68,2248.47,380.68"/>
	<path class="st15" d="M2281.47,380.68h-33c-0.21,0-0.37,0.17-0.37,0.37s0.17,0.37,0.37,0.37h33c0.21,0,0.37-0.17,0.37-0.37
		S2281.68,380.68,2281.47,380.68"/>
	<path class="st15" d="M2314.11,248.37l-33,132.59c-0.05,0.2,0.07,0.4,0.27,0.45c0.2,0.05,0.4-0.07,0.45-0.27l33-132.59
		c0.05-0.2-0.07-0.4-0.27-0.45S2314.16,248.17,2314.11,248.37"/>
	<path class="st15" d="M2347.84,513.6l-33-265.18c-0.03-0.2-0.21-0.35-0.42-0.32c-0.2,0.03-0.35,0.21-0.32,0.42l33,265.18
		c0.03,0.2,0.21,0.35,0.42,0.32C2347.72,513.99,2347.86,513.81,2347.84,513.6"/>
	<path d="M2380.47,513.28h-33c-0.21,0-0.37,0.17-0.37,0.37c0,0.21,0.17,0.37,0.37,0.37h33c0.21,0,0.37-0.17,0.37-0.37
		C2380.84,513.44,2380.67,513.28,2380.47,513.28"/>
	<path class="st15" d="M2413.11,380.97l-33,132.59c-0.05,0.2,0.07,0.4,0.27,0.45c0.2,0.05,0.4-0.07,0.45-0.27l33-132.59
		c0.05-0.2-0.07-0.4-0.27-0.45S2413.16,380.77,2413.11,380.97"/>
	<path class="st15" d="M2446.83,513.56l-33-132.59c-0.05-0.2-0.25-0.32-0.45-0.27s-0.32,0.25-0.27,0.45l33,132.59
		c0.05,0.2,0.25,0.32,0.45,0.27C2446.76,513.96,2446.88,513.76,2446.83,513.56"/>
	<path class="st15" d="M2479.47,513.28h-33c-0.21,0-0.37,0.17-0.37,0.37c0,0.21,0.17,0.37,0.37,0.37h33c0.21,0,0.37-0.17,0.37-0.37
		C2479.84,513.44,2479.67,513.28,2479.47,513.28"/>
	<path class="st15" d="M2512.11,380.97l-33,132.59c-0.05,0.2,0.07,0.4,0.27,0.45c0.2,0.05,0.4-0.07,0.45-0.27l33-132.59
		c0.05-0.2-0.07-0.4-0.27-0.45C2512.36,380.64,2512.16,380.77,2512.11,380.97"/>
	<path class="st15" d="M2545.83,513.56l-33-132.59c-0.05-0.2-0.25-0.32-0.45-0.27s-0.32,0.25-0.27,0.45l33,132.59
		c0.05,0.2,0.25,0.32,0.45,0.27C2545.76,513.96,2545.88,513.76,2545.83,513.56"/>
	<path class="st15" d="M2578.1,248.42l-33,265.18c-0.03,0.2,0.12,0.39,0.32,0.42c0.2,0.03,0.39-0.12,0.42-0.32l33-265.18
		c0.03-0.2-0.12-0.39-0.32-0.42C2578.31,248.07,2578.12,248.21,2578.1,248.42"/>
	<rect x="2049.36" y="512.53" width="2.23" height="2.23"/>
	<polygon class="st15" points="2049.36,512.53 2049.36,512.62 2051.5,512.62 2051.5,514.67 2049.45,514.67 2049.45,512.53 
		2049.36,512.53 2049.36,512.62 2049.36,512.53 2049.26,512.53 2049.26,514.86 2051.68,514.86 2051.68,512.44 2049.26,512.44 
		2049.26,512.53 	"/>
	<rect x="2082.36" y="512.53" width="2.23" height="2.23"/>
	<polygon class="st15" points="2082.36,512.53 2082.36,512.62 2084.5,512.62 2084.5,514.67 2082.45,514.67 2082.45,512.53 
		2082.36,512.53 2082.36,512.62 2082.36,512.53 2082.26,512.53 2082.26,514.86 2084.68,514.86 2084.68,512.44 2082.26,512.44 
		2082.26,512.53 	"/>
	<rect x="2115.36" y="512.53" width="2.23" height="2.23"/>
	<polygon class="st15" points="2115.36,512.53 2115.36,512.62 2117.5,512.62 2117.5,514.67 2115.45,514.67 2115.45,512.53 
		2115.36,512.53 2115.36,512.62 2115.36,512.53 2115.26,512.53 2115.26,514.86 2117.68,514.86 2117.68,512.44 2115.26,512.44 
		2115.26,512.53 	"/>
	<rect x="2148.36" y="512.53" width="2.23" height="2.23"/>
	<polygon points="2148.36,512.53 2148.36,512.62 2150.5,512.62 2150.5,514.67 2148.45,514.67 2148.45,512.53 2148.36,512.53 
		2148.36,512.62 2148.36,512.53 2148.26,512.53 2148.26,514.86 2150.68,514.86 2150.68,512.44 2148.26,512.44 2148.26,512.53 	"/>
	<rect x="2181.36" y="247.35" class="st15" width="2.23" height="2.23"/>
	<polygon points="2181.36,247.35 2181.36,247.44 2183.5,247.44 2183.5,249.49 2181.45,249.49 2181.45,247.35 2181.36,247.35 
		2181.36,247.44 2181.36,247.35 2181.26,247.35 2181.26,249.67 2183.68,249.67 2183.68,247.25 2181.26,247.25 2181.26,247.35 	"/>
	<rect x="2214.35" y="379.94" width="2.23" height="2.23"/>
	<polygon class="st15" points="2214.35,379.94 2214.35,380.03 2216.49,380.03 2216.49,382.08 2214.45,382.08 2214.45,379.94 
		2214.35,379.94 2214.35,380.03 2214.35,379.94 2214.26,379.94 2214.26,382.27 2216.68,382.27 2216.68,379.85 2214.26,379.85 
		2214.26,379.94 	"/>
	<rect x="2247.35" y="379.94" width="2.23" height="2.23"/>
	<polygon class="st15" points="2247.35,379.94 2247.35,380.03 2249.49,380.03 2249.49,382.08 2247.45,382.08 2247.45,379.94 
		2247.35,379.94 2247.35,380.03 2247.35,379.94 2247.26,379.94 2247.26,382.27 2249.68,382.27 2249.68,379.85 2247.26,379.85 
		2247.26,379.94 	"/>
	<rect x="2280.35" y="379.94" class="st15" width="2.23" height="2.23"/>
	<polygon class="st15" points="2280.35,379.94 2280.35,380.03 2282.49,380.03 2282.49,382.08 2280.45,382.08 2280.45,379.94 
		2280.35,379.94 2280.35,380.03 2280.35,379.94 2280.26,379.94 2280.26,382.27 2282.68,382.27 2282.68,379.85 2280.26,379.85 
		2280.26,379.94 	"/>
	<rect x="2313.35" y="247.35" class="st15" width="2.23" height="2.23"/>
	<polygon class="st15" points="2313.35,247.35 2313.35,247.44 2315.49,247.44 2315.49,249.49 2313.45,249.49 2313.45,247.35 
		2313.35,247.35 2313.35,247.44 2313.35,247.35 2313.26,247.35 2313.26,249.67 2315.68,249.67 2315.68,247.25 2313.26,247.25 
		2313.26,247.35 	"/>
	<rect x="2346.35" y="512.53" class="st15" width="2.23" height="2.23"/>
	<polygon points="2346.35,512.53 2346.35,512.62 2348.49,512.62 2348.49,514.67 2346.45,514.67 2346.45,512.53 2346.35,512.53 
		2346.35,512.62 2346.35,512.53 2346.26,512.53 2346.26,514.86 2348.68,514.86 2348.68,512.44 2346.26,512.44 2346.26,512.53 	"/>
	<rect x="2379.35" y="512.53" width="2.23" height="2.23"/>
	<polygon class="st15" points="2379.35,512.53 2379.35,512.62 2381.49,512.62 2381.49,514.67 2379.45,514.67 2379.45,512.53 
		2379.35,512.53 2379.35,512.62 2379.35,512.53 2379.26,512.53 2379.26,514.86 2381.68,514.86 2381.68,512.44 2379.26,512.44 
		2379.26,512.53 	"/>
	<rect x="2412.35" y="379.94" class="st15" width="2.23" height="2.23"/>
	<polygon class="st15" points="2412.35,379.94 2412.35,380.03 2414.49,380.03 2414.49,382.08 2412.44,382.08 2412.44,379.94 
		2412.35,379.94 2412.35,380.03 2412.35,379.94 2412.26,379.94 2412.26,382.27 2414.68,382.27 2414.68,379.85 2412.26,379.85 
		2412.26,379.94 	"/>
	<rect x="2445.35" y="512.53" width="2.23" height="2.23"/>
	<polygon class="st15" points="2445.35,512.53 2445.35,512.62 2447.49,512.62 2447.49,514.67 2445.44,514.67 2445.44,512.53 
		2445.35,512.53 2445.35,512.62 2445.35,512.53 2445.26,512.53 2445.26,514.86 2447.68,514.86 2447.68,512.44 2445.26,512.44 
		2445.26,512.53 	"/>
	<rect x="2478.35" y="512.53" width="2.23" height="2.23"/>
	<polygon class="st15" points="2478.35,512.53 2478.35,512.62 2480.49,512.62 2480.49,514.67 2478.44,514.67 2478.44,512.53 
		2478.35,512.53 2478.35,512.62 2478.35,512.53 2478.26,512.53 2478.26,514.86 2480.68,514.86 2480.68,512.44 2478.26,512.44 
		2478.26,512.53 	"/>
	<rect x="2511.35" y="379.94" class="st15" width="2.23" height="2.23"/>
	<polygon class="st15" points="2511.35,379.94 2511.35,380.03 2513.49,380.03 2513.49,382.08 2511.44,382.08 2511.44,379.94 
		2511.35,379.94 2511.35,380.03 2511.35,379.94 2511.26,379.94 2511.26,382.27 2513.68,382.27 2513.68,379.85 2511.26,379.85 
		2511.26,379.94 	"/>
	<rect x="2544.35" y="512.53" width="2.23" height="2.23"/>
	<polygon class="st15" points="2544.35,512.53 2544.35,512.62 2546.49,512.62 2546.49,514.67 2544.44,514.67 2544.44,512.53 
		2544.35,512.53 2544.35,512.62 2544.35,512.53 2544.26,512.53 2544.26,514.86 2546.68,514.86 2546.68,512.44 2544.26,512.44 
		2544.26,512.53 	"/>
	<rect x="2577.35" y="247.35" class="st15" width="2.23" height="2.23"/>
	<polygon class="st15" points="2577.35,247.35 2577.35,247.44 2579.49,247.44 2579.49,249.49 2577.44,249.49 2577.44,247.35 
		2577.35,247.35 2577.35,247.44 2577.35,247.35 2577.26,247.35 2577.26,249.67 2579.67,249.67 2579.67,247.25 2577.26,247.25 
		2577.26,247.35 	"/>
	<text transform="matrix(1 0 0 1 2038.1356 526.739)" class="st4 st7" style="font-size:8.9226px;">1977</text>
	<text transform="matrix(1 0 0 1 2071.2422 526.739)" class="st4 st7" style="font-size:8.9226px;">1978</text>
	<text transform="matrix(1 0 0 1 2104.3457 526.7361)" class="st4 st7" style="font-size:8.9226px;">1979</text>
	<text transform="matrix(1 0 0 1 2137.4531 526.7361)" class="st4 st7" style="font-size:8.9226px;">1980</text>
	<text transform="matrix(1 0 0 1 2170.5596 526.738)" class="st4 st7" style="font-size:8.9226px;">1981</text>
	<text transform="matrix(1 0 0 1 2203.666 526.738)" class="st4 st7" style="font-size:8.9226px;">1982</text>
	<text transform="matrix(1 0 0 1 2236.7725 526.738)" class="st4 st7" style="font-size:8.9226px;">1983</text>
	<text transform="matrix(1 0 0 1 2269.8779 526.738)" class="st4 st7" style="font-size:8.9226px;">1984</text>
	<text transform="matrix(1 0 0 1 2302.9834 526.7371)" class="st4 st7" style="font-size:8.9226px;">1985</text>
	<text transform="matrix(1 0 0 1 2336.0889 526.7371)" class="st4 st7" style="font-size:8.9226px;">1986</text>
	<text transform="matrix(1 0 0 1 2369.1953 526.7371)" class="st4 st7" style="font-size:8.9226px;">1987</text>
	<text transform="matrix(1 0 0 1 2402.3018 526.7371)" class="st4 st7" style="font-size:8.9226px;">1988</text>
	<text transform="matrix(1 0 0 1 2435.4082 526.7361)" class="st4 st7" style="font-size:8.9226px;">1989</text>
	<text transform="matrix(1 0 0 1 2468.5146 526.7361)" class="st4 st7" style="font-size:8.9226px;">1990</text>
	<text transform="matrix(1 0 0 1 2501.6191 526.7361)" class="st4 st7" style="font-size:8.9226px;">1991</text>
	<text transform="matrix(1 0 0 1 2534.7256 526.7361)" class="st4 st7" style="font-size:8.9226px;">1992</text>
	<text transform="matrix(1 0 0 1 2567.832 526.7361)" class="st4 st7" style="font-size:8.9226px;">1993</text>
</g>
<text transform="matrix(1 0 0 1 2016.6641 123.8014)"><tspan x="0" y="0" class="st4 st5 st6">Tracking How Bands Recover from Break Ups</tspan><tspan x="1649.85" y="0" class="st4" style="font-family:'AndaleMono'; font-size:25.0103px;"> </tspan></text>
<text transform="matrix(1 0 0 1 70.3498 1346.9501)"><tspan x="0" y="0" class="st4 st5 st6">SIMON AND</tspan><tspan x="0" y="86.4" class="st4 st5 st6">GARFUNKEL</tspan></text>
<rect x="576.37" y="1295.18" class="st11" width="368.97" height="143.94"/>
<text transform="matrix(1 0 0 1 576.3743 1312.6097)"><tspan x="0" y="0" class="st4 st7 st12">Paul Simon and Art </tspan><tspan x="0" y="31.62" class="st4 st7 st12">Garfunkel began making </tspan><tspan x="0" y="63.24" class="st4 st7 st12">music before the </tspan><tspan x="0" y="94.86" class="st4 st7 st12">Billboard top 100 began </tspan><tspan x="0" y="126.47" class="st4 st7 st12">in 1965, coincidentally </tspan></text>
<rect x="1435.37" y="1295.29" class="st11" width="368.4" height="143.72"/>
<text transform="matrix(1 0 0 1 1435.3661 1312.6171)"><tspan x="0" y="0" class="st4 st7 st14">Simon and Garfunkel split </tspan><tspan x="0" y="31.57" class="st4 st7 st14">in 1970 after releasing </tspan><tspan x="0" y="63.14" class="st4 st7 st14">their last album Bridge </tspan><tspan x="0" y="94.71" class="st4 st7 st14">Over Troubled Water</tspan></text>
<rect x="1005.73" y="1295.18" class="st11" width="368.97" height="143.94"/>
<text transform="matrix(1 0 0 1 1005.7278 1312.6097)"><tspan x="0" y="0" class="st4 st7 st12">however, Simon and </tspan><tspan x="0" y="31.62" class="st4 st7 st12">Garfunkel started seeing </tspan><tspan x="0" y="63.24" class="st4 st7 st12">mainstream success in </tspan><tspan x="0" y="94.86" class="st4 st7 st12">1966 with their song The </tspan><tspan x="0" y="126.47" class="st4 st7 st12">Sound of Silence</tspan></text>
<g>
	<polyline points="216.93,2228.67 1715.87,2229.21 1715.87,2228.13 216.93,2227.59 	"/>
	<polyline points="217.55,2228.4 217.55,2210.32 216.31,2210.32 216.31,2228.4 	"/>
	<polyline points="311.19,2228.4 311.19,2210.32 309.95,2210.32 309.95,2228.4 	"/>
	<polyline points="404.84,2228.4 404.84,2210.32 403.6,2210.32 403.6,2228.4 	"/>
	<polyline points="498.48,2228.4 498.48,2210.32 497.25,2210.32 497.25,2228.4 	"/>
	<polyline points="592.13,2228.4 592.13,2210.32 590.89,2210.32 590.89,2228.4 	"/>
	<polyline points="685.77,2228.4 685.77,2210.32 684.54,2210.32 684.54,2228.4 	"/>
	<polyline points="779.42,2228.4 779.42,2210.32 778.18,2210.32 778.18,2228.4 	"/>
	<polyline points="873.07,2228.4 873.07,2210.32 871.83,2210.32 871.83,2228.4 	"/>
	<polyline points="966.71,2228.4 966.71,2210.32 965.47,2210.32 965.47,2228.4 	"/>
	<polyline points="1060.36,2228.4 1060.36,2210.32 1059.12,2210.32 1059.12,2228.4 	"/>
	<polyline points="1154,2228.4 1154,2210.32 1152.76,2210.32 1152.76,2228.4 	"/>
	<polyline points="1247.65,2228.4 1247.65,2210.32 1246.41,2210.32 1246.41,2228.4 	"/>
	<polyline points="1341.29,2228.4 1341.29,2210.32 1340.05,2210.32 1340.05,2228.4 	"/>
	<polyline points="1434.94,2228.4 1434.94,2210.32 1433.7,2210.32 1433.7,2228.4 	"/>
	<polyline points="1528.58,2228.4 1528.58,2210.32 1527.34,2210.32 1527.34,2228.4 	"/>
	<polyline points="1622.23,2228.4 1622.23,2210.32 1620.99,2210.32 1620.99,2228.4 	"/>
	<polyline points="1715.87,2228.4 1715.87,2210.32 1714.63,2210.32 1714.63,2228.4 	"/>
	<path d="M1690.01,2228.4"/>
	<path d="M1691.1,2228.4"/>
	<text transform="matrix(1.1486 0 0 1 165.0566 1995.2793)" class="st7" style="font-size:23.98px;">1</text>
	<text transform="matrix(1.1486 0 0 1 165.0566 1754.1172)" class="st7" style="font-size:23.98px;">2</text>
	<text transform="matrix(1.1486 0 0 1 165.0566 1512.9541)" class="st7" style="font-size:23.98px;">3</text>
	<polyline points="217.55,2228.4 217.55,1504.91 216.31,1504.91 216.31,2228.4 	"/>
	<polyline points="216.93,2228.94 259.07,2228.94 259.07,2227.86 216.93,2227.86 	"/>
	<polyline points="216.93,1987.78 259.07,1987.78 259.07,1986.7 216.93,1986.7 	"/>
	<polyline points="216.93,1746.62 259.07,1746.62 259.07,1745.54 216.93,1745.54 	"/>
	<polyline points="216.93,1505.45 259.07,1505.45 259.07,1504.37 216.93,1504.37 	"/>
	<path d="M230.04,2228.4h67.42H230.04z"/>
	<polygon points="230.04,2228.4 230.04,2228.67 297.46,2228.67 297.46,2228.13 230.04,2228.13 230.04,2228.67 230.04,2228.4 
		230.04,2228.67 297.46,2228.67 297.46,2228.13 230.04,2228.13 230.04,2228.67 	"/>
	<path d="M323.68,2228.4h67.42H323.68z"/>
	<polygon points="323.68,2228.4 323.68,2228.67 391.11,2228.67 391.11,2228.13 323.68,2228.13 323.68,2228.67 323.68,2228.4 
		323.68,2228.67 391.11,2228.67 391.11,2228.13 323.68,2228.13 323.68,2228.67 	"/>
	<path d="M417.33,2228.4h67.42H417.33z"/>
	<polygon points="417.33,2228.4 417.33,2228.67 484.75,2228.67 484.75,2228.13 417.33,2228.13 417.33,2228.67 417.33,2228.4 
		417.33,2228.67 484.75,2228.67 484.75,2228.13 417.33,2228.13 417.33,2228.67 	"/>
	<path d="M510.98,2228.4h67.42H510.98z"/>
	<polygon points="510.98,2228.4 510.98,2228.67 578.4,2228.67 578.4,2228.13 510.98,2228.13 510.98,2228.67 510.98,2228.4 
		510.98,2228.67 578.4,2228.67 578.4,2228.13 510.98,2228.13 510.98,2228.67 	"/>
	<path d="M604.62,2228.4h67.42H604.62z"/>
	<polygon points="604.62,2228.4 604.62,2228.67 672.05,2228.67 672.05,2228.13 604.62,2228.13 604.62,2228.67 604.62,2228.4 
		604.62,2228.67 672.05,2228.67 672.05,2228.13 604.62,2228.13 604.62,2228.67 	"/>
	<rect x="510.98" y="1504.91" width="67.42" height="723.49"/>
	<line x1="765.38" y1="2228.13" x2="698.58" y2="2228.13"/>
	<line x1="697.96" y1="2228.67" x2="766" y2="2228.67"/>
	<polyline points="698.58,1504.91 698.27,1504.91 698.27,1505.18 698.27,1504.91 697.96,1504.91 	"/>
	<path d="M791.91,2228.4h67.42H791.91z"/>
	<polygon points="791.91,2228.4 791.91,2228.67 859.34,2228.67 859.34,2228.13 791.91,2228.13 791.91,2228.67 791.91,2228.4 
		791.91,2228.67 859.34,2228.67 859.34,2228.13 791.91,2228.13 791.91,2228.67 	"/>
	<rect x="698.27" y="1746.08" width="67.42" height="482.33"/>
	<polygon points="885.56,1746.08 885.56,1746.35 952.67,1746.35 952.67,2228.13 885.87,2228.13 885.87,1746.08 885.56,1746.08 
		885.56,1746.35 885.56,1746.08 885.25,1746.08 885.25,2228.67 953.29,2228.67 953.29,1745.81 885.25,1745.81 885.25,1746.08 	"/>
	<path d="M979.2,2228.4h67.42H979.2z"/>
	<polygon points="979.2,2228.4 979.2,2228.67 1046.63,2228.67 1046.63,2228.13 979.2,2228.13 979.2,2228.67 979.2,2228.4 
		979.2,2228.67 1046.63,2228.67 1046.63,2228.13 979.2,2228.13 979.2,2228.67 	"/>
	<rect x="885.56" y="1746.08" width="67.42" height="482.33"/>
	<path d="M1166.49,2228.4h67.42H1166.49z"/>
	<polygon points="1166.49,2228.4 1166.49,2228.67 1233.92,2228.67 1233.92,2228.13 1166.49,2228.13 1166.49,2228.67 1166.49,2228.4 
		1166.49,2228.67 1233.92,2228.67 1233.92,2228.13 1166.49,2228.13 1166.49,2228.67 	"/>
	<rect x="1072.85" y="1987.24" width="67.42" height="241.16"/>
	<rect x="1166.49" y="1746.08" width="67.42" height="482.33"/>
	<path d="M1447.43,2228.4h67.42H1447.43z"/>
	<polygon points="1447.43,2228.4 1447.43,2228.67 1514.85,2228.67 1514.85,2228.13 1447.43,2228.13 1447.43,2228.67 1447.43,2228.4 
		1447.43,2228.67 1514.85,2228.67 1514.85,2228.13 1447.43,2228.13 1447.43,2228.67 	"/>
	<path d="M1541.07,2228.4h67.42H1541.07z"/>
	<polygon points="1541.07,2228.4 1541.07,2228.67 1608.5,2228.67 1608.5,2228.13 1541.07,2228.13 1541.07,2228.67 1541.07,2228.4 
		1541.07,2228.67 1608.5,2228.67 1608.5,2228.13 1541.07,2228.13 1541.07,2228.67 	"/>
	<rect x="1447.43" y="1987.24" width="67.42" height="241.16"/>
	<polygon points="1634.72,1987.24 1634.72,1987.51 1701.83,1987.51 1701.83,2228.13 1635.03,2228.13 1635.03,1987.24 
		1634.72,1987.24 1634.72,1987.51 1634.72,1987.24 1634.41,1987.24 1634.41,2228.67 1702.45,2228.67 1702.45,1986.97 
		1634.41,1986.97 1634.41,1987.24 	"/>
	<rect x="1634.72" y="1987.24" width="67.42" height="241.16"/>
</g>
<text transform="matrix(1.1486 0 0 1 229.3311 2260.8037)" class="st4 st7 st8">1963</text>
<text transform="matrix(1.1486 0 0 1 323.6841 2260.8037)" class="st4 st7 st8">1964</text>
<text transform="matrix(1.1486 0 0 1 417.3291 2260.8037)" class="st4 st7 st8">1965</text>
<text transform="matrix(1.1486 0 0 1 417.3291 2260.8037)" class="st4 st7 st8">19</text>
<text transform="matrix(1.1486 0 0 1 510.9741 2260.8027)" class="st4 st7 st8">1966</text>
<text transform="matrix(1.1486 0 0 1 604.6191 2260.8027)" class="st4 st7 st8">1967</text>
<text transform="matrix(1.1486 0 0 1 698.2642 2260.8027)" class="st4 st7 st8">1968</text>
<text transform="matrix(1.1486 0 0 1 791.9097 2260.8027)" class="st4 st7 st8">1969</text>
<text transform="matrix(1.1486 0 0 1 885.5547 2260.8018)" class="st4 st7 st8">1970</text>
<text transform="matrix(1.1486 0 0 1 979.1992 2260.8018)" class="st4 st7 st8">1971</text>
<text transform="matrix(1.1486 0 0 1 1072.8447 2260.8018)" class="st4 st7 st8">1972</text>
<text transform="matrix(1.1486 0 0 1 1166.4893 2260.8018)" class="st4 st7 st8">1973</text>
<text transform="matrix(1.1486 0 0 1 1260.1357 2260.8008)" class="st4 st7 st8">1974</text>
<text transform="matrix(1.1486 0 0 1 1353.7803 2260.8008)" class="st4 st7 st8">1975</text>
<text transform="matrix(1.1486 0 0 1 1447.4258 2260.8008)" class="st4 st7 st8">1976</text>
<text transform="matrix(1.1486 0 0 1 1541.0703 2260.8008)" class="st4 st7 st8">1977</text>
<text transform="matrix(1.1486 0 0 1 1634.7148 2260.7998)" class="st4 st7 st8">1978</text>
<g>
	<polyline points="2654.27,513.19 3214.24,513.19 3214.24,512.89 2654.27,512.89 	"/>
	<polyline points="2654.45,513.04 2654.45,506.44 2654.09,506.44 2654.09,513.04 	"/>
	<path d="M2689.09,513.04"/>
	<path d="M2689.45,513.04"/>
	<path d="M2724.08,513.04"/>
	<path d="M2724.45,513.04"/>
	<path d="M2759.08,513.04"/>
	<path d="M2759.45,513.04"/>
	<path d="M2794.08,513.04"/>
	<path d="M2794.45,513.04"/>
	<path d="M2829.08,513.04"/>
	<path d="M2829.44,513.04"/>
	<path d="M2864.07,513.04"/>
	<path d="M2864.44,513.04"/>
	<path d="M2899.07,513.04"/>
	<path d="M2899.44,513.04"/>
	<path d="M2934.07,513.04"/>
	<path d="M2934.44,513.04"/>
	<path d="M2969.07,513.04"/>
	<path d="M2969.43,513.04"/>
	<path d="M3004.07,513.04"/>
	<path d="M3004.43,513.04"/>
	<path d="M3039.06,513.04"/>
	<path d="M3039.43,513.04"/>
	<path d="M3074.06,513.04"/>
	<path d="M3074.43,513.04"/>
	<path d="M3109.06,513.04"/>
	<path d="M3109.43,513.04"/>
	<path d="M3144.06,513.04"/>
	<path d="M3144.42,513.04"/>
	<path d="M3179.05,513.04"/>
	<path d="M3179.42,513.04"/>
	<path d="M3214.05,513.04"/>
	<path d="M3214.42,513.04"/>
	<text transform="matrix(1.2191 0 0 1 2638.043 428.4404)" class="st4 st7" style="font-size:8.0319px;">1</text>
	<text transform="matrix(1.2191 0 0 1 2638.043 340.4082)" class="st4 st7" style="font-size:8.0319px;">2</text>
	<text transform="matrix(1.2191 0 0 1 2638.043 252.3765)" class="st4 st7" style="font-size:8.0319px;">3</text>
	<polyline points="2654.45,513.04 2654.45,248.95 2654.09,248.95 2654.09,513.04 	"/>
	<polyline class="st15" points="2654.27,513.19 2668.27,513.19 2668.27,512.89 2654.27,512.89 	"/>
	<polyline points="2654.27,425.16 2668.27,425.16 2668.27,424.86 2654.27,424.86 	"/>
	<path d="M2654.27,381.14"/>
	<polyline points="2654.27,337.13 2668.27,337.13 2668.27,336.83 2654.27,336.83 	"/>
	<path d="M2654.27,292.81"/>
	<path d="M2654.27,293.11"/>
	<polyline points="2654.27,249.1 2668.27,249.1 2668.27,248.8 2654.27,248.8 	"/>
	<path class="st15" d="M2706.77,512.74h-35c-0.2,0-0.37,0.13-0.37,0.3c0,0.17,0.16,0.3,0.37,0.3h35c0.2,0,0.37-0.13,0.37-0.3
		C2707.13,512.88,2706.97,512.74,2706.77,512.74"/>
	<path class="st15" d="M2741.77,512.74h-35c-0.2,0-0.37,0.13-0.37,0.3c0,0.17,0.16,0.3,0.37,0.3h35c0.2,0,0.37-0.13,0.37-0.3
		C2742.13,512.88,2741.97,512.74,2741.77,512.74"/>
	<path class="st15" d="M2776.4,248.91l-35,264.1c-0.02,0.17,0.12,0.31,0.32,0.33c0.2,0.02,0.38-0.1,0.4-0.27l35-264.1
		c0.02-0.17-0.12-0.31-0.32-0.33C2776.6,248.63,2776.42,248.75,2776.4,248.91"/>
	<path class="st15" d="M2812.13,513.01l-35-264.1c-0.02-0.17-0.2-0.28-0.4-0.27c-0.2,0.02-0.35,0.17-0.32,0.33l35,264.1
		c0.02,0.17,0.2,0.28,0.4,0.27C2812,513.32,2812.15,513.18,2812.13,513.01"/>
	<path class="st15" d="M2846.4,336.93l-35,176.06c-0.03,0.16,0.1,0.32,0.3,0.35c0.2,0.03,0.39-0.08,0.42-0.25l35-176.06
		c0.03-0.16-0.1-0.32-0.3-0.35C2846.62,336.65,2846.43,336.77,2846.4,336.93"/>
	<path class="st15" d="M2882.12,512.99l-35-176.06c-0.03-0.16-0.22-0.28-0.42-0.25c-0.2,0.03-0.34,0.18-0.3,0.35l35,176.06
		c0.03,0.16,0.22,0.28,0.42,0.25C2882.02,513.31,2882.15,513.16,2882.12,512.99"/>
	<path class="st15" d="M2916.39,336.93l-35,176.06c-0.03,0.16,0.1,0.32,0.3,0.35c0.2,0.03,0.39-0.08,0.42-0.25l35-176.06
		c0.03-0.16-0.1-0.32-0.3-0.35C2916.61,336.65,2916.43,336.77,2916.39,336.93"/>
	<path class="st15" d="M2952.11,512.99l-35-176.06c-0.03-0.16-0.22-0.28-0.42-0.25c-0.2,0.03-0.34,0.18-0.3,0.35l35,176.06
		c0.03,0.16,0.22,0.28,0.42,0.25S2952.15,513.16,2952.11,512.99"/>
	<path class="st15" d="M2986.4,424.92l-35,88.03c-0.06,0.16,0.04,0.33,0.23,0.38c0.19,0.05,0.4-0.03,0.46-0.19l35-88.03
		c0.06-0.16-0.04-0.33-0.23-0.38C2986.67,424.67,2986.46,424.76,2986.4,424.92"/>
	<path class="st15" d="M3021.4,336.88l-35,88.03c-0.06,0.16,0.04,0.33,0.23,0.38c0.19,0.05,0.4-0.03,0.46-0.19l35-88.03
		c0.06-0.16-0.04-0.33-0.24-0.38C3021.67,336.64,3021.46,336.73,3021.4,336.88"/>
	<path class="st15" d="M3057.11,512.99l-35-176.06c-0.03-0.16-0.22-0.28-0.42-0.25c-0.2,0.03-0.34,0.18-0.3,0.35l35,176.06
		c0.03,0.16,0.22,0.28,0.42,0.25C3057,513.31,3057.14,513.16,3057.11,512.99"/>
	<path class="st15" d="M3091.74,512.74h-35c-0.2,0-0.37,0.13-0.37,0.3c0,0.17,0.16,0.3,0.37,0.3h35c0.2,0,0.37-0.13,0.37-0.3
		C3092.11,512.88,3091.95,512.74,3091.74,512.74"/>
	<path class="st15" d="M3126.39,424.92l-35,88.03c-0.06,0.16,0.04,0.33,0.23,0.38c0.19,0.05,0.4-0.03,0.46-0.19l35-88.03
		c0.06-0.16-0.04-0.33-0.23-0.38C3126.66,424.67,3126.46,424.76,3126.39,424.92"/>
	<path class="st15" d="M3162.09,512.95l-35-88.03c-0.06-0.16-0.27-0.24-0.46-0.19c-0.19,0.05-0.3,0.22-0.23,0.38l35,88.03
		c0.06,0.16,0.27,0.24,0.46,0.19C3162.04,513.28,3162.15,513.11,3162.09,512.95"/>
	<path class="st15" d="M3196.39,424.92l-35,88.03c-0.06,0.16,0.04,0.33,0.23,0.38c0.19,0.05,0.4-0.03,0.46-0.19l35-88.03
		c0.06-0.16-0.04-0.33-0.23-0.38C3196.66,424.67,3196.45,424.76,3196.39,424.92"/>
	<rect x="2670.67" y="512.14" width="2.2" height="1.8"/>
	<polygon points="2670.67,512.14 2670.67,512.22 2672.78,512.22 2672.78,513.87 2670.76,513.87 2670.76,512.14 2670.67,512.14 
		2670.67,512.22 2670.67,512.14 2670.58,512.14 2670.58,514.02 2672.96,514.02 2672.96,512.07 2670.58,512.07 2670.58,512.14 	"/>
	<rect x="2705.67" y="512.14" width="2.2" height="1.8"/>
	<polygon points="2705.67,512.14 2705.67,512.22 2707.78,512.22 2707.78,513.87 2705.76,513.87 2705.76,512.14 2705.67,512.14 
		2705.67,512.22 2705.67,512.14 2705.58,512.14 2705.58,514.02 2707.96,514.02 2707.96,512.07 2705.58,512.07 2705.58,512.14 	"/>
	<rect x="2740.67" y="512.14" width="2.2" height="1.8"/>
	<polygon points="2740.67,512.14 2740.67,512.22 2742.77,512.22 2742.77,513.87 2740.76,513.87 2740.76,512.14 2740.67,512.14 
		2740.67,512.22 2740.67,512.14 2740.57,512.14 2740.57,514.02 2742.96,514.02 2742.96,512.07 2740.57,512.07 2740.57,512.14 	"/>
	<rect x="2775.66" y="248.04" width="2.2" height="1.8"/>
	<polygon points="2775.66,248.04 2775.66,248.12 2777.77,248.12 2777.77,249.77 2775.76,249.77 2775.76,248.04 2775.66,248.04 
		2775.66,248.12 2775.66,248.04 2775.57,248.04 2775.57,249.92 2777.95,249.92 2777.95,247.97 2775.57,247.97 2775.57,248.04 	"/>
	<rect x="2810.66" y="512.14" width="2.2" height="1.8"/>
	<polygon points="2810.66,512.14 2810.66,512.22 2812.77,512.22 2812.77,513.87 2810.75,513.87 2810.75,512.14 2810.66,512.14 
		2810.66,512.22 2810.66,512.14 2810.57,512.14 2810.57,514.02 2812.95,514.02 2812.95,512.07 2810.57,512.07 2810.57,512.14 	"/>
	<rect x="2845.66" y="336.08" class="st15" width="2.2" height="1.8"/>
	<polygon class="st15" points="2845.66,336.08 2845.66,336.15 2847.77,336.15 2847.77,337.8 2845.75,337.8 2845.75,336.08 
		2845.66,336.08 2845.66,336.15 2845.66,336.08 2845.57,336.08 2845.57,337.96 2847.95,337.96 2847.95,336 2845.57,336 
		2845.57,336.08 	"/>
	<rect x="2880.66" y="512.14" width="2.2" height="1.8"/>
	<polygon points="2880.66,512.14 2880.66,512.22 2882.76,512.22 2882.76,513.87 2880.75,513.87 2880.75,512.14 2880.66,512.14 
		2880.66,512.22 2880.66,512.14 2880.57,512.14 2880.57,514.02 2882.95,514.02 2882.95,512.07 2880.57,512.07 2880.57,512.14 	"/>
	<rect x="2915.65" y="336.08" class="st15" width="2.2" height="1.8"/>
	<polygon class="st15" points="2915.65,336.08 2915.65,336.15 2917.76,336.15 2917.76,337.8 2915.75,337.8 2915.75,336.08 
		2915.65,336.08 2915.65,336.15 2915.65,336.08 2915.56,336.08 2915.56,337.96 2917.95,337.96 2917.95,336 2915.56,336 
		2915.56,336.08 	"/>
	<rect x="2950.65" y="512.14" width="2.2" height="1.8"/>
	<polygon points="2950.65,512.14 2950.65,512.22 2952.76,512.22 2952.76,513.87 2950.74,513.87 2950.74,512.14 2950.65,512.14 
		2950.65,512.22 2950.65,512.14 2950.56,512.14 2950.56,514.02 2952.94,514.02 2952.94,512.07 2950.56,512.07 2950.56,512.14 	"/>
	<rect x="2985.65" y="424.11" width="2.2" height="1.8"/>
	<polygon points="2985.65,424.11 2985.65,424.18 2987.76,424.18 2987.76,425.84 2985.74,425.84 2985.74,424.11 2985.65,424.11 
		2985.65,424.18 2985.65,424.11 2985.56,424.11 2985.56,425.99 2987.94,425.99 2987.94,424.03 2985.56,424.03 2985.56,424.11 	"/>
	<rect x="3020.65" y="336.08" width="2.2" height="1.8"/>
	<polygon points="3020.65,336.08 3020.65,336.15 3022.76,336.15 3022.76,337.8 3020.74,337.8 3020.74,336.08 3020.65,336.08 
		3020.65,336.15 3020.65,336.08 3020.56,336.08 3020.56,337.96 3022.94,337.96 3022.94,336 3020.56,336 3020.56,336.08 	"/>
	<rect x="3055.65" y="512.14" width="2.2" height="1.8"/>
	<polygon points="3055.65,512.14 3055.65,512.22 3057.75,512.22 3057.75,513.87 3055.74,513.87 3055.74,512.14 3055.65,512.14 
		3055.65,512.22 3055.65,512.14 3055.55,512.14 3055.55,514.02 3057.94,514.02 3057.94,512.07 3055.55,512.07 3055.55,512.14 	"/>
	<rect x="3090.64" y="512.14" width="2.2" height="1.8"/>
	<polygon points="3090.64,512.14 3090.64,512.22 3092.75,512.22 3092.75,513.87 3090.74,513.87 3090.74,512.14 3090.64,512.14 
		3090.64,512.22 3090.64,512.14 3090.55,512.14 3090.55,514.02 3092.93,514.02 3092.93,512.07 3090.55,512.07 3090.55,512.14 	"/>
	<rect x="3125.64" y="424.11" width="2.2" height="1.8"/>
	<polygon points="3125.64,424.11 3125.64,424.18 3127.75,424.18 3127.75,425.84 3125.73,425.84 3125.73,424.11 3125.64,424.11 
		3125.64,424.18 3125.64,424.11 3125.55,424.11 3125.55,425.99 3127.93,425.99 3127.93,424.03 3125.55,424.03 3125.55,424.11 	"/>
	<rect x="3160.64" y="512.14" width="2.2" height="1.8"/>
	<polygon points="3160.64,512.14 3160.64,512.22 3162.75,512.22 3162.75,513.87 3160.73,513.87 3160.73,512.14 3160.64,512.14 
		3160.64,512.22 3160.64,512.14 3160.55,512.14 3160.55,514.02 3162.93,514.02 3162.93,512.07 3160.55,512.07 3160.55,512.14 	"/>
	<rect x="3195.64" y="424.11" width="2.2" height="1.8"/>
	<polygon points="3195.64,424.11 3195.64,424.18 3197.74,424.18 3197.74,425.84 3195.73,425.84 3195.73,424.11 3195.64,424.11 
		3195.64,424.18 3195.64,424.11 3195.55,424.11 3195.55,425.99 3197.93,425.99 3197.93,424.03 3195.55,424.03 3195.55,424.11 	"/>
</g>
<text transform="matrix(1.2191 0 0 1 2661.875 526.7383)" class="st4 st7" style="font-size:8.8924px;">1963</text>
<text transform="matrix(1.2191 0 0 1 2696.4785 526.7383)" class="st4 st7" style="font-size:8.8924px;">1964</text>
<text transform="matrix(1.2191 0 0 1 2731.082 526.7383)" class="st4 st7" style="font-size:8.8924px;">1965</text>
<text transform="matrix(1.2191 0 0 1 2765.6855 526.7383)" class="st4 st7" style="font-size:8.8924px;">1966</text>
<text transform="matrix(1.2191 0 0 1 2800.2891 526.7383)" class="st4 st7" style="font-size:8.8924px;">1967</text>
<text transform="matrix(1.2191 0 0 1 2834.8936 526.7383)" class="st4 st7" style="font-size:8.8924px;">1968</text>
<text transform="matrix(1.2191 0 0 1 2869.4951 526.7383)" class="st4 st7" style="font-size:8.8924px;">1969</text>
<text transform="matrix(1.2191 0 0 1 2904.0986 526.7383)" class="st4 st7" style="font-size:8.8924px;">1970</text>
<text transform="matrix(1.2191 0 0 1 2938.7031 526.7383)" class="st4 st7" style="font-size:8.8924px;">1971</text>
<text transform="matrix(1.2191 0 0 1 2973.3057 526.7383)" class="st4 st7" style="font-size:8.8924px;">1972</text>
<text transform="matrix(1.2191 0 0 1 3007.9102 526.7383)" class="st4 st7" style="font-size:8.8924px;">1973</text>
<text transform="matrix(1.2191 0 0 1 3042.5127 526.7383)" class="st4 st7" style="font-size:8.8924px;">1974</text>
<text transform="matrix(1.2191 0 0 1 3077.1162 526.7383)" class="st4 st7" style="font-size:8.8924px;">1975</text>
<text transform="matrix(1.2191 0 0 1 3111.7207 526.7383)" class="st4 st7" style="font-size:8.8924px;">1976</text>
<text transform="matrix(1.2191 0 0 1 3146.3223 526.7393)" class="st4 st7" style="font-size:8.8924px;">1977</text>
<text transform="matrix(1.2191 0 0 1 3180.9268 526.7393)" class="st4 st7" style="font-size:8.8924px;">1978</text>
<text transform="matrix(1 0 0 1 2596.7559 188.0781)" class="st4 st7" style="font-size:26.7953px;">SIMON AND GARFUNKEL</text>
<text transform="matrix(1 0 0 1 2014.421 1346.8644)" class="st4 st5 st6">THE POLICE</text>
<polyline points="2072.07,2220.45 3580.83,2220.45 3580.83,2219.45 2072.07,2219.45 "/>
<polyline points="2072.57,2219.95 2072.57,2201.95 2071.57,2201.95 2071.57,2219.95 "/>
<polyline points="2161.32,2219.95 2161.32,2201.95 2160.32,2201.95 2160.32,2219.95 "/>
<polyline points="2250.07,2219.95 2250.07,2201.95 2249.07,2201.95 2249.07,2219.95 "/>
<polyline points="2338.82,2219.95 2338.82,2201.95 2337.82,2201.95 2337.82,2219.95 "/>
<polyline points="2427.57,2219.95 2427.57,2201.95 2426.57,2201.95 2426.57,2219.95 "/>
<polyline points="2516.32,2219.95 2516.32,2201.95 2515.33,2201.95 2515.33,2219.95 "/>
<polyline points="2605.07,2219.95 2605.07,2201.95 2604.08,2201.95 2604.08,2219.95 "/>
<polyline points="2693.82,2219.95 2693.82,2201.95 2692.83,2201.95 2692.83,2219.95 "/>
<polyline points="2782.58,2219.95 2782.58,2201.95 2781.58,2201.95 2781.58,2219.95 "/>
<polyline points="2871.33,2219.95 2871.33,2201.95 2870.33,2201.95 2870.33,2219.95 "/>
<polyline points="2960.08,2219.95 2960.08,2201.95 2959.08,2201.95 2959.08,2219.95 "/>
<polyline points="3048.83,2219.95 3048.83,2201.95 3047.83,2201.95 3047.83,2219.95 "/>
<polyline points="3137.58,2219.95 3137.58,2201.95 3136.58,2201.95 3136.58,2219.95 "/>
<polyline points="3226.33,2219.95 3226.33,2201.95 3225.33,2201.95 3225.33,2219.95 "/>
<polyline points="3315.08,2219.95 3315.08,2201.95 3314.08,2201.95 3314.08,2219.95 "/>
<polyline points="3403.83,2219.95 3403.83,2201.95 3402.83,2201.95 3402.83,2219.95 "/>
<polyline points="3492.58,2219.95 3492.58,2201.95 3491.58,2201.95 3491.58,2219.95 "/>
<polyline points="3581.33,2219.95 3581.33,2201.95 3580.33,2201.95 3580.33,2219.95 "/>
<text transform="matrix(1 0 0 1 2026.9806 1869.8837)" class="st7 st8">1</text>
<text transform="matrix(1 0 0 1 2026.9806 1509.7128)" class="st7 st8">2</text>
<polyline class="st9" points="2072.57,2219.95 2072.57,1499.62 2071.57,1499.62 2071.57,2219.95 "/>
<polyline points="2072.07,2220.45 2109.79,2220.45 2109.79,2219.45 2072.07,2219.45 "/>
<polyline points="2072.07,1860.28 2109.79,1860.28 2109.79,1859.29 2072.07,1859.29 "/>
<polyline points="2072.07,1500.12 2109.79,1500.12 2109.79,1499.12 2072.07,1499.12 "/>
<path d="M2084.5,2219.95h63.9H2084.5z"/>
<polygon points="2084.5,2219.95 2084.5,2220.2 2148.4,2220.2 2148.4,2219.7 2084.5,2219.7 2084.5,2220.2 2084.5,2219.95 
	2084.5,2220.2 2148.4,2220.2 2148.4,2219.7 2084.5,2219.7 2084.5,2220.2 "/>
<path d="M2173.25,2219.95h63.9H2173.25z"/>
<polygon points="2173.25,2219.95 2173.25,2220.2 2237.15,2220.2 2237.15,2219.7 2173.25,2219.7 2173.25,2220.2 2173.25,2219.95 
	2173.25,2220.2 2237.15,2220.2 2237.15,2219.7 2173.25,2219.7 2173.25,2220.2 "/>
<path d="M2262,2219.95h63.9H2262z"/>
<polygon points="2262,2219.95 2262,2220.2 2325.9,2220.2 2325.9,2219.7 2262,2219.7 2262,2220.2 2262,2219.95 2262,2220.2 
	2325.9,2220.2 2325.9,2219.7 2262,2219.7 2262,2220.2 "/>
<path d="M2350.75,2219.95h63.9H2350.75z"/>
<polygon points="2350.75,2219.95 2350.75,2220.2 2414.65,2220.2 2414.65,2219.7 2350.75,2219.7 2350.75,2220.2 2350.75,2219.95 
	2350.75,2220.2 2414.65,2220.2 2414.65,2219.7 2350.75,2219.7 2350.75,2220.2 "/>
<rect x="2439.5" y="1499.62" width="63.9" height="720.34"/>
<polygon points="2439.5,1499.62 2439.5,1499.87 2503.15,1499.87 2503.15,2219.7 2439.75,2219.7 2439.75,1499.62 2439.5,1499.62 
	2439.5,1499.87 2439.5,1499.62 2439.25,1499.62 2439.25,2220.2 2503.65,2220.2 2503.65,1499.37 2439.25,1499.37 2439.25,1499.62 "/>
<rect x="2528.25" y="1859.79" width="63.9" height="360.17"/>
<polygon points="2528.25,1859.79 2528.25,1860.04 2591.9,1860.04 2591.9,2219.7 2528.5,2219.7 2528.5,1859.79 2528.25,1859.79 
	2528.25,1860.04 2528.25,1859.79 2528,1859.79 2528,2220.2 2592.4,2220.2 2592.4,1859.54 2528,1859.54 2528,1859.79 "/>
<rect x="2617" y="1859.79" width="63.9" height="360.17"/>
<polygon points="2617,1859.79 2617,1860.04 2680.65,1860.04 2680.65,2219.7 2617.25,2219.7 2617.25,1859.79 2617,1859.79 
	2617,1860.04 2617,1859.79 2616.75,1859.79 2616.75,2220.2 2681.15,2220.2 2681.15,1859.54 2616.75,1859.54 2616.75,1859.79 "/>
<rect x="2705.75" y="1859.79" width="63.9" height="360.17"/>
<polygon points="2705.75,1859.79 2705.75,1860.04 2769.4,1860.04 2769.4,2219.7 2706,2219.7 2706,1859.79 2705.75,1859.79 
	2705.75,1860.04 2705.75,1859.79 2705.5,1859.79 2705.5,2220.2 2769.9,2220.2 2769.9,1859.54 2705.5,1859.54 2705.5,1859.79 "/>
<rect x="2794.5" y="1499.62" width="63.9" height="720.34"/>
<polygon points="2794.5,1499.62 2794.5,1499.87 2858.15,1499.87 2858.15,2219.7 2794.75,2219.7 2794.75,1499.62 2794.5,1499.62 
	2794.5,1499.87 2794.5,1499.62 2794.25,1499.62 2794.25,2220.2 2858.65,2220.2 2858.65,1499.37 2794.25,1499.37 2794.25,1499.62 "/>
<path d="M2883.25,2219.95h63.9H2883.25z"/>
<polygon points="2883.25,2219.95 2883.25,2220.2 2947.15,2220.2 2947.15,2219.7 2883.25,2219.7 2883.25,2220.2 2883.25,2219.95 
	2883.25,2220.2 2947.15,2220.2 2947.15,2219.7 2883.25,2219.7 2883.25,2220.2 "/>
<path d="M2972,2219.95h63.9H2972z"/>
<polygon points="2972,2219.95 2972,2220.2 3035.9,2220.2 3035.9,2219.7 2972,2219.7 2972,2220.2 2972,2219.95 2972,2220.2 
	3035.9,2220.2 3035.9,2219.7 2972,2219.7 2972,2220.2 "/>
<rect x="3060.75" y="1859.79" width="63.9" height="360.17"/>
<polygon points="3060.75,1859.79 3060.75,1860.04 3124.4,1860.04 3124.4,2219.7 3061,2219.7 3061,1859.79 3060.75,1859.79 
	3060.75,1860.04 3060.75,1859.79 3060.5,1859.79 3060.5,2220.2 3124.9,2220.2 3124.9,1859.54 3060.5,1859.54 3060.5,1859.79 "/>
<path d="M3149.5,2219.95h63.9H3149.5z"/>
<polygon points="3149.5,2219.95 3149.5,2220.2 3213.4,2220.2 3213.4,2219.7 3149.5,2219.7 3149.5,2220.2 3149.5,2219.95 
	3149.5,2220.2 3213.4,2220.2 3213.4,2219.7 3149.5,2219.7 3149.5,2220.2 "/>
<path d="M3238.25,2219.95h63.9H3238.25z"/>
<polygon points="3238.25,2219.95 3238.25,2220.2 3302.15,2220.2 3302.15,2219.7 3238.25,2219.7 3238.25,2220.2 3238.25,2219.95 
	3238.25,2220.2 3302.15,2220.2 3302.15,2219.7 3238.25,2219.7 3238.25,2220.2 "/>
<rect x="3327" y="1859.79" width="63.9" height="360.17"/>
<polygon points="3327,1859.79 3327,1860.04 3390.65,1860.04 3390.65,2219.7 3327.25,2219.7 3327.25,1859.79 3327,1859.79 
	3327,1860.04 3327,1859.79 3326.75,1859.79 3326.75,2220.2 3391.15,2220.2 3391.15,1859.54 3326.75,1859.54 3326.75,1859.79 "/>
<path d="M3415.75,2219.95h63.9H3415.75z"/>
<polygon points="3415.75,2219.95 3415.75,2220.2 3479.65,2220.2 3479.65,2219.7 3415.75,2219.7 3415.75,2220.2 3415.75,2219.95 
	3415.75,2220.2 3479.65,2220.2 3479.65,2219.7 3415.75,2219.7 3415.75,2220.2 "/>
<rect x="3504.5" y="1499.62" width="63.9" height="720.34"/>
<polygon points="3504.5,1499.62 3504.5,1499.87 3568.15,1499.87 3568.15,2219.7 3504.75,2219.7 3504.75,1499.62 3504.5,1499.62 
	3504.5,1499.87 3504.5,1499.62 3504.25,1499.62 3504.25,2220.2 3568.65,2220.2 3568.65,1499.37 3504.25,1499.37 3504.25,1499.62 "/>
<text transform="matrix(1 0 0 1 2087.0981 2250.0391)" class="st4 st7 st8">1977</text>
<text transform="matrix(1 0 0 1 2176.0542 2250.0391)" class="st4 st7 st8">1978</text>
<text transform="matrix(1 0 0 1 2265.0122 2250.0312)" class="st4 st7 st8">1979</text>
<text transform="matrix(1 0 0 1 2353.9692 2250.0312)" class="st4 st7 st8">1980</text>
<text transform="matrix(1 0 0 1 2442.9263 2250.0361)" class="st4 st7 st8">1981</text>
<text transform="matrix(1 0 0 1 2531.8833 2250.0361)" class="st4 st7 st8">1982</text>
<text transform="matrix(1 0 0 1 2620.8413 2250.0361)" class="st4 st7 st8">1983</text>
<text transform="matrix(1 0 0 1 2709.7974 2250.0352)" class="st4 st7 st8">1984</text>
<text transform="matrix(1 0 0 1 2798.7544 2250.0342)" class="st4 st7 st8">1985</text>
<text transform="matrix(1 0 0 1 2887.71 2250.0342)" class="st4 st7 st8">1986</text>
<text transform="matrix(1 0 0 1 2976.667 2250.0342)" class="st4 st7 st8">1987</text>
<text transform="matrix(1 0 0 1 3065.626 2250.0342)" class="st4 st7 st8">1988</text>
<text transform="matrix(1 0 0 1 3154.5811 2250.0332)" class="st4 st7 st8">1989</text>
<text transform="matrix(1 0 0 1 3243.54 2250.0322)" class="st4 st7 st8">1990</text>
<text transform="matrix(1 0 0 1 3332.4951 2250.0322)" class="st4 st7 st8">1991</text>
<text transform="matrix(1 0 0 1 3421.4541 2250.0322)" class="st4 st7 st8">1992</text>
<text transform="matrix(1 0 0 1 3510.4111 2250.0312)" class="st4 st7 st8">1993</text>
<rect x="2871.33" y="1499.12" class="st1" width="87.75" height="720.34"/>
<rect x="2161.32" y="1499.12" class="st0" width="87.75" height="720.84"/>
<polygon class="st11" points="2100.75,1445.71 2102.92,1445.71 2102.92,1445.71 2100.75,1445.71 "/>
<rect x="2521.26" y="1295.1" class="st11" width="368.97" height="143.94"/>
<text transform="matrix(1 0 0 1 2521.2649 1312.5236)"><tspan x="0" y="0" class="st4 st7 st12">The Police began making </tspan><tspan x="0" y="31.62" class="st4 st7 st12">music in 1977 and </tspan><tspan x="0" y="63.24" class="st4 st7 st12">released their first </tspan><tspan x="0" y="94.86" class="st4 st7 st12">album Outlandos d&apos;Amour </tspan><tspan x="0" y="126.47" class="st4 st7 st12">in 1978</tspan></text>
<rect x="2919.91" y="1295.01" class="st11" width="361.75" height="141.12"/>
<text transform="matrix(1 0 0 1 2919.9082 1312.4384)"><tspan x="0" y="0" class="st4 st7 st13">The group split </tspan><tspan x="0" y="31" class="st4 st7 st13">officially in 1986, </tspan><tspan x="0" y="62" class="st4 st7 st13">while recording their </tspan><tspan x="0" y="93" class="st4 st7 st13">6th studio album</tspan></text>
<rect x="3312.44" y="1295.12" class="st11" width="368.4" height="143.72"/>
<text transform="matrix(1 0 0 1 3312.4375 1312.5194)"><tspan x="0" y="0" class="st4 st7 st14">Each member of the band </tspan><tspan x="0" y="31.57" class="st4 st7 st14">continues to make music, </tspan><tspan x="0" y="63.14" class="st4 st7 st14">Sting being the only one </tspan><tspan x="0" y="94.71" class="st4 st7 st14">who saw widespread </tspan><tspan x="0" y="126.28" class="st4 st7 st14">success</tspan></text>
<line class="st11" x1="3479.65" y1="1587.6" x2="3503.04" y2="1610.99"/>
<polyline points="3993.92,2188.21 5637.33,2188.21 5637.33,2187.21 3993.92,2187.21 "/>
<polyline points="3994.42,2187.71 3994.42,2165.72 3993.42,2165.72 3993.42,2187.71 "/>
<polyline points="4111.81,2187.71 4111.81,2165.72 4110.81,2165.72 4110.81,2187.71 "/>
<polyline points="4229.19,2187.71 4229.19,2165.72 4228.19,2165.72 4228.19,2187.71 "/>
<polyline points="4346.58,2187.71 4346.58,2165.72 4345.58,2165.72 4345.58,2187.71 "/>
<polyline points="4463.96,2187.71 4463.96,2165.72 4462.96,2165.72 4462.96,2187.71 "/>
<polyline points="4581.35,2187.71 4581.35,2165.72 4580.35,2165.72 4580.35,2187.71 "/>
<polyline points="4698.74,2187.71 4698.74,2165.72 4697.74,2165.72 4697.74,2187.71 "/>
<polyline points="4816.12,2187.71 4816.12,2165.72 4815.12,2165.72 4815.12,2187.71 "/>
<polyline points="4933.51,2187.71 4933.51,2165.72 4932.51,2165.72 4932.51,2187.71 "/>
<polyline points="5050.9,2187.71 5050.9,2165.72 5049.9,2165.72 5049.9,2187.71 "/>
<polyline points="5168.28,2187.71 5168.28,2165.72 5167.28,2165.72 5167.28,2187.71 "/>
<polyline points="5285.67,2187.71 5285.67,2165.72 5284.67,2165.72 5284.67,2187.71 "/>
<polyline points="5403.06,2187.71 5403.06,2165.72 5402.06,2165.72 5402.06,2187.71 "/>
<polyline points="5520.44,2187.71 5520.44,2165.72 5519.44,2165.72 5519.44,2187.71 "/>
<polyline points="5637.83,2187.71 5637.83,2165.72 5636.83,2165.72 5636.83,2187.71 "/>
<text transform="matrix(1 0 0 1 3945.4302 2085.8906)" class="st7" style="font-size:24px;">1</text>
<text transform="matrix(1 0 0 1 3945.4312 1975.9395)" class="st7" style="font-size:24px;">2</text>
<text transform="matrix(1 0 0 1 3945.4312 1865.9873)" class="st7" style="font-size:24px;">3</text>
<text transform="matrix(1 0 0 1 3945.4307 1756.0352)" class="st7" style="font-size:24px;">4</text>
<text transform="matrix(1 0 0 1 3945.4316 1646.084)" class="st7" style="font-size:24px;">5</text>
<text transform="matrix(1 0 0 1 3945.4316 1536.1318)" class="st7" style="font-size:24px;">6</text>
<text transform="matrix(1 0 0 1 3948.667 1426.1797)" class="st7" style="font-size:24px;">7</text>
<text transform="matrix(1 0 0 1 3948.6675 1316.2285)" class="st7" style="font-size:24px;">8</text>
<polyline points="3994.42,2187.71 3994.42,1308.09 3993.42,1308.09 3993.42,2187.71 "/>
<polyline points="3993.92,2188.21 4035,2188.21 4035,2187.21 3993.92,2187.21 "/>
<polyline points="3993.92,2078.26 4035,2078.26 4035,2077.26 3993.92,2077.26 "/>
<polyline points="3993.92,1968.31 4035,1968.31 4035,1967.31 3993.92,1967.31 "/>
<polyline points="3993.92,1858.35 4035,1858.35 4035,1857.35 3993.92,1857.35 "/>
<polyline points="3993.92,1748.4 4035,1748.4 4035,1747.4 3993.92,1747.4 "/>
<polyline points="3993.92,1638.45 4035,1638.45 4035,1637.45 3993.92,1637.45 "/>
<polyline points="3993.92,1528.5 4035,1528.5 4035,1527.5 3993.92,1527.5 "/>
<polyline points="3993.92,1418.55 4035,1418.55 4035,1417.55 3993.92,1417.55 "/>
<polyline points="3993.92,1308.59 4035,1308.59 4035,1307.59 3993.92,1307.59 "/>
<rect x="4010.35" y="1418.05" class="st16" width="84.52" height="769.66"/>
<polygon class="st10" points="4010.35,1418.05 4010.35,1418.3 4094.62,1418.3 4094.62,2187.46 4010.6,2187.46 4010.6,1418.05 
	4010.35,1418.05 4010.35,1418.3 4010.35,1418.05 4010.1,1418.05 4010.1,2187.96 4095.12,2187.96 4095.12,1417.8 4010.1,1417.8 
	4010.1,1418.05 "/>
<rect x="4127.74" y="1528" class="st17" width="84.52" height="659.71"/>
<polygon class="st17" points="4127.74,1528 4127.74,1528.25 4212.01,1528.25 4212.01,2187.46 4127.99,2187.46 4127.99,1528 
	4127.74,1528 4127.74,1528.25 4127.74,1528 4127.49,1528 4127.49,2187.96 4212.51,2187.96 4212.51,1527.75 4127.49,1527.75 
	4127.49,1528 "/>
<rect x="4245.13" y="1637.95" class="st18" width="84.52" height="549.76"/>
<polygon class="st18" points="4245.13,1637.95 4245.13,1638.2 4329.39,1638.2 4329.39,2187.46 4245.38,2187.46 4245.38,1637.95 
	4245.13,1637.95 4245.13,1638.2 4245.13,1637.95 4244.88,1637.95 4244.88,2187.96 4329.89,2187.96 4329.89,1637.7 4244.88,1637.7 
	4244.88,1637.95 "/>
<rect x="4362.51" y="1637.95" class="st18" width="84.52" height="549.76"/>
<polygon class="st18" points="4362.51,1637.95 4362.51,1638.2 4446.78,1638.2 4446.78,2187.46 4362.76,2187.46 4362.76,1637.95 
	4362.51,1637.95 4362.51,1638.2 4362.51,1637.95 4362.26,1637.95 4362.26,2187.96 4447.28,2187.96 4447.28,1637.7 4362.26,1637.7 
	4362.26,1637.95 "/>
<rect x="4479.9" y="1637.95" class="st18" width="84.52" height="549.76"/>
<polygon class="st18" points="4479.9,1637.95 4479.9,1638.2 4564.17,1638.2 4564.17,2187.46 4480.15,2187.46 4480.15,1637.95 
	4479.9,1637.95 4479.9,1638.2 4479.9,1637.95 4479.65,1637.95 4479.65,2187.96 4564.67,2187.96 4564.67,1637.7 4479.65,1637.7 
	4479.65,1637.95 "/>
<rect x="4597.29" y="1637.95" class="st18" width="84.52" height="549.76"/>
<polygon class="st18" points="4597.29,1637.95 4597.29,1638.2 4681.55,1638.2 4681.55,2187.46 4597.54,2187.46 4597.53,1637.95 
	4597.29,1637.95 4597.29,1638.2 4597.29,1637.95 4597.04,1637.95 4597.04,2187.96 4682.05,2187.96 4682.05,1637.7 4597.04,1637.7 
	4597.04,1637.95 "/>
<rect x="4714.67" y="1637.95" class="st18" width="84.52" height="549.76"/>
<polygon class="st18" points="4714.67,1637.95 4714.67,1638.2 4798.94,1638.2 4798.94,2187.46 4714.92,2187.46 4714.92,1637.95 
	4714.67,1637.95 4714.67,1638.2 4714.67,1637.95 4714.42,1637.95 4714.42,2187.96 4799.44,2187.96 4799.44,1637.7 4714.42,1637.7 
	4714.42,1637.95 "/>
<rect x="4832.06" y="1747.9" class="st18" width="84.52" height="439.81"/>
<polygon class="st18" points="4832.06,1747.9 4832.06,1748.15 4916.33,1748.15 4916.33,2187.46 4832.31,2187.46 4832.31,1747.9 
	4832.06,1747.9 4832.06,1748.15 4832.06,1747.9 4831.81,1747.9 4831.81,2187.96 4916.83,2187.96 4916.83,1747.65 4831.81,1747.65 
	4831.81,1747.9 "/>
<rect x="4949.44" y="1747.9" class="st18" width="84.52" height="439.81"/>
<polygon class="st18" points="4949.44,1747.9 4949.44,1748.15 5033.71,1748.15 5033.71,2187.46 4949.69,2187.46 4949.69,1747.9 
	4949.44,1747.9 4949.44,1748.15 4949.44,1747.9 4949.19,1747.9 4949.19,2187.96 5034.21,2187.96 5034.21,1747.65 4949.19,1747.65 
	4949.19,1747.9 "/>
<rect x="5066.83" y="1857.85" class="st18" width="84.52" height="329.85"/>
<polygon class="st18" points="5066.83,1857.85 5066.83,1858.1 5151.1,1858.1 5151.1,2187.46 5067.08,2187.46 5067.08,1857.85 
	5066.83,1857.85 5066.83,1858.1 5066.83,1857.85 5066.58,1857.85 5066.58,2187.96 5151.6,2187.96 5151.6,1857.6 5066.58,1857.6 
	5066.58,1857.85 "/>
<rect x="5184.22" y="1967.81" class="st18" width="84.52" height="219.9"/>
<polygon class="st18" points="5184.22,1967.81 5184.22,1968.06 5268.48,1968.06 5268.48,2187.46 5184.47,2187.46 5184.47,1967.81 
	5184.22,1967.81 5184.22,1968.06 5184.22,1967.81 5183.97,1967.81 5183.97,2187.96 5268.98,2187.96 5268.98,1967.56 
	5183.97,1967.56 5183.97,1967.81 "/>
<rect x="5301.6" y="1967.81" class="st18" width="84.52" height="219.9"/>
<polygon class="st18" points="5301.6,1967.81 5301.6,1968.06 5385.87,1968.06 5385.87,2187.46 5301.85,2187.46 5301.85,1967.81 
	5301.6,1967.81 5301.6,1968.06 5301.6,1967.81 5301.35,1967.81 5301.35,2187.96 5386.37,2187.96 5386.37,1967.56 5301.35,1967.56 
	5301.35,1967.81 "/>
<rect x="5418.99" y="2077.76" class="st18" width="84.52" height="109.95"/>
<polygon class="st18" points="5418.99,2077.76 5418.99,2078.01 5503.26,2078.01 5503.26,2187.46 5419.24,2187.46 5419.24,2077.76 
	5418.99,2077.76 5418.99,2078.01 5418.99,2077.76 5418.74,2077.76 5418.74,2187.96 5503.76,2187.96 5503.76,2077.51 
	5418.74,2077.51 5418.74,2077.76 "/>
<rect x="5536.38" y="2077.76" class="st18" width="84.52" height="109.95"/>
<polygon class="st18" points="5536.38,2077.76 5536.38,2078.01 5620.64,2078.01 5620.64,2187.46 5536.63,2187.46 5536.63,2077.76 
	5536.38,2077.76 5536.38,2078.01 5536.38,2077.76 5536.13,2077.76 5536.13,2187.96 5621.14,2187.96 5621.14,2077.51 
	5536.13,2077.51 5536.13,2077.76 "/>
<text transform="matrix(1 0 0 1 5268.7354 1295.8751)"><tspan x="0" y="0" class="st4 st7" style="font-size:24px;">Sting</tspan><tspan x="0" y="27" class="st4 st7" style="font-size:24px;">Wings &amp; Paul McCartney</tspan><tspan x="0" y="54" class="st4 st7" style="font-size:24px;">Ringo Starr</tspan><tspan x="0" y="81" class="st4 st7" style="font-size:24px;">Paul Simon</tspan><tspan x="0" y="108" class="st4 st7" style="font-size:24px;">Paul McCartney</tspan><tspan x="0" y="135" class="st4 st7" style="font-size:24px;">Kenny Logins</tspan><tspan x="0" y="162" class="st4 st7" style="font-size:24px;">John Lennon</tspan><tspan x="0" y="189" class="st4 st7" style="font-size:24px;">George Harrison</tspan><tspan x="0" y="216" class="st4 st7" style="font-size:24px;">Don Henley</tspan><tspan x="0" y="243" class="st4 st7" style="font-size:24px;">Stevie Nicks</tspan><tspan x="0" y="270" class="st4 st7" style="font-size:24px;">Joe Walsh</tspan><tspan x="0" y="297" class="st4 st7" style="font-size:24px;">Glenn Frey</tspan><tspan x="0" y="324" class="st4 st7" style="font-size:24px;">Lindsey Buckingham</tspan></text>
<rect x="5183.21" y="1279.86" class="st19" width="75.13" height="14.18"/>
<rect x="5183.21" y="1306.94" class="st20" width="75.13" height="14.18"/>
<rect x="5183.21" y="1334.02" class="st21" width="75.13" height="14.18"/>
<rect x="5183.21" y="1361.1" class="st22" width="75.13" height="14.18"/>
<rect x="5183.21" y="1388.18" class="st23" width="75.13" height="14.18"/>
<rect x="5183.21" y="1415.27" class="st23" width="75.13" height="14.18"/>
<rect x="5183.21" y="1442.35" class="st23" width="75.13" height="14.18"/>
<rect x="5183.21" y="1469.43" class="st23" width="75.13" height="14.18"/>
<rect x="5183.21" y="1496.51" class="st23" width="75.13" height="14.18"/>
<rect x="5183.21" y="1523.59" class="st23" width="75.13" height="14.18"/>
<rect x="5183.21" y="1550.68" class="st23" width="75.13" height="14.18"/>
<rect x="5183.21" y="1577.76" class="st23" width="75.13" height="14.18"/>
<rect x="5183.21" y="1604.84" class="st23" width="75.13" height="14.18"/>
<text transform="matrix(1 0 0 1 486.3531 89.6907)"><tspan x="0" y="0" class="st4 st7 st13">Sting</tspan><tspan x="0" y="31.62" class="st4 st7 st13">Andy Summers</tspan><tspan x="0" y="63.24" class="st4 st7 st13">Stewart Copeland</tspan><tspan x="0" y="94.86" class="st4 st7 st13">Henry Padovani</tspan></text>
<rect x="396.6" y="72.03" class="st19" width="71.35" height="26.49"/>
<rect x="396.6" y="101.95" class="st24" width="71.35" height="26.49"/>
<rect x="396.6" y="131.88" class="st25" width="71.35" height="26.49"/>
<rect x="396.6" y="161.8" class="st26" width="71.35" height="26.49"/>
<rect x="4168.98" y="1295.88" class="st11" width="901.69" height="169.49"/>
<text transform="matrix(1 0 0 1 4168.9751 1346.7784)" class="st4 st5 st6">Solo Career Overview</text>
<g>
	<text transform="matrix(1 0 0 1 3222.127 188.0782)" class="st4 st7" style="font-size:26.7953px;">EAGLES</text>
	<rect x="3445.08" y="245.66" class="st1" width="32.66" height="268.08"/>
	<rect x="3312.22" y="245.71" class="st0" width="32.66" height="268.26"/>
	<polyline points="3278.8,513.83 3839.79,513.83 3839.79,513.46 3278.8,513.46 	"/>
	<polyline points="3278.98,513.65 3278.98,507.02 3278.61,507.02 3278.61,513.65 	"/>
	<polyline points="3278.98,513.65 3278.98,248.46 3278.61,248.46 3278.61,513.65 	"/>
	<polyline points="3278.8,513.83 3292.82,513.83 3292.82,513.46 3278.8,513.46 	"/>
	<polyline points="3278.8,381.24 3292.82,381.24 3292.82,380.87 3278.8,380.87 	"/>
	<polyline points="3278.8,248.65 3292.82,248.65 3292.82,248.28 3278.8,248.28 	"/>
	<path class="st15" d="M3328.3,513.28h-33c-0.21,0-0.37,0.17-0.37,0.37c0,0.21,0.17,0.37,0.37,0.37h33c0.21,0,0.37-0.17,0.37-0.37
		C3328.67,513.44,3328.5,513.28,3328.3,513.28"/>
	<path class="st15" d="M3361.3,513.28h-33c-0.21,0-0.37,0.17-0.37,0.37c0,0.21,0.17,0.37,0.37,0.37h33c0.21,0,0.37-0.17,0.37-0.37
		C3361.67,513.44,3361.5,513.28,3361.3,513.28"/>
	<path class="st15" d="M3394.3,513.28h-33c-0.21,0-0.37,0.17-0.37,0.37c0,0.21,0.17,0.37,0.37,0.37h33c0.21,0,0.37-0.17,0.37-0.37
		C3394.67,513.44,3394.5,513.28,3394.3,513.28"/>
	<path class="st15" d="M3426.93,248.42l-33,265.18c-0.03,0.2,0.12,0.39,0.32,0.42c0.2,0.03,0.39-0.12,0.42-0.32l33-265.18
		c0.03-0.2-0.12-0.39-0.32-0.42C3427.14,248.07,3426.95,248.21,3426.93,248.42"/>
	<path class="st15" d="M3460.66,380.97l-33-132.59c-0.05-0.2-0.25-0.32-0.45-0.27s-0.32,0.25-0.27,0.45l33,132.59
		c0.05,0.2,0.25,0.32,0.45,0.27S3460.71,381.17,3460.66,380.97"/>
	<path class="st15" d="M3493.29,380.68h-33c-0.21,0-0.37,0.17-0.37,0.37s0.17,0.37,0.37,0.37h33c0.21,0,0.37-0.17,0.37-0.37
		S3493.5,380.68,3493.29,380.68"/>
	<path class="st15" d="M3526.29,380.68h-33c-0.21,0-0.37,0.17-0.37,0.37s0.17,0.37,0.37,0.37h33c0.21,0,0.37-0.17,0.37-0.37
		S3526.5,380.68,3526.29,380.68"/>
	<path class="st15" d="M3558.93,248.37l-33,132.59c-0.05,0.2,0.07,0.4,0.27,0.45s0.4-0.07,0.45-0.27l33-132.59
		c0.05-0.2-0.07-0.4-0.27-0.45S3558.98,248.17,3558.93,248.37"/>
	<path class="st15" d="M3592.66,513.6l-33-265.18c-0.03-0.2-0.21-0.35-0.42-0.32c-0.2,0.03-0.35,0.21-0.32,0.42l33,265.18
		c0.03,0.2,0.21,0.35,0.42,0.32C3592.54,513.99,3592.69,513.81,3592.66,513.6"/>
	<path d="M3625.29,513.28h-33c-0.21,0-0.37,0.17-0.37,0.37c0,0.21,0.17,0.37,0.37,0.37h33c0.21,0,0.37-0.17,0.37-0.37
		C3625.67,513.44,3625.5,513.28,3625.29,513.28"/>
	<path class="st15" d="M3657.93,380.97l-33,132.59c-0.05,0.2,0.07,0.4,0.27,0.45c0.2,0.05,0.4-0.07,0.45-0.27l33-132.59
		c0.05-0.2-0.07-0.4-0.27-0.45C3658.18,380.64,3657.98,380.77,3657.93,380.97"/>
	<path class="st15" d="M3691.65,513.56l-33-132.59c-0.05-0.2-0.25-0.32-0.45-0.27c-0.2,0.05-0.32,0.25-0.27,0.45l33,132.59
		c0.05,0.2,0.25,0.32,0.45,0.27C3691.58,513.96,3691.7,513.76,3691.65,513.56"/>
	<path class="st15" d="M3724.29,513.28h-33c-0.21,0-0.37,0.17-0.37,0.37c0,0.21,0.17,0.37,0.37,0.37h33c0.21,0,0.37-0.17,0.37-0.37
		C3724.66,513.44,3724.5,513.28,3724.29,513.28"/>
	<path class="st15" d="M3756.93,380.97l-33,132.59c-0.05,0.2,0.07,0.4,0.27,0.45c0.2,0.05,0.4-0.07,0.45-0.27l33-132.59
		c0.05-0.2-0.07-0.4-0.27-0.45C3757.18,380.64,3756.98,380.77,3756.93,380.97"/>
	<path class="st15" d="M3790.65,513.56l-33-132.59c-0.05-0.2-0.25-0.32-0.45-0.27c-0.2,0.05-0.32,0.25-0.27,0.45l33,132.59
		c0.05,0.2,0.25,0.32,0.45,0.27C3790.58,513.96,3790.7,513.76,3790.65,513.56"/>
	<path class="st15" d="M3822.92,248.42l-33,265.18c-0.03,0.2,0.12,0.39,0.32,0.42c0.2,0.03,0.39-0.12,0.42-0.32l33-265.18
		c0.03-0.2-0.12-0.39-0.32-0.42C3823.13,248.07,3822.95,248.21,3822.92,248.42"/>
	<rect x="3294.18" y="512.53" width="2.23" height="2.23"/>
	<polygon class="st15" points="3294.18,512.53 3294.18,512.62 3296.32,512.62 3296.32,514.67 3294.27,514.67 3294.27,512.53 
		3294.18,512.53 3294.18,512.62 3294.18,512.53 3294.09,512.53 3294.09,514.86 3296.51,514.86 3296.51,512.44 3294.09,512.44 
		3294.09,512.53 	"/>
	<rect x="3327.18" y="512.53" width="2.23" height="2.23"/>
	<polygon class="st15" points="3327.18,512.53 3327.18,512.62 3329.32,512.62 3329.32,514.67 3327.27,514.67 3327.27,512.53 
		3327.18,512.53 3327.18,512.62 3327.18,512.53 3327.09,512.53 3327.09,514.86 3329.51,514.86 3329.51,512.44 3327.09,512.44 
		3327.09,512.53 	"/>
	<rect x="3360.18" y="512.53" width="2.23" height="2.23"/>
	<polygon class="st15" points="3360.18,512.53 3360.18,512.62 3362.32,512.62 3362.32,514.67 3360.27,514.67 3360.27,512.53 
		3360.18,512.53 3360.18,512.62 3360.18,512.53 3360.09,512.53 3360.09,514.86 3362.51,514.86 3362.51,512.44 3360.09,512.44 
		3360.09,512.53 	"/>
	<rect x="3393.18" y="512.53" width="2.23" height="2.23"/>
	<polygon points="3393.18,512.53 3393.18,512.62 3395.32,512.62 3395.32,514.67 3393.27,514.67 3393.27,512.53 3393.18,512.53 
		3393.18,512.62 3393.18,512.53 3393.09,512.53 3393.09,514.86 3395.51,514.86 3395.51,512.44 3393.09,512.44 3393.09,512.53 	"/>
	<rect x="3426.18" y="247.35" class="st15" width="2.23" height="2.23"/>
	<polygon points="3426.18,247.35 3426.18,247.44 3428.32,247.44 3428.32,249.49 3426.27,249.49 3426.27,247.35 3426.18,247.35 
		3426.18,247.44 3426.18,247.35 3426.09,247.35 3426.09,249.67 3428.51,249.67 3428.51,247.25 3426.09,247.25 3426.09,247.35 	"/>
	<rect x="3459.18" y="379.94" width="2.23" height="2.23"/>
	<polygon class="st15" points="3459.18,379.94 3459.18,380.03 3461.32,380.03 3461.32,382.08 3459.27,382.08 3459.27,379.94 
		3459.18,379.94 3459.18,380.03 3459.18,379.94 3459.09,379.94 3459.09,382.27 3461.5,382.27 3461.5,379.85 3459.09,379.85 
		3459.09,379.94 	"/>
	<rect x="3492.18" y="379.94" width="2.23" height="2.23"/>
	<polygon class="st15" points="3492.18,379.94 3492.18,380.03 3494.32,380.03 3494.32,382.08 3492.27,382.08 3492.27,379.94 
		3492.18,379.94 3492.18,380.03 3492.18,379.94 3492.09,379.94 3492.09,382.27 3494.5,382.27 3494.5,379.85 3492.09,379.85 
		3492.09,379.94 	"/>
	<rect x="3525.18" y="379.94" class="st15" width="2.23" height="2.23"/>
	<polygon class="st15" points="3525.18,379.94 3525.18,380.03 3527.32,380.03 3527.32,382.08 3525.27,382.08 3525.27,379.94 
		3525.18,379.94 3525.18,380.03 3525.18,379.94 3525.08,379.94 3525.08,382.27 3527.5,382.27 3527.5,379.85 3525.08,379.85 
		3525.08,379.94 	"/>
	<rect x="3558.18" y="247.35" class="st15" width="2.23" height="2.23"/>
	<polygon class="st15" points="3558.18,247.35 3558.18,247.44 3560.32,247.44 3560.32,249.49 3558.27,249.49 3558.27,247.35 
		3558.18,247.35 3558.18,247.44 3558.18,247.35 3558.08,247.35 3558.08,249.67 3560.5,249.67 3560.5,247.25 3558.08,247.25 
		3558.08,247.35 	"/>
	<rect x="3591.18" y="512.53" class="st15" width="2.23" height="2.23"/>
	<polygon points="3591.18,512.53 3591.18,512.62 3593.32,512.62 3593.32,514.67 3591.27,514.67 3591.27,512.53 3591.18,512.53 
		3591.18,512.62 3591.18,512.53 3591.08,512.53 3591.08,514.86 3593.5,514.86 3593.5,512.44 3591.08,512.44 3591.08,512.53 	"/>
	<rect x="3624.18" y="512.53" width="2.23" height="2.23"/>
	<polygon class="st15" points="3624.18,512.53 3624.18,512.62 3626.32,512.62 3626.32,514.67 3624.27,514.67 3624.27,512.53 
		3624.18,512.53 3624.18,512.62 3624.18,512.53 3624.08,512.53 3624.08,514.86 3626.5,514.86 3626.5,512.44 3624.08,512.44 
		3624.08,512.53 	"/>
	<rect x="3657.18" y="379.94" class="st15" width="2.23" height="2.23"/>
	<polygon class="st15" points="3657.18,379.94 3657.18,380.03 3659.32,380.03 3659.32,382.08 3657.27,382.08 3657.27,379.94 
		3657.18,379.94 3657.18,380.03 3657.18,379.94 3657.08,379.94 3657.08,382.27 3659.5,382.27 3659.5,379.85 3657.08,379.85 
		3657.08,379.94 	"/>
	<rect x="3690.18" y="512.53" width="2.23" height="2.23"/>
	<polygon class="st15" points="3690.18,512.53 3690.18,512.62 3692.32,512.62 3692.32,514.67 3690.27,514.67 3690.27,512.53 
		3690.18,512.53 3690.18,512.62 3690.18,512.53 3690.08,512.53 3690.08,514.86 3692.5,514.86 3692.5,512.44 3690.08,512.44 
		3690.08,512.53 	"/>
	<rect x="3723.17" y="512.53" width="2.23" height="2.23"/>
	<polygon class="st15" points="3723.17,512.53 3723.17,512.62 3725.31,512.62 3725.31,514.67 3723.27,514.67 3723.27,512.53 
		3723.17,512.53 3723.17,512.62 3723.17,512.53 3723.08,512.53 3723.08,514.86 3725.5,514.86 3725.5,512.44 3723.08,512.44 
		3723.08,512.53 	"/>
	<rect x="3756.17" y="379.94" class="st15" width="2.23" height="2.23"/>
	<polygon class="st15" points="3756.17,379.94 3756.17,380.03 3758.31,380.03 3758.31,382.08 3756.27,382.08 3756.27,379.94 
		3756.17,379.94 3756.17,380.03 3756.17,379.94 3756.08,379.94 3756.08,382.27 3758.5,382.27 3758.5,379.85 3756.08,379.85 
		3756.08,379.94 	"/>
	<rect x="3789.17" y="512.53" width="2.23" height="2.23"/>
	<polygon class="st15" points="3789.17,512.53 3789.17,512.62 3791.31,512.62 3791.31,514.67 3789.27,514.67 3789.27,512.53 
		3789.17,512.53 3789.17,512.62 3789.17,512.53 3789.08,512.53 3789.08,514.86 3791.5,514.86 3791.5,512.44 3789.08,512.44 
		3789.08,512.53 	"/>
	<rect x="3822.17" y="247.35" class="st15" width="2.23" height="2.23"/>
	<polygon class="st15" points="3822.17,247.35 3822.17,247.44 3824.31,247.44 3824.31,249.49 3822.27,249.49 3822.27,247.35 
		3822.17,247.35 3822.17,247.44 3822.17,247.35 3822.08,247.35 3822.08,249.67 3824.5,249.67 3824.5,247.25 3822.08,247.25 
		3822.08,247.35 	"/>
	<text transform="matrix(1 0 0 1 3282.96 526.7391)" class="st4 st7" style="font-size:8.9226px;">1977</text>
	<text transform="matrix(1 0 0 1 3316.0664 526.7391)" class="st4 st7" style="font-size:8.9226px;">1978</text>
	<text transform="matrix(1 0 0 1 3349.1699 526.7362)" class="st4 st7" style="font-size:8.9226px;">1979</text>
	<text transform="matrix(1 0 0 1 3382.2773 526.7362)" class="st4 st7" style="font-size:8.9226px;">1980</text>
	<text transform="matrix(1 0 0 1 3415.3838 526.7382)" class="st4 st7" style="font-size:8.9226px;">1981</text>
	<text transform="matrix(1 0 0 1 3448.4902 526.7382)" class="st4 st7" style="font-size:8.9226px;">1982</text>
	<text transform="matrix(1 0 0 1 3481.5967 526.7382)" class="st4 st7" style="font-size:8.9226px;">1983</text>
	<text transform="matrix(1 0 0 1 3514.7021 526.7382)" class="st4 st7" style="font-size:8.9226px;">1984</text>
	<text transform="matrix(1 0 0 1 3547.8076 526.7372)" class="st4 st7" style="font-size:8.9226px;">1985</text>
	<text transform="matrix(1 0 0 1 3580.9131 526.7372)" class="st4 st7" style="font-size:8.9226px;">1986</text>
	<text transform="matrix(1 0 0 1 3614.0195 526.7372)" class="st4 st7" style="font-size:8.9226px;">1987</text>
	<text transform="matrix(1 0 0 1 3647.126 526.7372)" class="st4 st7" style="font-size:8.9226px;">1988</text>
	<text transform="matrix(1 0 0 1 3680.2324 526.7362)" class="st4 st7" style="font-size:8.9226px;">1989</text>
	<text transform="matrix(1 0 0 1 3713.3389 526.7362)" class="st4 st7" style="font-size:8.9226px;">1990</text>
	<text transform="matrix(1 0 0 1 3746.4434 526.7362)" class="st4 st7" style="font-size:8.9226px;">1991</text>
	<text transform="matrix(1 0 0 1 3779.5498 526.7362)" class="st4 st7" style="font-size:8.9226px;">1992</text>
	<text transform="matrix(1 0 0 1 3812.6562 526.7362)" class="st4 st7" style="font-size:8.9226px;">1993</text>
</g>
<g>
	<text transform="matrix(1 0 0 1 2983.9919 617.7621)" class="st4 st7" style="font-size:26.7953px;">FLEETWOOD MAC</text>
	<rect x="3206.95" y="675.35" class="st1" width="32.66" height="268.08"/>
	<rect x="3074.09" y="675.4" class="st0" width="32.66" height="268.26"/>
	<polyline points="3040.66,943.52 3601.65,943.52 3601.65,943.15 3040.66,943.15 	"/>
	<polyline points="3040.85,943.33 3040.85,936.7 3040.48,936.7 3040.48,943.33 	"/>
	<polyline points="3040.85,943.33 3040.85,678.15 3040.48,678.15 3040.48,943.33 	"/>
	<polyline points="3040.66,943.52 3054.69,943.52 3054.69,943.15 3040.66,943.15 	"/>
	<polyline points="3040.66,810.93 3054.69,810.93 3054.69,810.55 3040.66,810.55 	"/>
	<polyline points="3040.66,678.33 3054.69,678.33 3054.69,677.96 3040.66,677.96 	"/>
	<path class="st15" d="M3090.16,942.96h-33c-0.21,0-0.37,0.17-0.37,0.37c0,0.21,0.17,0.37,0.37,0.37h33c0.21,0,0.37-0.17,0.37-0.37
		C3090.53,943.13,3090.37,942.96,3090.16,942.96"/>
	<path class="st15" d="M3123.16,942.96h-33c-0.21,0-0.37,0.17-0.37,0.37c0,0.21,0.17,0.37,0.37,0.37h33c0.21,0,0.37-0.17,0.37-0.37
		C3123.53,943.13,3123.37,942.96,3123.16,942.96"/>
	<path class="st15" d="M3156.16,942.96h-33c-0.21,0-0.37,0.17-0.37,0.37c0,0.21,0.17,0.37,0.37,0.37h33c0.21,0,0.37-0.17,0.37-0.37
		C3156.53,943.13,3156.37,942.96,3156.16,942.96"/>
	<path class="st15" d="M3188.79,678.1l-33,265.18c-0.03,0.2,0.12,0.39,0.32,0.42c0.2,0.03,0.39-0.12,0.42-0.32l33-265.18
		c0.03-0.2-0.12-0.39-0.32-0.42C3189,677.75,3188.82,677.9,3188.79,678.1"/>
	<path class="st15" d="M3222.52,810.65l-33-132.59c-0.05-0.2-0.25-0.32-0.45-0.27c-0.2,0.05-0.32,0.25-0.27,0.45l33,132.59
		c0.05,0.2,0.25,0.32,0.45,0.27C3222.45,811.05,3222.57,810.85,3222.52,810.65"/>
	<path class="st15" d="M3255.16,810.37h-33c-0.21,0-0.37,0.17-0.37,0.37c0,0.21,0.17,0.37,0.37,0.37h33c0.21,0,0.37-0.17,0.37-0.37
		C3255.53,810.53,3255.37,810.37,3255.16,810.37"/>
	<path class="st15" d="M3288.16,810.37h-33c-0.21,0-0.37,0.17-0.37,0.37c0,0.21,0.17,0.37,0.37,0.37h33c0.21,0,0.37-0.17,0.37-0.37
		C3288.53,810.53,3288.36,810.37,3288.16,810.37"/>
	<path class="st15" d="M3320.8,678.06l-33,132.59c-0.05,0.2,0.07,0.4,0.27,0.45c0.2,0.05,0.4-0.07,0.45-0.27l33-132.59
		c0.05-0.2-0.07-0.4-0.27-0.45C3321.05,677.74,3320.85,677.86,3320.8,678.06"/>
	<path class="st15" d="M3354.53,943.29l-33-265.18c-0.03-0.2-0.21-0.35-0.42-0.32c-0.2,0.03-0.35,0.21-0.32,0.42l33,265.18
		c0.03,0.2,0.21,0.35,0.42,0.32C3354.41,943.68,3354.55,943.49,3354.53,943.29"/>
	<path d="M3387.16,942.96h-33c-0.21,0-0.37,0.17-0.37,0.37c0,0.21,0.17,0.37,0.37,0.37h33c0.21,0,0.37-0.17,0.37-0.37
		C3387.53,943.13,3387.36,942.96,3387.16,942.96"/>
	<path class="st15" d="M3419.8,810.65l-33,132.59c-0.05,0.2,0.07,0.4,0.27,0.45c0.2,0.05,0.4-0.07,0.45-0.27l33-132.59
		c0.05-0.2-0.07-0.4-0.27-0.45C3420.05,810.33,3419.85,810.45,3419.8,810.65"/>
	<path class="st15" d="M3453.52,943.24l-33-132.59c-0.05-0.2-0.25-0.32-0.45-0.27c-0.2,0.05-0.32,0.25-0.27,0.45l33,132.59
		c0.05,0.2,0.25,0.32,0.45,0.27C3453.45,943.64,3453.57,943.44,3453.52,943.24"/>
	<path class="st15" d="M3486.16,942.96h-33c-0.21,0-0.37,0.17-0.37,0.37c0,0.21,0.17,0.37,0.37,0.37h33c0.21,0,0.37-0.17,0.37-0.37
		C3486.53,943.13,3486.36,942.96,3486.16,942.96"/>
	<path class="st15" d="M3518.79,810.65l-33,132.59c-0.05,0.2,0.07,0.4,0.27,0.45c0.2,0.05,0.4-0.07,0.45-0.27l33-132.59
		c0.05-0.2-0.07-0.4-0.27-0.45C3519.05,810.33,3518.84,810.45,3518.79,810.65"/>
	<path class="st15" d="M3552.52,943.24l-33-132.59c-0.05-0.2-0.25-0.32-0.45-0.27c-0.2,0.05-0.32,0.25-0.27,0.45l33,132.59
		c0.05,0.2,0.25,0.32,0.45,0.27C3552.44,943.64,3552.57,943.44,3552.52,943.24"/>
	<path class="st15" d="M3584.79,678.1l-33,265.18c-0.03,0.2,0.12,0.39,0.32,0.42c0.2,0.03,0.39-0.12,0.42-0.32l33-265.18
		c0.03-0.2-0.12-0.39-0.32-0.42C3585,677.75,3584.81,677.9,3584.79,678.1"/>
	<rect x="3056.05" y="942.21" width="2.23" height="2.23"/>
	<polygon class="st15" points="3056.05,942.21 3056.05,942.31 3058.19,942.31 3058.19,944.35 3056.14,944.35 3056.14,942.21 
		3056.05,942.21 3056.05,942.31 3056.05,942.21 3055.95,942.21 3055.95,944.54 3058.37,944.54 3058.37,942.12 3055.95,942.12 
		3055.95,942.21 	"/>
	<rect x="3089.05" y="942.21" width="2.23" height="2.23"/>
	<polygon class="st15" points="3089.05,942.21 3089.05,942.31 3091.19,942.31 3091.19,944.35 3089.14,944.35 3089.14,942.21 
		3089.05,942.21 3089.05,942.31 3089.05,942.21 3088.95,942.21 3088.95,944.54 3091.37,944.54 3091.37,942.12 3088.95,942.12 
		3088.95,942.21 	"/>
	<rect x="3122.05" y="942.21" width="2.23" height="2.23"/>
	<polygon class="st15" points="3122.05,942.21 3122.05,942.31 3124.19,942.31 3124.19,944.35 3122.14,944.35 3122.14,942.21 
		3122.05,942.21 3122.05,942.31 3122.05,942.21 3121.95,942.21 3121.95,944.54 3124.37,944.54 3124.37,942.12 3121.95,942.12 
		3121.95,942.21 	"/>
	<rect x="3155.04" y="942.21" width="2.23" height="2.23"/>
	<polygon points="3155.04,942.21 3155.04,942.31 3157.18,942.31 3157.18,944.35 3155.14,944.35 3155.14,942.21 3155.04,942.21 
		3155.04,942.31 3155.04,942.21 3154.95,942.21 3154.95,944.54 3157.37,944.54 3157.37,942.12 3154.95,942.12 3154.95,942.21 	"/>
	<rect x="3188.04" y="677.03" class="st15" width="2.23" height="2.23"/>
	<polygon points="3188.04,677.03 3188.04,677.12 3190.18,677.12 3190.18,679.17 3188.14,679.17 3188.14,677.03 3188.04,677.03 
		3188.04,677.12 3188.04,677.03 3187.95,677.03 3187.95,679.36 3190.37,679.36 3190.37,676.94 3187.95,676.94 3187.95,677.03 	"/>
	<rect x="3221.04" y="809.62" width="2.23" height="2.23"/>
	<polygon class="st15" points="3221.04,809.62 3221.04,809.72 3223.18,809.72 3223.18,811.76 3221.14,811.76 3221.14,809.62 
		3221.04,809.62 3221.04,809.72 3221.04,809.62 3220.95,809.62 3220.95,811.95 3223.37,811.95 3223.37,809.53 3220.95,809.53 
		3220.95,809.62 	"/>
	<rect x="3254.04" y="809.62" width="2.23" height="2.23"/>
	<polygon class="st15" points="3254.04,809.62 3254.04,809.72 3256.18,809.72 3256.18,811.76 3254.14,811.76 3254.14,809.62 
		3254.04,809.62 3254.04,809.72 3254.04,809.62 3253.95,809.62 3253.95,811.95 3256.37,811.95 3256.37,809.53 3253.95,809.53 
		3253.95,809.62 	"/>
	<rect x="3287.04" y="809.62" class="st15" width="2.23" height="2.23"/>
	<polygon class="st15" points="3287.04,809.62 3287.04,809.72 3289.18,809.72 3289.18,811.76 3287.14,811.76 3287.14,809.62 
		3287.04,809.62 3287.04,809.72 3287.04,809.62 3286.95,809.62 3286.95,811.95 3289.37,811.95 3289.37,809.53 3286.95,809.53 
		3286.95,809.62 	"/>
	<rect x="3320.04" y="677.03" class="st15" width="2.23" height="2.23"/>
	<polygon class="st15" points="3320.04,677.03 3320.04,677.12 3322.18,677.12 3322.18,679.17 3320.14,679.17 3320.14,677.03 
		3320.04,677.03 3320.04,677.12 3320.04,677.03 3319.95,677.03 3319.95,679.36 3322.37,679.36 3322.37,676.94 3319.95,676.94 
		3319.95,677.03 	"/>
	<rect x="3353.04" y="942.21" class="st15" width="2.23" height="2.23"/>
	<polygon points="3353.04,942.21 3353.04,942.31 3355.18,942.31 3355.18,944.35 3353.14,944.35 3353.14,942.21 3353.04,942.21 
		3353.04,942.31 3353.04,942.21 3352.95,942.21 3352.95,944.54 3355.37,944.54 3355.37,942.12 3352.95,942.12 3352.95,942.21 	"/>
	<rect x="3386.04" y="942.21" width="2.23" height="2.23"/>
	<polygon class="st15" points="3386.04,942.21 3386.04,942.31 3388.18,942.31 3388.18,944.35 3386.13,944.35 3386.13,942.21 
		3386.04,942.21 3386.04,942.31 3386.04,942.21 3385.95,942.21 3385.95,944.54 3388.37,944.54 3388.37,942.12 3385.95,942.12 
		3385.95,942.21 	"/>
	<rect x="3419.04" y="809.62" class="st15" width="2.23" height="2.23"/>
	<polygon class="st15" points="3419.04,809.62 3419.04,809.72 3421.18,809.72 3421.18,811.76 3419.13,811.76 3419.13,809.62 
		3419.04,809.62 3419.04,809.72 3419.04,809.62 3418.95,809.62 3418.95,811.95 3421.37,811.95 3421.37,809.53 3418.95,809.53 
		3418.95,809.62 	"/>
	<rect x="3452.04" y="942.21" width="2.23" height="2.23"/>
	<polygon class="st15" points="3452.04,942.21 3452.04,942.31 3454.18,942.31 3454.18,944.35 3452.13,944.35 3452.13,942.21 
		3452.04,942.21 3452.04,942.31 3452.04,942.21 3451.95,942.21 3451.95,944.54 3454.37,944.54 3454.37,942.12 3451.95,942.12 
		3451.95,942.21 	"/>
	<rect x="3485.04" y="942.21" width="2.23" height="2.23"/>
	<polygon class="st15" points="3485.04,942.21 3485.04,942.31 3487.18,942.31 3487.18,944.35 3485.13,944.35 3485.13,942.21 
		3485.04,942.21 3485.04,942.31 3485.04,942.21 3484.95,942.21 3484.95,944.54 3487.37,944.54 3487.37,942.12 3484.95,942.12 
		3484.95,942.21 	"/>
	<rect x="3518.04" y="809.62" class="st15" width="2.23" height="2.23"/>
	<polygon class="st15" points="3518.04,809.62 3518.04,809.72 3520.18,809.72 3520.18,811.76 3518.13,811.76 3518.13,809.62 
		3518.04,809.62 3518.04,809.72 3518.04,809.62 3517.95,809.62 3517.95,811.95 3520.37,811.95 3520.37,809.53 3517.95,809.53 
		3517.95,809.62 	"/>
	<rect x="3551.04" y="942.21" width="2.23" height="2.23"/>
	<polygon class="st15" points="3551.04,942.21 3551.04,942.31 3553.18,942.31 3553.18,944.35 3551.13,944.35 3551.13,942.21 
		3551.04,942.21 3551.04,942.31 3551.04,942.21 3550.95,942.21 3550.95,944.54 3553.36,944.54 3553.36,942.12 3550.95,942.12 
		3550.95,942.21 	"/>
	<rect x="3584.04" y="677.03" class="st15" width="2.23" height="2.23"/>
	<polygon class="st15" points="3584.04,677.03 3584.04,677.12 3586.18,677.12 3586.18,679.17 3584.13,679.17 3584.13,677.03 
		3584.04,677.03 3584.04,677.12 3584.04,677.03 3583.95,677.03 3583.95,679.36 3586.36,679.36 3586.36,676.94 3583.95,676.94 
		3583.95,677.03 	"/>
	<text transform="matrix(1 0 0 1 3044.825 956.423)" class="st4 st7" style="font-size:8.9226px;">1977</text>
	<text transform="matrix(1 0 0 1 3077.9314 956.423)" class="st4 st7" style="font-size:8.9226px;">1978</text>
	<text transform="matrix(1 0 0 1 3111.0349 956.42)" class="st4 st7" style="font-size:8.9226px;">1979</text>
	<text transform="matrix(1 0 0 1 3144.1423 956.42)" class="st4 st7" style="font-size:8.9226px;">1980</text>
	<text transform="matrix(1 0 0 1 3177.2488 956.422)" class="st4 st7" style="font-size:8.9226px;">1981</text>
	<text transform="matrix(1 0 0 1 3210.3552 956.422)" class="st4 st7" style="font-size:8.9226px;">1982</text>
	<text transform="matrix(1 0 0 1 3243.4617 956.422)" class="st4 st7" style="font-size:8.9226px;">1983</text>
	<text transform="matrix(1 0 0 1 3276.5671 956.422)" class="st4 st7" style="font-size:8.9226px;">1984</text>
	<text transform="matrix(1 0 0 1 3309.6726 956.421)" class="st4 st7" style="font-size:8.9226px;">1985</text>
	<text transform="matrix(1 0 0 1 3342.7781 956.421)" class="st4 st7" style="font-size:8.9226px;">1986</text>
	<text transform="matrix(1 0 0 1 3375.8845 956.421)" class="st4 st7" style="font-size:8.9226px;">1987</text>
	<text transform="matrix(1 0 0 1 3408.991 956.421)" class="st4 st7" style="font-size:8.9226px;">1988</text>
	<text transform="matrix(1 0 0 1 3442.0974 956.42)" class="st4 st7" style="font-size:8.9226px;">1989</text>
	<text transform="matrix(1 0 0 1 3475.2039 956.42)" class="st4 st7" style="font-size:8.9226px;">1990</text>
	<text transform="matrix(1 0 0 1 3508.3083 956.42)" class="st4 st7" style="font-size:8.9226px;">1991</text>
	<text transform="matrix(1 0 0 1 3541.4148 956.42)" class="st4 st7" style="font-size:8.9226px;">1992</text>
	<text transform="matrix(1 0 0 1 3574.5212 956.42)" class="st4 st7" style="font-size:8.9226px;">1993</text>
</g>
<g>
	<text transform="matrix(1 0 0 1 2303.52 617.7626)" class="st4 st7" style="font-size:26.7953px;">THE BEATLES</text>
	<rect x="2526.48" y="675.35" class="st1" width="32.66" height="268.08"/>
	<rect x="2393.62" y="675.4" class="st0" width="32.66" height="268.26"/>
	<polyline points="2360.19,943.52 2921.18,943.52 2921.18,943.15 2360.19,943.15 	"/>
	<polyline points="2360.38,943.33 2360.38,936.7 2360.01,936.7 2360.01,943.33 	"/>
	<polyline points="2360.38,943.33 2360.38,678.15 2360.01,678.15 2360.01,943.33 	"/>
	<polyline points="2360.19,943.52 2374.22,943.52 2374.22,943.15 2360.19,943.15 	"/>
	<polyline points="2360.19,810.93 2374.22,810.93 2374.22,810.55 2360.19,810.55 	"/>
	<polyline points="2360.19,678.33 2374.22,678.33 2374.22,677.96 2360.19,677.96 	"/>
	<path class="st15" d="M2409.69,942.96h-33c-0.21,0-0.37,0.17-0.37,0.37c0,0.21,0.17,0.37,0.37,0.37h33c0.21,0,0.37-0.17,0.37-0.37
		C2410.06,943.13,2409.9,942.96,2409.69,942.96"/>
	<path class="st15" d="M2442.69,942.96h-33c-0.21,0-0.37,0.17-0.37,0.37c0,0.21,0.17,0.37,0.37,0.37h33c0.21,0,0.37-0.17,0.37-0.37
		C2443.06,943.13,2442.9,942.96,2442.69,942.96"/>
	<path class="st15" d="M2475.69,942.96h-33c-0.21,0-0.37,0.17-0.37,0.37c0,0.21,0.17,0.37,0.37,0.37h33c0.21,0,0.37-0.17,0.37-0.37
		C2476.06,943.13,2475.9,942.96,2475.69,942.96"/>
	<path class="st15" d="M2508.32,678.1l-33,265.18c-0.03,0.2,0.12,0.39,0.32,0.42c0.2,0.03,0.39-0.12,0.42-0.32l33-265.18
		c0.03-0.2-0.12-0.39-0.32-0.42C2508.53,677.75,2508.35,677.9,2508.32,678.1"/>
	<path class="st15" d="M2542.05,810.65l-33-132.59c-0.05-0.2-0.25-0.32-0.45-0.27c-0.2,0.05-0.32,0.25-0.27,0.45l33,132.59
		c0.05,0.2,0.25,0.32,0.45,0.27C2541.98,811.05,2542.1,810.85,2542.05,810.65"/>
	<path class="st15" d="M2574.69,810.37h-33c-0.21,0-0.37,0.17-0.37,0.37c0,0.21,0.17,0.37,0.37,0.37h33c0.21,0,0.37-0.17,0.37-0.37
		C2575.06,810.53,2574.89,810.37,2574.69,810.37"/>
	<path class="st15" d="M2607.69,810.37h-33c-0.21,0-0.37,0.17-0.37,0.37c0,0.21,0.17,0.37,0.37,0.37h33c0.21,0,0.37-0.17,0.37-0.37
		C2608.06,810.53,2607.89,810.37,2607.69,810.37"/>
	<path class="st15" d="M2640.33,678.06l-33,132.59c-0.05,0.2,0.07,0.4,0.27,0.45c0.2,0.05,0.4-0.07,0.45-0.27l33-132.59
		c0.05-0.2-0.07-0.4-0.27-0.45C2640.58,677.74,2640.38,677.86,2640.33,678.06"/>
	<path class="st15" d="M2674.06,943.29l-33-265.18c-0.03-0.2-0.21-0.35-0.42-0.32c-0.2,0.03-0.35,0.21-0.32,0.42l33,265.18
		c0.03,0.2,0.21,0.35,0.42,0.32C2673.94,943.68,2674.08,943.49,2674.06,943.29"/>
	<path d="M2706.69,942.96h-33c-0.21,0-0.37,0.17-0.37,0.37c0,0.21,0.17,0.37,0.37,0.37h33c0.21,0,0.37-0.17,0.37-0.37
		C2707.06,943.13,2706.89,942.96,2706.69,942.96"/>
	<path class="st15" d="M2739.32,810.65l-33,132.59c-0.05,0.2,0.07,0.4,0.27,0.45c0.2,0.05,0.4-0.07,0.45-0.27l33-132.59
		c0.05-0.2-0.07-0.4-0.27-0.45C2739.58,810.33,2739.37,810.45,2739.32,810.65"/>
	<path class="st15" d="M2773.05,943.24l-33-132.59c-0.05-0.2-0.25-0.32-0.45-0.27c-0.2,0.05-0.32,0.25-0.27,0.45l33,132.59
		c0.05,0.2,0.25,0.32,0.45,0.27C2772.97,943.64,2773.1,943.44,2773.05,943.24"/>
	<path class="st15" d="M2805.68,942.96h-33c-0.21,0-0.37,0.17-0.37,0.37c0,0.21,0.17,0.37,0.37,0.37h33c0.21,0,0.37-0.17,0.37-0.37
		C2806.06,943.13,2805.89,942.96,2805.68,942.96"/>
	<path class="st15" d="M2838.32,810.65l-33,132.59c-0.05,0.2,0.07,0.4,0.27,0.45c0.2,0.05,0.4-0.07,0.45-0.27l33-132.59
		c0.05-0.2-0.07-0.4-0.27-0.45C2838.57,810.33,2838.37,810.45,2838.32,810.65"/>
	<path class="st15" d="M2872.04,943.24l-33-132.59c-0.05-0.2-0.25-0.32-0.45-0.27c-0.2,0.05-0.32,0.25-0.27,0.45l33,132.59
		c0.05,0.2,0.25,0.32,0.45,0.27C2871.97,943.64,2872.09,943.44,2872.04,943.24"/>
	<path class="st15" d="M2904.31,678.1l-33,265.18c-0.03,0.2,0.12,0.39,0.32,0.42c0.2,0.03,0.39-0.12,0.42-0.32l33-265.18
		c0.03-0.2-0.12-0.39-0.32-0.42C2904.52,677.75,2904.34,677.9,2904.31,678.1"/>
	<rect x="2375.57" y="942.22" width="2.23" height="2.23"/>
	<polygon class="st15" points="2375.57,942.22 2375.57,942.31 2377.71,942.31 2377.71,944.36 2375.67,944.36 2375.67,942.22 
		2375.57,942.22 2375.57,942.31 2375.57,942.22 2375.48,942.22 2375.48,944.54 2377.9,944.54 2377.9,942.12 2375.48,942.12 
		2375.48,942.22 	"/>
	<rect x="2408.57" y="942.22" width="2.23" height="2.23"/>
	<polygon class="st15" points="2408.57,942.22 2408.57,942.31 2410.71,942.31 2410.71,944.36 2408.67,944.36 2408.67,942.22 
		2408.57,942.22 2408.57,942.31 2408.57,942.22 2408.48,942.22 2408.48,944.54 2410.9,944.54 2410.9,942.12 2408.48,942.12 
		2408.48,942.22 	"/>
	<rect x="2441.57" y="942.22" width="2.23" height="2.23"/>
	<polygon class="st15" points="2441.57,942.22 2441.57,942.31 2443.71,942.31 2443.71,944.36 2441.67,944.36 2441.67,942.22 
		2441.57,942.22 2441.57,942.31 2441.57,942.22 2441.48,942.22 2441.48,944.54 2443.9,944.54 2443.9,942.12 2441.48,942.12 
		2441.48,942.22 	"/>
	<rect x="2474.57" y="942.22" width="2.23" height="2.23"/>
	<polygon points="2474.57,942.22 2474.57,942.31 2476.71,942.31 2476.71,944.36 2474.67,944.36 2474.67,942.22 2474.57,942.22 
		2474.57,942.31 2474.57,942.22 2474.48,942.22 2474.48,944.54 2476.9,944.54 2476.9,942.12 2474.48,942.12 2474.48,942.22 	"/>
	<rect x="2507.57" y="677.03" class="st15" width="2.23" height="2.23"/>
	<polygon points="2507.57,677.03 2507.57,677.12 2509.71,677.12 2509.71,679.17 2507.67,679.17 2507.67,677.03 2507.57,677.03 
		2507.57,677.12 2507.57,677.03 2507.48,677.03 2507.48,679.36 2509.9,679.36 2509.9,676.94 2507.48,676.94 2507.48,677.03 	"/>
	<rect x="2540.57" y="809.62" width="2.23" height="2.23"/>
	<polygon class="st15" points="2540.57,809.62 2540.57,809.72 2542.71,809.72 2542.71,811.76 2540.67,811.76 2540.67,809.62 
		2540.57,809.62 2540.57,809.72 2540.57,809.62 2540.48,809.62 2540.48,811.95 2542.9,811.95 2542.9,809.53 2540.48,809.53 
		2540.48,809.62 	"/>
	<rect x="2573.57" y="809.62" width="2.23" height="2.23"/>
	<polygon class="st15" points="2573.57,809.62 2573.57,809.72 2575.71,809.72 2575.71,811.76 2573.66,811.76 2573.66,809.62 
		2573.57,809.62 2573.57,809.72 2573.57,809.62 2573.48,809.62 2573.48,811.95 2575.9,811.95 2575.9,809.53 2573.48,809.53 
		2573.48,809.62 	"/>
	<rect x="2606.57" y="809.62" class="st15" width="2.23" height="2.23"/>
	<polygon class="st15" points="2606.57,809.62 2606.57,809.72 2608.71,809.72 2608.71,811.76 2606.66,811.76 2606.66,809.62 
		2606.57,809.62 2606.57,809.72 2606.57,809.62 2606.48,809.62 2606.48,811.95 2608.9,811.95 2608.9,809.53 2606.48,809.53 
		2606.48,809.62 	"/>
	<rect x="2639.57" y="677.03" class="st15" width="2.23" height="2.23"/>
	<polygon class="st15" points="2639.57,677.03 2639.57,677.12 2641.71,677.12 2641.71,679.17 2639.66,679.17 2639.66,677.03 
		2639.57,677.03 2639.57,677.12 2639.57,677.03 2639.48,677.03 2639.48,679.36 2641.9,679.36 2641.9,676.94 2639.48,676.94 
		2639.48,677.03 	"/>
	<rect x="2672.57" y="942.22" class="st15" width="2.23" height="2.23"/>
	<polygon points="2672.57,942.22 2672.57,942.31 2674.71,942.31 2674.71,944.36 2672.66,944.36 2672.66,942.22 2672.57,942.22 
		2672.57,942.31 2672.57,942.22 2672.48,942.22 2672.48,944.54 2674.9,944.54 2674.9,942.12 2672.48,942.12 2672.48,942.22 	"/>
	<rect x="2705.57" y="942.22" width="2.23" height="2.23"/>
	<polygon class="st15" points="2705.57,942.22 2705.57,942.31 2707.71,942.31 2707.71,944.36 2705.66,944.36 2705.66,942.22 
		2705.57,942.22 2705.57,942.31 2705.57,942.22 2705.48,942.22 2705.48,944.54 2707.9,944.54 2707.9,942.12 2705.48,942.12 
		2705.48,942.22 	"/>
	<rect x="2738.57" y="809.62" class="st15" width="2.23" height="2.23"/>
	<polygon class="st15" points="2738.57,809.62 2738.57,809.72 2740.71,809.72 2740.71,811.76 2738.66,811.76 2738.66,809.62 
		2738.57,809.62 2738.57,809.72 2738.57,809.62 2738.48,809.62 2738.48,811.95 2740.89,811.95 2740.89,809.53 2738.48,809.53 
		2738.48,809.62 	"/>
	<rect x="2771.57" y="942.22" width="2.23" height="2.23"/>
	<polygon class="st15" points="2771.57,942.22 2771.57,942.31 2773.71,942.31 2773.71,944.36 2771.66,944.36 2771.66,942.22 
		2771.57,942.22 2771.57,942.31 2771.57,942.22 2771.48,942.22 2771.48,944.54 2773.89,944.54 2773.89,942.12 2771.48,942.12 
		2771.48,942.22 	"/>
	<rect x="2804.57" y="942.22" width="2.23" height="2.23"/>
	<polygon class="st15" points="2804.57,942.22 2804.57,942.31 2806.71,942.31 2806.71,944.36 2804.66,944.36 2804.66,942.22 
		2804.57,942.22 2804.57,942.31 2804.57,942.22 2804.47,942.22 2804.47,944.54 2806.89,944.54 2806.89,942.12 2804.47,942.12 
		2804.47,942.22 	"/>
	<rect x="2837.57" y="809.62" class="st15" width="2.23" height="2.23"/>
	<polygon class="st15" points="2837.57,809.62 2837.57,809.72 2839.71,809.72 2839.71,811.76 2837.66,811.76 2837.66,809.62 
		2837.57,809.62 2837.57,809.72 2837.57,809.62 2837.47,809.62 2837.47,811.95 2839.89,811.95 2839.89,809.53 2837.47,809.53 
		2837.47,809.62 	"/>
	<rect x="2870.57" y="942.22" width="2.23" height="2.23"/>
	<polygon class="st15" points="2870.57,942.22 2870.57,942.31 2872.71,942.31 2872.71,944.36 2870.66,944.36 2870.66,942.22 
		2870.57,942.22 2870.57,942.31 2870.57,942.22 2870.47,942.22 2870.47,944.54 2872.89,944.54 2872.89,942.12 2870.47,942.12 
		2870.47,942.22 	"/>
	<rect x="2903.57" y="677.03" class="st15" width="2.23" height="2.23"/>
	<polygon class="st15" points="2903.57,677.03 2903.57,677.12 2905.71,677.12 2905.71,679.17 2903.66,679.17 2903.66,677.03 
		2903.57,677.03 2903.57,677.12 2903.57,677.03 2903.47,677.03 2903.47,679.36 2905.89,679.36 2905.89,676.94 2903.47,676.94 
		2903.47,677.03 	"/>
	<text transform="matrix(1 0 0 1 2364.353 956.4235)" class="st4 st7" style="font-size:8.9226px;">1977</text>
	<text transform="matrix(1 0 0 1 2397.4595 956.4235)" class="st4 st7" style="font-size:8.9226px;">1978</text>
	<text transform="matrix(1 0 0 1 2430.563 956.4205)" class="st4 st7" style="font-size:8.9226px;">1979</text>
	<text transform="matrix(1 0 0 1 2463.6704 956.4205)" class="st4 st7" style="font-size:8.9226px;">1980</text>
	<text transform="matrix(1 0 0 1 2496.7769 956.4225)" class="st4 st7" style="font-size:8.9226px;">1981</text>
	<text transform="matrix(1 0 0 1 2529.8833 956.4225)" class="st4 st7" style="font-size:8.9226px;">1982</text>
	<text transform="matrix(1 0 0 1 2562.9897 956.4225)" class="st4 st7" style="font-size:8.9226px;">1983</text>
	<text transform="matrix(1 0 0 1 2596.0952 956.4225)" class="st4 st7" style="font-size:8.9226px;">1984</text>
	<text transform="matrix(1 0 0 1 2629.2007 956.4215)" class="st4 st7" style="font-size:8.9226px;">1985</text>
	<text transform="matrix(1 0 0 1 2662.3062 956.4215)" class="st4 st7" style="font-size:8.9226px;">1986</text>
	<text transform="matrix(1 0 0 1 2695.4126 956.4215)" class="st4 st7" style="font-size:8.9226px;">1987</text>
	<text transform="matrix(1 0 0 1 2728.519 956.4215)" class="st4 st7" style="font-size:8.9226px;">1988</text>
	<text transform="matrix(1 0 0 1 2761.6255 956.4205)" class="st4 st7" style="font-size:8.9226px;">1989</text>
	<text transform="matrix(1 0 0 1 2794.7319 956.4205)" class="st4 st7" style="font-size:8.9226px;">1990</text>
	<text transform="matrix(1 0 0 1 2827.8364 956.4205)" class="st4 st7" style="font-size:8.9226px;">1991</text>
	<text transform="matrix(1 0 0 1 2860.9429 956.4205)" class="st4 st7" style="font-size:8.9226px;">1992</text>
	<text transform="matrix(1 0 0 1 2894.0493 956.4205)" class="st4 st7" style="font-size:8.9226px;">1993</text>
</g>
</svg>
